<svg width="35" height="37" viewBox="0 0 35 37" fill="none" xmlns="http://www.w3.org/2000/svg">
<path d="M29.2577 8.35913C27.9031 8.35913 26.8022 7.19615 26.8022 5.76755C26.8022 4.33779 27.9037 3.1748 29.2577 3.1748C30.6112 3.1748 31.7121 4.33836 31.7121 5.76755C31.7121 7.19615 30.6112 8.35913 29.2577 8.35913ZM29.2577 4.32912C28.5069 4.32912 27.896 4.97413 27.896 5.76697C27.896 6.55923 28.5069 7.20366 29.2577 7.20366C30.0086 7.20366 30.6183 6.55923 30.6183 5.76697C30.6183 4.97413 30.0086 4.32912 29.2577 4.32912Z" fill="#2C2C2C"/>
<path d="M29.2578 8.35799C28.9554 8.35799 28.7109 8.09987 28.7109 7.78054V6.0482C28.7109 5.72887 28.9554 5.47075 29.2578 5.47075C29.5602 5.47075 29.8047 5.72887 29.8047 6.0482V7.78054C29.8047 8.09929 29.5602 8.35799 29.2578 8.35799Z" fill="#2C2C2C"/>
<path d="M29.8047 6.62565H28.7109C28.4085 6.62565 28.1641 6.36753 28.1641 6.0482C28.1641 5.72887 28.4085 5.47075 28.7109 5.47075H29.8047C30.1071 5.47075 30.3516 5.72887 30.3516 6.0482C30.3516 6.36753 30.1071 6.62565 29.8047 6.62565Z" fill="#2C2C2C"/>
<path d="M12.3047 3.17655C12.0023 3.17655 11.7578 2.91843 11.7578 2.5991V2.02165C11.7578 1.70232 12.0023 1.4442 12.3047 1.4442C12.6071 1.4442 12.8516 1.70232 12.8516 2.02165V2.5991C12.8516 2.91843 12.6071 3.17655 12.3047 3.17655Z" fill="#DA4453"/>
<path d="M25.9766 21.6653C25.9766 22.3063 25.4844 22.8202 24.8828 22.8202C24.2763 22.8202 23.7891 22.3063 23.7891 21.6653C23.7891 21.0301 24.2763 20.5104 24.8828 20.5104C25.4844 20.5104 25.9766 21.0301 25.9766 21.6653Z" fill="#AAB2BD"/>
<path d="M31.7188 17.473C30.9969 17.9182 30.1552 18.1717 29.2578 18.1717C28.3615 18.1717 27.5187 17.9182 26.7969 17.473C26.0482 17.0168 25.4242 16.3585 24.9982 15.5674C24.5771 14.8052 24.3359 13.9217 24.3359 12.9747C24.3359 12.0277 24.5771 11.1384 24.9982 10.3762C25.4297 9.58505 26.0537 8.92676 26.7969 8.47635C27.5029 8.04326 28.3177 7.78976 29.1873 7.77764C29.2086 7.78399 29.2365 7.78399 29.2578 7.78399C29.2802 7.78399 29.307 7.78399 29.3295 7.77764C30.199 7.78976 31.0138 8.04326 31.7188 8.47635C32.463 8.92676 33.0859 9.58505 33.5185 10.3762C33.9396 11.1384 34.1797 12.0277 34.1797 12.9747C34.1797 13.9223 33.9396 14.8115 33.5185 15.5732C33.0859 16.3643 32.463 17.0226 31.7188 17.473Z" fill="#E6E9ED"/>
<path d="M24.8828 22.8202C29.4115 22.8202 33.0805 26.6955 33.0805 31.4761H33.0859V33.2027V33.2143H16.6797V33.2027V31.4761H16.6852C16.6852 29.5244 17.2982 27.7227 18.3313 26.2733C19.8242 24.1772 22.202 22.8202 24.8828 22.8202Z" fill="#CCD1D9"/>
<path d="M33.0807 31.4761C33.0807 26.6955 29.4117 22.8202 24.883 22.8202C24.5079 22.8202 24.1409 22.8531 23.7783 22.9045C27.7924 23.4664 30.891 27.0841 30.891 31.4761H30.8964V33.2027V33.2143H33.0861V33.2027V31.4761H33.0807Z" fill="#AAB2BD"/>
<path d="M33.6328 33.2143V33.7802C33.6328 34.7387 32.9 35.5125 31.9922 35.5125H27.6172H17.7734C16.8656 35.5125 16.1328 34.7387 16.1328 33.7802V33.2143H16.6797H33.0859H33.6328Z" fill="#CCD1D9"/>
<path d="M16.1328 33.7801C16.1328 34.7387 16.8656 35.5125 17.7734 35.5125H7.92969H0.820312C0.520078 35.5125 0.273438 35.2526 0.273438 34.935V30.8929C0.273438 28.3406 2.23125 26.2733 4.64844 26.2733H8.47656L10.6641 27.4282L12.3047 26.8508L13.9453 27.4282L16.1328 26.2733H18.3313C17.2982 27.7227 16.6852 29.5243 16.6852 31.4761H16.6797V33.2027V33.2142H16.1328V33.7801Z" fill="#F03F37"/>
<path d="M16.1328 23.5425V26.2733L13.9453 27.4282L12.3047 26.8507L10.6641 27.4282L8.47656 26.2733V23.5425C9.61953 24.1783 10.9216 24.5415 12.3047 24.5415C13.6888 24.5415 14.9898 24.1777 16.1328 23.5425Z" fill="#EAC6BB"/>
<path d="M12.3047 4.90831C13.2125 4.90831 13.9453 5.68209 13.9453 6.64065C13.9453 7.59922 13.2125 8.373 12.3047 8.373C11.3969 8.373 10.6641 7.59922 10.6641 6.64065C10.6641 5.68209 11.3969 4.90831 12.3047 4.90831Z" fill="#2C2C2C"/>
<path d="M4.10156 10.6828C4.10156 5.89575 7.77164 2.02107 12.3047 2.02107C16.8334 2.02107 20.5078 5.89575 20.5078 10.6828V12.2188C19.2615 11.549 16.7781 10.6828 12.3047 10.6828C7.83125 10.6828 5.35445 11.5432 4.10156 12.2188V10.6828ZM13.9453 6.64065C13.9453 5.68209 13.2125 4.90831 12.3047 4.90831C11.3969 4.90831 10.6641 5.68209 10.6641 6.64065C10.6641 7.59922 11.3969 8.373 12.3047 8.373C13.2125 8.373 13.9453 7.59922 13.9453 6.64065Z" fill="#F03F37"/>
<path d="M12.3048 2.02107C12.0281 2.02107 11.7536 2.03608 11.4834 2.06495C15.6265 2.4992 18.8662 6.18851 18.8662 10.6828V11.538C19.5613 11.7615 20.1022 12.0005 20.5079 12.2188V10.6828C20.5079 5.89575 16.8335 2.02107 12.3048 2.02107Z" fill="#2C2C2C"/>
<path d="M20.5078 12.9926H4.10156H3.00781C3.00781 12.9926 3.30367 12.6461 4.10156 12.2188C5.35445 11.5432 7.83125 10.6828 12.3047 10.6828C16.7781 10.6828 19.2615 11.549 20.5078 12.2188C21.3013 12.6461 21.6016 12.9926 21.6016 12.9926H20.5078Z" fill="#656D78"/>
<path d="M20.5078 12.9926V15.8798C20.5078 19.2059 18.7359 22.0932 16.1328 23.5426C14.9898 24.1783 13.6888 24.5415 12.3047 24.5415C10.9216 24.5415 9.61953 24.1778 8.47656 23.5426C5.87344 22.0932 4.10156 19.2059 4.10156 15.8798V12.9926H20.5078Z" fill="#EAC6BB"/>
<path d="M18.8662 12.9926V15.8798C18.8662 19.2059 17.0943 22.0932 14.4912 23.5426C13.5768 24.0507 12.5613 24.381 11.4834 24.4948C11.7546 24.5231 12.027 24.5415 12.3048 24.5415C13.6889 24.5415 14.99 24.1778 16.1329 23.5426C18.7361 22.0932 20.5079 19.2059 20.5079 15.8798V12.9926H18.8662Z" fill="#D3B1A9"/>
<path d="M29.2578 8.93544C28.9554 8.93544 28.7109 8.67732 28.7109 8.35799V7.78054C28.7109 7.46121 28.9554 7.20309 29.2578 7.20309C29.5602 7.20309 29.8047 7.46121 29.8047 7.78054V8.35799C29.8047 8.67674 29.5602 8.93544 29.2578 8.93544Z" fill="#CCD1D9"/>
<path d="M29.2578 18.7497C28.9554 18.7497 28.7109 18.4916 28.7109 18.1723V17.5948C28.7109 17.2755 28.9554 17.0174 29.2578 17.0174C29.5602 17.0174 29.8047 17.2755 29.8047 17.5948V18.1723C29.8047 18.491 29.5602 18.7497 29.2578 18.7497Z" fill="#CCD1D9"/>
<path d="M27.071 9.55332C26.8818 9.55332 26.698 9.44995 26.5968 9.26459L26.3234 8.7651C26.173 8.48908 26.2627 8.13568 26.5241 7.97631C26.7839 7.81635 27.1191 7.91105 27.2706 8.18765L27.544 8.68714C27.6955 8.96316 27.6058 9.31656 27.3444 9.47594C27.258 9.52849 27.1639 9.55332 27.071 9.55332Z" fill="#CCD1D9"/>
<path d="M31.7184 18.0539C31.5292 18.0539 31.3455 17.95 31.2443 17.7646L30.9709 17.264C30.8205 16.9879 30.9102 16.6345 31.1716 16.4757C31.4335 16.3164 31.7687 16.4117 31.918 16.6877L32.1915 17.1883C32.343 17.4643 32.2522 17.8177 31.9908 17.9765C31.9055 18.0291 31.8114 18.0539 31.7184 18.0539Z" fill="#CCD1D9"/>
<path d="M25.4691 11.2441C25.3761 11.2441 25.282 11.2193 25.1967 11.1667L24.7237 10.878C24.4617 10.7186 24.372 10.3646 24.523 10.0892C24.6745 9.8126 25.0092 9.7179 25.2706 9.87785L25.7436 10.1666C26.0056 10.326 26.0953 10.6799 25.9432 10.9554C25.842 11.1407 25.6583 11.2441 25.4691 11.2441Z" fill="#CCD1D9"/>
<path d="M33.5194 16.1524C33.4265 16.1524 33.3313 16.1276 33.246 16.0744L32.7719 15.7845C32.5099 15.6246 32.4213 15.2712 32.5733 14.9958C32.7237 14.7192 33.0595 14.6244 33.3198 14.7856L33.794 15.0754C34.0559 15.2354 34.1445 15.5888 33.9925 15.8642C33.8913 16.049 33.7076 16.1524 33.5194 16.1524Z" fill="#CCD1D9"/>
<path d="M24.8838 13.5527H24.3369C24.0345 13.5527 23.79 13.2946 23.79 12.9752C23.79 12.6559 24.0345 12.3978 24.3369 12.3978H24.8838C25.1862 12.3978 25.4307 12.6559 25.4307 12.9752C25.4307 13.2946 25.1862 13.5527 24.8838 13.5527Z" fill="#CCD1D9"/>
<path d="M34.1793 13.5538C34.1782 13.5538 34.1782 13.5538 34.1782 13.5538L33.6303 13.5527C33.3278 13.5521 33.0845 13.2934 33.0845 12.9741C33.0856 12.6553 33.33 12.3978 33.6313 12.3978H33.6324L34.1804 12.399C34.4828 12.3995 34.7262 12.6582 34.7262 12.9776C34.7251 13.2957 34.4806 13.5538 34.1793 13.5538Z" fill="#CCD1D9"/>
<path d="M24.9957 16.1501C24.8065 16.1501 24.6228 16.0461 24.5216 15.8602C24.3712 15.5836 24.4609 15.2308 24.7234 15.072L25.1964 14.7844C25.4573 14.6262 25.7925 14.7209 25.9429 14.9975C26.0933 15.2741 26.0036 15.6269 25.7411 15.7857L25.2681 16.0733C25.1828 16.1253 25.0887 16.1501 24.9957 16.1501Z" fill="#CCD1D9"/>
<path d="M33.0466 11.2441C32.8573 11.2441 32.6736 11.1401 32.5724 10.9548C32.422 10.6788 32.5117 10.3254 32.7731 10.1666L33.2473 9.87784C33.5098 9.71789 33.8434 9.81375 33.9937 10.0898C34.1452 10.3658 34.0544 10.7192 33.793 10.878L33.3189 11.1667C33.2336 11.2193 33.1395 11.2441 33.0466 11.2441Z" fill="#CCD1D9"/>
<path d="M26.7958 18.0528C26.7029 18.0528 26.6088 18.0279 26.5235 17.9754C26.2615 17.816 26.1718 17.462 26.3228 17.1866L26.5962 16.6871C26.7477 16.4105 27.0824 16.3158 27.3438 16.4757C27.6052 16.6357 27.6954 16.9891 27.5434 17.2645L27.27 17.764C27.1688 17.9494 26.985 18.0528 26.7958 18.0528Z" fill="#CCD1D9"/>
<path d="M31.4443 9.55331C31.3513 9.55331 31.2572 9.52848 31.1719 9.47594C30.91 9.31656 30.8203 8.96258 30.9712 8.68714L31.2458 8.18649C31.3961 7.90989 31.7319 7.81519 31.9922 7.97514C32.2542 8.13452 32.3439 8.4885 32.1929 8.76394L31.9184 9.26459C31.8172 9.44995 31.6335 9.55331 31.4443 9.55331Z" fill="#CCD1D9"/>
<path d="M29.2578 13.555C28.9554 13.555 28.7109 13.2969 28.7109 12.9776V10.0903C28.7109 9.77101 28.9554 9.51289 29.2578 9.51289C29.5602 9.51289 29.8047 9.77101 29.8047 10.0903V12.9776C29.8047 13.2963 29.5602 13.555 29.2578 13.555Z" fill="#656D78"/>
<path d="M33.6327 33.7929H16.1338C15.8314 33.7929 15.5869 33.5347 15.5869 33.2154C15.5869 32.8961 15.8314 32.638 16.1338 32.638H33.6327C33.9351 32.638 34.1796 32.8961 34.1796 33.2154C34.1796 33.5347 33.9351 33.7929 33.6327 33.7929Z" fill="#E6E9ED"/>
<path d="M29.2578 18.7509C26.2423 18.7509 23.7891 16.1605 23.7891 12.9764C23.7891 9.79237 26.2423 7.20193 29.2578 7.20193C32.2733 7.20193 34.7266 9.79237 34.7266 12.9764C34.7266 16.1605 32.2733 18.7509 29.2578 18.7509ZM29.2578 8.35683C26.845 8.35683 24.8828 10.4293 24.8828 12.9764C24.8828 15.5235 26.845 17.596 29.2578 17.596C31.6695 17.596 33.6328 15.5235 33.6328 12.9764C33.6328 10.4293 31.6695 8.35683 29.2578 8.35683Z" fill="#F03F37"/>
</svg>
