<svg width="28" height="21" viewBox="0 0 28 21" fill="none" xmlns="http://www.w3.org/2000/svg">
<path d="M26.032 0.000274673H1.968C1.45562 -0.00840876 0.960738 0.189099 0.591835 0.549507C0.222933 0.909915 0.0101045 1.40382 0 1.92296L0 18.1396C0.0100464 18.6587 0.222849 19.1527 0.591758 19.5132C0.960667 19.8736 1.45558 20.0711 1.968 20.0625H26.032C26.5444 20.0711 27.0393 19.8736 27.4082 19.5132C27.7772 19.1527 27.99 18.6587 28 18.1396V1.92296C27.9899 1.40382 27.7771 0.909915 27.4082 0.549507C27.0393 0.189099 26.5444 -0.00840876 26.032 0.000274673ZM27.0667 18.1396C27.0614 18.4125 26.9495 18.6721 26.7555 18.8616C26.5616 19.0511 26.3014 19.1549 26.032 19.1503H1.968C1.69862 19.1549 1.43845 19.0511 1.2445 18.8616C1.05055 18.6721 0.938648 18.4125 0.933333 18.1396V1.92296C0.938648 1.65003 1.05055 1.39037 1.2445 1.2009C1.43845 1.01143 1.69862 0.90761 1.968 0.912193H26.032C26.3014 0.90761 26.5616 1.01143 26.7555 1.2009C26.9495 1.39037 27.0614 1.65003 27.0667 1.92296V18.1396Z" fill="#F03F37"/>
<path d="M18.1335 13.4978H13.9335C13.8097 13.4978 13.691 13.5477 13.6035 13.6363C13.516 13.725 13.4668 13.8453 13.4668 13.9707C13.4668 14.0961 13.516 14.2164 13.6035 14.305C13.691 14.3937 13.8097 14.4435 13.9335 14.4435H18.1335C18.2572 14.4435 18.3759 14.3937 18.4634 14.305C18.551 14.2164 18.6001 14.0961 18.6001 13.9707C18.6001 13.8453 18.551 13.725 18.4634 13.6363C18.3759 13.5477 18.2572 13.4978 18.1335 13.4978Z" fill="#F03F37"/>
<path d="M24.1999 13.4978H19.9999C19.8761 13.4978 19.7574 13.5477 19.6699 13.6363C19.5824 13.725 19.5332 13.8453 19.5332 13.9707C19.5332 14.0961 19.5824 14.2164 19.6699 14.305C19.7574 14.3937 19.8761 14.4435 19.9999 14.4435H24.1999C24.3236 14.4435 24.4423 14.3937 24.5299 14.305C24.6174 14.2164 24.6665 14.0961 24.6665 13.9707C24.6665 13.8453 24.6174 13.725 24.5299 13.6363C24.4423 13.5477 24.3236 13.4978 24.1999 13.4978Z" fill="#F03F37"/>
<path d="M14.4001 15.8621H13.9335C13.8097 15.8621 13.691 15.9119 13.6035 16.0006C13.516 16.0892 13.4668 16.2095 13.4668 16.3349C13.4668 16.4603 13.516 16.5806 13.6035 16.6693C13.691 16.758 13.8097 16.8078 13.9335 16.8078H14.4001C14.5239 16.8078 14.6426 16.758 14.7301 16.6693C14.8176 16.5806 14.8668 16.4603 14.8668 16.3349C14.8668 16.2095 14.8176 16.0892 14.7301 16.0006C14.6426 15.9119 14.5239 15.8621 14.4001 15.8621Z" fill="#F03F37"/>
<path d="M17.1998 15.8621H16.2665C16.1427 15.8621 16.024 15.9119 15.9365 16.0006C15.849 16.0892 15.7998 16.2095 15.7998 16.3349C15.7998 16.4603 15.849 16.5806 15.9365 16.6693C16.024 16.758 16.1427 16.8078 16.2665 16.8078H17.1998C17.3236 16.8078 17.4423 16.758 17.5298 16.6693C17.6173 16.5806 17.6665 16.4603 17.6665 16.3349C17.6665 16.2095 17.6173 16.0892 17.5298 16.0006C17.4423 15.9119 17.3236 15.8621 17.1998 15.8621Z" fill="#F03F37"/>
<path d="M19.5329 15.8621H19.0663C18.9425 15.8621 18.8238 15.9119 18.7363 16.0006C18.6488 16.0892 18.5996 16.2095 18.5996 16.3349C18.5996 16.4603 18.6488 16.5806 18.7363 16.6693C18.8238 16.758 18.9425 16.8078 19.0663 16.8078H19.5329C19.6567 16.8078 19.7754 16.758 19.8629 16.6693C19.9504 16.5806 19.9996 16.4603 19.9996 16.3349C19.9996 16.2095 19.9504 16.0892 19.8629 16.0006C19.7754 15.9119 19.6567 15.8621 19.5329 15.8621Z" fill="#F03F37"/>
<path d="M22.3336 15.8621H21.4003C21.2765 15.8621 21.1578 15.9119 21.0703 16.0006C20.9828 16.0892 20.9336 16.2095 20.9336 16.3349C20.9336 16.4603 20.9828 16.5806 21.0703 16.6693C21.1578 16.758 21.2765 16.8078 21.4003 16.8078H22.3336C22.4574 16.8078 22.5761 16.758 22.6636 16.6693C22.7511 16.5806 22.8003 16.4603 22.8003 16.3349C22.8003 16.2095 22.7511 16.0892 22.6636 16.0006C22.5761 15.9119 22.4574 15.8621 22.3336 15.8621Z" fill="#F03F37"/>
<path d="M23.8687 16.0003C23.8038 16.0666 23.7598 16.1509 23.7421 16.2425C23.7244 16.3341 23.7339 16.429 23.7693 16.5152C23.8047 16.6013 23.8645 16.675 23.9412 16.7267C24.0179 16.7785 24.1079 16.8062 24.2001 16.8062C24.2922 16.8062 24.3823 16.7785 24.4589 16.7267C24.5356 16.675 24.5954 16.6013 24.6308 16.5152C24.6663 16.429 24.6757 16.3341 24.658 16.2425C24.6403 16.1509 24.5963 16.0666 24.5314 16.0003C24.4411 15.916 24.3228 15.8692 24.2001 15.8692C24.0773 15.8692 23.959 15.916 23.8687 16.0003Z" fill="#F03F37"/>
<path d="M4.40981 16.7177H8.7247C8.91594 16.7174 9.09927 16.6404 9.2345 16.5033C9.36972 16.3663 9.4458 16.1806 9.44603 15.9868V12.9113C9.4458 12.7175 9.36972 12.5317 9.2345 12.3947C9.09927 12.2577 8.91594 12.1806 8.7247 12.1804H4.40981C4.21857 12.1806 4.03524 12.2577 3.90001 12.3947C3.76478 12.5317 3.68871 12.7175 3.68848 12.9113V15.987C3.68877 16.1807 3.76487 16.3665 3.90009 16.5034C4.03531 16.6404 4.21861 16.7174 4.40981 16.7177ZM5.60781 14.7732H4.32825V14.1249H5.60781V14.7732ZM4.32825 15.987V15.4214H5.60781V15.987C5.60893 16.0147 5.61168 16.0423 5.61603 16.0697H4.40981C4.3991 16.0697 4.38849 16.0675 4.3786 16.0634C4.36871 16.0592 4.35971 16.0531 4.35214 16.0454C4.34457 16.0378 4.33856 16.0287 4.33446 16.0186C4.33036 16.0086 4.32825 15.9979 4.32825 15.987ZM8.80625 14.7732H7.52692V14.2069C7.52692 14.1849 7.53551 14.1639 7.55081 14.1484C7.5661 14.1329 7.58685 14.1242 7.60848 14.1242H8.7247C8.75202 14.1231 8.77926 14.1203 8.80625 14.1159V14.7725V14.7732ZM8.7247 16.0697H7.51848C7.52283 16.0423 7.52557 16.0147 7.5267 15.987V15.4214H8.80625V15.987C8.80625 16.0089 8.79766 16.03 8.78237 16.0454C8.76707 16.0609 8.74633 16.0697 8.7247 16.0697ZM8.7247 12.8286C8.74633 12.8286 8.76707 12.8373 8.78237 12.8528C8.79766 12.8683 8.80625 12.8893 8.80625 12.9113V13.3942C8.80625 13.4051 8.80414 13.4158 8.80005 13.4259C8.79595 13.4359 8.78994 13.445 8.78237 13.4527C8.77479 13.4603 8.7658 13.4664 8.75591 13.4706C8.74601 13.4747 8.73541 13.4769 8.7247 13.4769H7.60848C7.41739 13.4771 7.23419 13.5541 7.09899 13.6909C6.96379 13.8277 6.88761 14.0132 6.88714 14.2069V15.9857C6.88714 16.0076 6.87855 16.0286 6.86326 16.0441C6.84796 16.0596 6.82722 16.0683 6.80559 16.0683H6.32892C6.30729 16.0683 6.28655 16.0596 6.27125 16.0441C6.25596 16.0286 6.24736 16.0076 6.24736 15.9857V12.9113C6.24736 12.8893 6.25596 12.8683 6.27125 12.8528C6.28655 12.8373 6.30729 12.8286 6.32892 12.8286H8.7247ZM4.40981 12.8286H5.61603C5.61168 12.856 5.60893 12.8836 5.60781 12.9113V13.4769H4.32825V12.9113C4.32825 12.8893 4.33685 12.8683 4.35214 12.8528C4.36744 12.8373 4.38818 12.8286 4.40981 12.8286Z" fill="#F03F37"/>
<path d="M27.5559 4.82899H0.666992V9.10713H27.5559V4.82899Z" fill="#F03F37"/>
</svg>
