<?xml version="1.0" encoding="UTF-8"?>
<svg width="310px" height="664px" viewBox="0 0 310 664" version="1.1" xmlns="http://www.w3.org/2000/svg" xmlns:xlink="http://www.w3.org/1999/xlink">
    <!-- Generator: Sketch 61.2 (89653) - https://sketch.com -->
    <title>this-week-desktop</title>
    <desc>Created with Sketch.</desc>
    <defs>
        <polygon id="path-1" points="91.0889609 -1.13686838e-13 310 -1.13686838e-13 310 664 4.98844022e-13 664"></polygon>
    </defs>
    <g id="Template" stroke="none" stroke-width="1" fill="none" fill-rule="evenodd">
        <g id="this-week-desktop">
            <mask id="mask-2" fill="white">
                <use xlink:href="#path-1"></use>
            </mask>
            <use id="Mask" fill="#F7FCFF" xlink:href="#path-1"></use>
            <g id="BG" opacity="0.5" mask="url(#mask-2)">
                <g transform="translate(-55.000000, 280.500000)">
                    <polygon id="Fill-1" stroke="none" fill="#AAD5FF" fill-rule="evenodd" points="176.419829 270.480951 135.8719 270.480951 135.8719 186.301629 176.419829 152.659313"></polygon>
                    <polygon id="Fill-3" stroke="none" fill="#C3E4FF" fill-rule="evenodd" points="354.448539 302.084446 399.572878 302.084446 399.572878 155.376555 354.448539 155.376555"></polygon>
                    <polygon id="Fill-4" stroke="none" fill="#AAD5FF" fill-rule="evenodd" points="151.615165 398.086639 261.103898 398.086639 261.103898 246.350183 151.615165 246.350183"></polygon>
                    <polygon id="Fill-6" stroke="none" fill="#AAD5FF" fill-rule="evenodd" points="1.63233797 397.755022 111.121071 397.755022 111.121071 346.080905 1.63233797 346.080905"></polygon>
                    <polygon id="Fill-7" stroke="none" fill="#AAD5FF" fill-rule="evenodd" points="252.376946 397.03796 361.865679 397.03796 361.865679 312.207419 252.376946 312.207419"></polygon>
                    <polygon id="Fill-33" stroke="none" fill="#E8F6FF" fill-rule="evenodd" points="283.13998 225.778868 291.103155 225.778868 291.103155 211.570276 283.13998 211.570276"></polygon>
                    <polygon id="Fill-34" stroke="none" fill="#E8F6FF" fill-rule="evenodd" points="283.13998 197.361684 291.103155 197.361684 291.103155 183.153092 283.13998 183.153092"></polygon>
                    <polygon id="Fill-35" stroke="none" fill="#D6EEFF" fill-rule="evenodd" points="275.306584 397.755022 343.844591 397.755022 343.844591 32.2740347 275.306584 32.2740347"></polygon>
                    <polygon id="Fill-36" stroke="none" fill="#AAD5FF" fill-rule="evenodd" points="343.844591 397.755022 387.292852 397.755022 387.292852 32.2740347 343.844591 32.2740347"></polygon>
                    <polygon id="Fill-37" stroke="none" fill="#D6EEFF" fill-rule="evenodd" points="275.306584 23.8447122 343.844591 23.8447122 343.844591 7.13409336 275.306584 7.13409336"></polygon>
                    <polygon id="Fill-38" stroke="none" fill="#D6EEFF" fill-rule="evenodd" points="287.729849 17.1902621 315.381539 17.1902621 315.381539 0.479643302 287.729849 0.479643302"></polygon>
                    <polygon id="Fill-39" stroke="none" fill="#D6EEFF" fill-rule="evenodd" points="350.536888 17.1902621 378.188097 17.1902621 378.188097 0.479643302 350.536888 0.479643302"></polygon>
                    <polygon id="Fill-40" stroke="none" fill="#AAD5FF" fill-rule="evenodd" points="343.844591 23.8447122 387.292852 23.8447122 387.292852 7.13409336 343.844591 7.13409336"></polygon>
                    <polygon id="Fill-41" stroke="none" fill="#D6EEFF" fill-rule="evenodd" points="268.980073 32.2735541 345.261591 32.2735541 345.261591 23.8447122 268.980073 23.8447122"></polygon>
                    <polygon id="Fill-42" stroke="none" fill="#C3E4FF" fill-rule="evenodd" points="345.262072 32.2735541 393.618882 32.2735541 393.618882 23.8447122 345.262072 23.8447122"></polygon>
                    <polygon id="Fill-43" stroke="none" fill="#C3E4FF" fill-rule="evenodd" points="283.13998 397.755022 291.103155 397.755022 291.103155 40.555331 283.13998 40.555331"></polygon>
                    <polygon id="Fill-44" stroke="none" fill="#C3E4FF" fill-rule="evenodd" points="327.641377 397.755022 335.605033 397.755022 335.605033 40.555331 327.641377 40.555331"></polygon>
                    <polygon id="Fill-45" stroke="none" fill="#C3E4FF" fill-rule="evenodd" points="312.807578 397.755022 320.770753 397.755022 320.770753 40.555331 312.807578 40.555331"></polygon>
                    <polygon id="Fill-46" stroke="none" fill="#C3E4FF" fill-rule="evenodd" points="297.973779 397.755022 305.936954 397.755022 305.936954 40.555331 297.973779 40.555331"></polygon>
                    <polygon id="Fill-47" stroke="none" fill="#E8F6FF" fill-rule="evenodd" points="297.973779 211.570276 305.936954 211.570276 305.936954 197.361684 297.973779 197.361684"></polygon>
                    <polygon id="Fill-48" stroke="none" fill="#E8F6FF" fill-rule="evenodd" points="312.807578 342.460511 320.770753 342.460511 320.770753 328.25192 312.807578 328.25192"></polygon>
                    <polygon id="Fill-49" stroke="none" fill="#E8F6FF" fill-rule="evenodd" points="312.807578 328.25192 320.770753 328.25192 320.770753 314.043328 312.807578 314.043328"></polygon>
                    <polygon id="Fill-50" stroke="none" fill="#AAD5FF" fill-rule="evenodd" points="327.641377 285.589138 335.605033 285.589138 335.605033 271.380546 327.641377 271.380546"></polygon>
                    <polygon id="Fill-52" stroke="none" fill="#AAD5FF" fill-rule="evenodd" points="283.13998 300.006793 291.103155 300.006793 291.103155 285.798201 283.13998 285.798201"></polygon>
                    <polygon id="Fill-53" stroke="none" fill="#AAD5FF" fill-rule="evenodd" points="327.641377 168.173611 335.605033 168.173611 335.605033 153.965019 327.641377 153.965019"></polygon>
                    <polygon id="Fill-54" stroke="none" fill="#AAD5FF" fill-rule="evenodd" points="283.13998 145.843764 291.103155 145.843764 291.103155 131.635172 283.13998 131.635172"></polygon>
                    <polygon id="Fill-55" stroke="none" fill="#AAD5FF" fill-rule="evenodd" points="312.807578 299.834736 320.770753 299.834736 320.770753 285.626144 312.807578 285.626144"></polygon>
                    <polygon id="Fill-57" stroke="none" fill="#E8F6FF" fill-rule="evenodd" points="283.13998 358.788569 291.103155 358.788569 291.103155 344.579977 283.13998 344.579977"></polygon>
                    <polygon id="Fill-58" stroke="none" fill="#E8F6FF" fill-rule="evenodd" points="312.807578 197.361684 320.770753 197.361684 320.770753 183.153092 312.807578 183.153092"></polygon>
                    <polygon id="Fill-59" stroke="none" fill="#E8F6FF" fill-rule="evenodd" points="283.13998 239.987459 291.103155 239.987459 291.103155 225.778868 283.13998 225.778868"></polygon>
                    <polygon id="Fill-60" stroke="none" fill="#E8F6FF" fill-rule="evenodd" points="327.641377 114.796232 335.605033 114.796232 335.605033 100.58764 327.641377 100.58764"></polygon>
                    <polygon id="Fill-61" stroke="none" fill="#E8F6FF" fill-rule="evenodd" points="283.13998 92.7129356 291.103155 92.7129356 291.103155 78.5043438 283.13998 78.5043438"></polygon>
                    <polygon id="Fill-62" stroke="none" fill="#E8F6FF" fill-rule="evenodd" points="283.13998 106.921527 291.103155 106.921527 291.103155 92.7129356 283.13998 92.7129356"></polygon>
                    <polygon id="Fill-63" stroke="none" fill="#E8F6FF" fill-rule="evenodd" points="312.807578 183.152612 320.770753 183.152612 320.770753 168.94402 312.807578 168.94402"></polygon>
                    <line x1="209.783067" y1="186.21536" x2="209.783067" y2="214.269207" id="Stroke-83" stroke="#C3E4FF" stroke-width="2.56933116" fill="none"></line>
                    <polygon id="Fill-84" stroke="none" fill="#C3E4FF" fill-rule="evenodd" points="123.115582 225.778868 147.370413 225.778868 147.370413 205.075867 123.115582 205.075867"></polygon>
                    <polygon id="Fill-85" stroke="none" fill="#D6EEFF" fill-rule="evenodd" points="99.7475781 397.755022 186.535469 397.755022 186.535469 214.26887 99.7475781 214.26887"></polygon>
                    <polygon id="Fill-86" stroke="none" fill="#AAD5FF" fill-rule="evenodd" points="108.621613 397.755022 118.678565 397.755022 118.678565 223.332591 108.621613 223.332591"></polygon>
                    <polygon id="Fill-87" stroke="none" fill="#AAD5FF" fill-rule="evenodd" points="127.355047 397.755022 137.411998 397.755022 137.411998 223.332591 127.355047 223.332591"></polygon>
                    <polygon id="Fill-88" stroke="none" fill="#AAD5FF" fill-rule="evenodd" points="146.088961 397.755022 156.145912 397.755022 156.145912 223.332591 146.088961 223.332591"></polygon>
                    <polygon id="Fill-89" stroke="none" fill="#AAD5FF" fill-rule="evenodd" points="164.822394 397.755022 174.879346 397.755022 174.879346 223.332591 164.822394 223.332591"></polygon>
                    <polygon id="Fill-90" stroke="none" fill="#C3E4FF" fill-rule="evenodd" points="195.706075 225.778868 219.961387 225.778868 219.961387 205.075867 195.706075 205.075867"></polygon>
                    <polygon id="Fill-91" stroke="none" fill="#C3E4FF" fill-rule="evenodd" points="186.535469 397.755022 241.552854 397.755022 241.552854 214.26887 186.535469 214.26887"></polygon>
                    <polygon id="Fill-92" stroke="none" fill="#D6EEFF" fill-rule="evenodd" points="205.060775 397.755022 215.117727 397.755022 215.117727 274.79428 205.060775 274.79428"></polygon>
                    <polygon id="Fill-93" stroke="none" fill="#D6EEFF" fill-rule="evenodd" points="223.794689 397.755022 233.851641 397.755022 233.851641 274.79428 223.794689 274.79428"></polygon>
                    <polygon id="Fill-94" stroke="none" fill="#D6EEFF" fill-rule="evenodd" points="33.1942367 399.051212 108.32264 399.051212 108.32264 295.792852 33.1942367 295.792852"></polygon>
                    <polygon id="Fill-95" stroke="none" fill="#C3E4FF" fill-rule="evenodd" points="108.32264 399.051212 155.94884 399.051212 155.94884 295.792852 108.32264 295.792852"></polygon>
                    <g id="Group-108" stroke="none" stroke-width="1" fill="none" fill-rule="evenodd" transform="translate(33.165877, 299.599240)">
                        <polygon id="Fill-96" fill="#AAD5FF" points="0.0283592286 86.1041429 107.992904 86.1041429 107.992904 77.1980608 0.0283592286 77.1980608"></polygon>
                        <polygon id="Fill-98" fill="#AAD5FF" points="0.0283592286 70.7459452 107.992904 70.7459452 107.992904 61.839863 0.0283592286 61.839863"></polygon>
                        <polygon id="Fill-100" fill="#AAD5FF" points="0.0283592286 55.3882281 107.992904 55.3882281 107.992904 46.4821459 0.0283592286 46.4821459"></polygon>
                        <polygon id="Fill-102" fill="#AAD5FF" points="0.0283592286 40.0300303 107.992904 40.0300303 107.992904 31.1239481 0.0283592286 31.1239481"></polygon>
                        <polygon id="Fill-104" fill="#AAD5FF" points="0.0283592286 24.6718326 107.992904 24.6718326 107.992904 15.766231 0.0283592286 15.766231"></polygon>
                        <polygon id="Fill-106" fill="#AAD5FF" points="0.0283592286 9.31411542 107.992904 9.31411542 107.992904 0.40803323 0.0283592286 0.40803323"></polygon>
                    </g>
                    <polygon id="Fill-109" stroke="none" fill="#E8F6FF" fill-rule="evenodd" points="79.4673651 385.703383 95.3663176 385.703383 95.3663176 376.797301 79.4673651 376.797301"></polygon>
                    <polygon id="Fill-110" stroke="none" fill="#E8F6FF" fill-rule="evenodd" points="79.4673651 370.345185 95.3663176 370.345185 95.3663176 361.439103 79.4673651 361.439103"></polygon>
                    <polygon id="Fill-111" stroke="none" fill="#E8F6FF" fill-rule="evenodd" points="63.5684125 385.703383 79.4673651 385.703383 79.4673651 376.797301 63.5684125 376.797301"></polygon>
                    <polygon id="Fill-112" stroke="none" fill="#E8F6FF" fill-rule="evenodd" points="79.2270326 339.62927 95.1259852 339.62927 95.1259852 330.723188 79.2270326 330.723188"></polygon>
                    <polygon id="Fill-113" stroke="none" fill="#E8F6FF" fill-rule="evenodd" points="40.4782324 324.271073 56.377185 324.271073 56.377185 315.365471 40.4782324 315.365471"></polygon>
                    <polygon id="Fill-114" stroke="none" fill="#E8F6FF" fill-rule="evenodd" points="56.3767044 324.271073 72.275657 324.271073 72.275657 315.365471 56.3767044 315.365471"></polygon>
                </g>
            </g>
            <g id="Group-60" mask="url(#mask-2)">
                <g transform="translate(178.500000, 472.500000) scale(-1, 1) translate(-178.500000, -472.500000) translate(70.000000, 281.000000)" id="Path">
                    <polygon stroke="none" fill="#F9D0B5" fill-rule="nonzero" points="107.512408 53.3782219 87.986459 52.6719303 87.0122935 79.641023 106.538242 80.3473145"></polygon>
                    <polygon stroke="none" fill="#162C56" fill-rule="nonzero" points="65.0865465 382.918698 19.0920389 382.918698 4.68581759e-13 364.510943 12.4655062 344.557077 33.4988534 363.737887"></polygon>
                    <polygon stroke="none" fill="#274992" fill-rule="nonzero" points="38.5655675 367.588105 88.2066746 279.99189 83.1552602 365.926538 128.206653 365.926538 132.676177 257.899572 121.484811 139.551814 45.7135948 138.949434 49.6313253 252.437986 3.64710113 341.028129"></polygon>
                    <path d="M77.7025418,299.579307 L87.7351424,279.499945 C91.961877,271.070629 94.426887,261.867756 94.97868,252.453045 L97.0453957,216.957754" stroke="#FFFFFF" stroke-width="1.00348885" fill="none" stroke-linecap="square"></path>
                    <polygon stroke="none" fill="#162C56" fill-rule="nonzero" points="84.9661446 365.379375 78.1439762 382.918698 155.249528 382.918698 122.307484 365.379375"></polygon>
                    <path d="M102.568342,58.9331773 L104.815645,58.9833757 C107.427632,59.0395979 110.020056,58.5185385 112.407815,57.4578462 C114.795574,56.3966519 116.920479,54.82243 118.631038,52.8461188 C120.341596,50.8698076 121.595169,48.5406017 122.303471,46.0241557 C123.011773,43.5077097 123.157245,40.8657676 122.728853,38.2865736 L120.611975,25.5110798 C119.929256,21.3847709 117.814885,17.6309343 114.640571,14.9096788 C111.466256,12.1884233 107.435157,10.6739374 103.255575,10.6322728 L103.255575,10.6322728 C100.920989,10.6081775 98.6044618,11.0449037 96.4384234,11.9168499 C94.2723849,12.7892982 92.299474,14.0798992 90.6315541,15.7148612 C88.9641359,17.3503252 87.6348164,19.2980233 86.7193415,21.447519 C85.8038667,23.5970146 85.320797,25.9056392 85.2972204,28.241873 L85.1667966,40.9671684 C85.1181385,45.6516835 86.9184887,50.166026 90.1770773,53.5298211 C93.4351644,56.8941181 97.8881342,58.8357924 102.568342,58.9331773 L102.568342,58.9331773 Z" stroke="none" fill="#F9D0B5" fill-rule="nonzero"></path>
                    <path d="M91.0198158,46.2164155 L91.0238288,46.2134036 C93.9137194,44.0488485 94.5021315,39.9491448 92.3391028,37.0577167 L90.1143736,34.0839632 C87.9508433,31.1920332 83.8545324,30.6027039 80.9646418,32.7677611 L80.9606288,32.770773 C78.0707382,34.9358302 77.4818245,39.0350318 79.6453549,41.9269619 L81.870084,44.9007154 C84.0336144,47.7921435 88.1299252,48.3814727 91.0198158,46.2164155 Z" stroke="none" fill="#3361C2" fill-rule="nonzero"></path>
                    <line x1="82.167049" y1="37.7795698" x2="86.6616541" y2="42.4881801" stroke="#FFFFFF" stroke-width="1.00348885" fill="none" stroke-linecap="square"></line>
                    <polyline stroke="#24252D" stroke-width="1.00348885" fill="none" stroke-linecap="square" points="113.995474 31.4194319 115.304729 41.7251643 111.64283 42.207069"></polyline>
                    <path d="M101.931272,46.2179215 C101.678952,46.8077527 101.545519,47.4412566 101.537994,48.0827922 C101.529968,48.7238258 101.648854,49.3608436 101.887129,49.9561967 C102.125403,50.5515497 102.478551,51.0941945 102.926506,51.5530079 C103.374462,52.0123233 103.908196,52.3782697 104.49711,52.6307676 C105.086525,52.8832656 105.719582,53.0172953 106.360665,53.0248251 C107.001749,53.0323549 107.637815,52.9133847 108.232749,52.6749422 C108.827682,52.4364998 109.370446,52.083103 109.828935,51.6353333 C110.287425,51.1870615 110.653114,50.6529505 110.905433,50.0631193 C111.968889,47.5833181 109.400543,46.7299452 106.892393,45.6707589 C104.384243,44.6115726 102.994728,43.7381203 101.931272,46.2179215 Z" stroke="none" fill="#24272D" fill-rule="nonzero"></path>
                    <path d="M92.139454,47.6786951 L95.4000492,28.5631427 L96.1775758,24.0452864 C97.3925237,25.1315798 98.7790291,26.008546 100.280909,26.6405439 C105.728612,28.96473 121.018295,28.0159801 122.187093,16.8267559 C122.297451,15.75251 116.318021,16.4502678 116.167532,15.7625497 C115.109093,10.5870942 113.78479,12.1081059 109.440674,12.007709 C101.705539,11.821975 95.9769237,7.80108278 86.0195677,14.4272721 C74.1008381,22.35862 81.5550604,38.4522284 81.5550604,38.4522284 C81.5550604,38.4522284 86.8924039,35.7866931 92.139454,47.6786951 Z" stroke="none" fill="#24272D" fill-rule="nonzero"></path>
                    <polygon stroke="none" fill="#24272D" fill-rule="nonzero" points="107.238518 58.8026614 100.541757 58.8026614 107.148225 64.1688708"></polygon>
                    <path d="M105.994475,35.6461376 C107.005762,35.6461376 107.825425,34.8258957 107.825425,33.8138958 C107.825425,32.801896 107.005762,31.9816541 105.994475,31.9816541 C104.983189,31.9816541 104.163526,32.801896 104.163526,33.8138958 C104.163526,34.8258957 104.983189,35.6461376 105.994475,35.6461376 Z" stroke="none" fill="#24272D" fill-rule="nonzero"></path>
                    <path d="M119.267606,35.6461376 C120.278892,35.6461376 121.098556,34.8258957 121.098556,33.8138958 C121.098556,32.801896 120.278892,31.9816541 119.267606,31.9816541 C118.25632,31.9816541 117.436656,32.801896 117.436656,33.8138958 C117.436656,34.8258957 118.25632,35.6461376 119.267606,35.6461376 Z" stroke="none" fill="#24272D" fill-rule="nonzero"></path>
                    <path d="M77.8881449,30.0741147 C76.0441529,24.2275066 76.5964475,17.8874481 79.424136,12.448451 C82.2513229,7.00945394 87.1221505,2.91728003 92.9646354,1.0719867 C98.8071204,-0.773306641 105.142708,-0.220622211 110.577869,2.60906183 C116.01303,5.43824389 120.102318,10.3125089 121.94631,16.1591171" stroke="none" fill="#274992" fill-rule="nonzero"></path>
                    <line x1="77.8881449" y1="30.0439957" x2="136.654103" y2="11.4906655" stroke="#274992" stroke-width="1.67248142" fill="none"></line>
                    <polygon stroke="none" fill="#EA6F57" fill-rule="nonzero" points="116.729358 211.646762 70.0526838 211.646762 72.8818772 120.054754 124.098303 120.054754 116.689228 211.516247"></polygon>
                    <polygon stroke="none" fill="#EA6F57" fill-rule="nonzero" points="74.4419466 69.3192271 54.2663868 69.3192271 45.4427146 20.5464576 68.5327448 20.5464576"></polygon>
                    <polygon stroke="none" fill="#FFBA5F" fill-rule="nonzero" points="97.8028571 69.3192271 67.0930666 69.3192271 61.1838649 20.5464576 92.2949593 20.5464576"></polygon>
                    <polygon stroke="none" fill="#EA6F57" fill-rule="nonzero" points="110.147972 69.3192271 105.412585 120.054754 71.0860417 120.054754 70.4539878 69.3192271"></polygon>
                    <polygon stroke="none" fill="#FFBA5F" fill-rule="nonzero" points="87.1482352 69.3192271 94.6927509 120.054754 144.534711 120.054754 141.173789 69.3192271"></polygon>
                    <line x1="67.5746315" y1="28.6233808" x2="82.8743474" y2="28.6233808" stroke="#FFFFFF" stroke-width="1.33798514" fill="none" stroke-linecap="square"></line>
                    <line x1="68.0110496" y1="34.0548482" x2="83.3107655" y2="34.0548482" stroke="#FFFFFF" stroke-width="1.33798514" fill="none" stroke-linecap="square"></line>
                    <line x1="69.4507278" y1="39.4812957" x2="84.7504437" y2="39.4812957" stroke="#FFFFFF" stroke-width="1.33798514" fill="none" stroke-linecap="square"></line>
                    <line x1="93.5991974" y1="74.5850397" x2="114.371697" y2="74.5850397" stroke="#FFFFFF" stroke-width="1.33798514" fill="none" stroke-linecap="square"></line>
                    <line x1="95.5505382" y1="80.0114872" x2="116.328054" y2="80.0114872" stroke="#FFFFFF" stroke-width="1.33798514" fill="none" stroke-linecap="square"></line>
                    <polygon stroke="none" fill="#FFBA5F" fill-rule="nonzero" points="150.93551 211.646762 97.050412 211.646762 103.712059 120.19029 103.676945 120.054754 162.29743 120.054754"></polygon>
                    <polygon stroke="none" fill="#ED9A98" fill-rule="nonzero" points="101.354398 152.538142 99.8093772 173.757007 75.8264455 173.757007 75.8264455 152.538142"></polygon>
                    <polygon stroke="none" fill="#FFD39F" fill-rule="nonzero" points="158.269341 152.538142 155.635783 173.757007 99.8093772 173.757007 101.354398 152.538142"></polygon>
                    <polygon stroke="none" fill="#FFFFFF" fill-rule="nonzero" opacity="0.33" points="158.976639 152.538142 158.976639 173.757007 155.635783 173.757007 158.269341 152.538142"></polygon>
                    <path d="M118.194118,211.516247 C118.048645,216.034103 106.777018,221.952495 96.3431137,221.144301 C85.909209,220.336106 79.7893227,209.82958 79.7893227,209.82958 L94.8833703,199.855157 C94.8833703,199.855157 97.5971887,199.679463 101.163778,201.707478 C104.599944,203.660196 115.149223,203.213431 115.149223,203.213431 C115.149223,203.213431 115.179321,205.612914 110.965629,206.877914 C108.031093,207.761406 102.437919,208.519402 102.568342,209.82958 C102.849255,212.404758 118.194118,211.516247 118.194118,211.516247 Z" stroke="none" fill="#F9D0B5" fill-rule="nonzero"></path>
                    <path d="M96.6942547,200.055951 C99.0539223,200.557935 101.332828,201.384201 103.46626,202.510653 C106.726855,204.302736 115.144207,203.21845 115.144207,203.21845 C115.144207,203.21845 117.075483,206.928112 102.884369,209.242259 C101.09355,209.53843 103.115119,212.921802 118.194118,211.501187" stroke="#FFFFFF" stroke-width="1.00348885" fill="none" stroke-linecap="square"></path>
                    <path d="M115.841473,137.568977 C118.880348,137.568977 121.344354,135.103734 121.344354,132.062212 C121.344354,129.020691 118.880348,126.555448 115.841473,126.555448 C112.802097,126.555448 110.338591,129.020691 110.338591,132.062212 C110.338591,135.103734 112.802097,137.568977 115.841473,137.568977 Z" stroke="#FFFFFF" stroke-width="1.33798514" fill="none" stroke-linecap="square"></path>
                    <path d="M70.5844116,80.0114872 C70.5844116,80.0114872 7.61459336,121.214337 73.2079367,216.952734 L102.884369,195.929642 C102.884369,195.929642 70.3536618,147.784353 74.0908055,112.354319" stroke="none" fill="#274992" fill-rule="nonzero"></path>
                    <polygon stroke="none" fill="#EA6F57" fill-rule="nonzero" points="170.313478 382.918698 113.614236 382.918698 126.465997 291.331709 177.682423 291.331709 170.273347 382.788182"></polygon>
                    <polygon stroke="none" fill="#FFBA5F" fill-rule="nonzero" points="202.926707 382.918698 142.994706 382.918698 157.772727 291.462225 157.742629 291.331709 216.358098 291.331709"></polygon>
                    <line x1="128.913951" y1="128.914773" x2="149.691467" y2="128.914773" stroke="#FFFFFF" stroke-width="1.33798514" fill="none" stroke-linecap="square"></line>
                    <line x1="127.007757" y1="134.64743" x2="147.780257" y2="134.64743" stroke="#FFFFFF" stroke-width="1.33798514" fill="none" stroke-linecap="square"></line>
                    <line x1="89.9824449" y1="119.432294" x2="144.509629" y2="119.432294" stroke="#EF6E45" stroke-width="1.00348885" fill="none"></line>
                    <path d="M80.3561646,211.887715 L73.2079367,216.952734 C73.2079367,216.952734 55.6007227,196.120396 45.2219973,161.292743" stroke="#FFFFFF" stroke-width="1.00348885" fill="none" stroke-linecap="square"></path>
                    <path d="M172.565797,311.903015 C175.604671,311.903015 178.068678,309.43727 178.068678,306.39625 C178.068678,303.354729 175.604671,300.889485 172.565797,300.889485 C169.52642,300.889485 167.062915,303.354729 167.062915,306.39625 C167.062915,309.43727 169.52642,311.903015 172.565797,311.903015 Z" stroke="#FFFFFF" stroke-width="1.33798514" fill="none" stroke-linecap="square"></path>
                    <polygon stroke="none" fill="#FFFFFF" fill-rule="nonzero" points="173.142671 296.999109 162.29743 296.999109 162.29743 307.390179 173.142671 307.390179"></polygon>
                    <line x1="186.671633" y1="299.443771" x2="206.902372" y2="299.443771" stroke="#FFFFFF" stroke-width="1.33798514" fill="none" stroke-linecap="square"></line>
                    <line x1="184.996189" y1="305.241687" x2="205.226928" y2="305.241687" stroke="#FFFFFF" stroke-width="1.33798514" fill="none" stroke-linecap="square"></line>
                    <line x1="183.039832" y1="311.039603" x2="195.129115" y2="311.039603" stroke="#FFFFFF" stroke-width="1.33798514" fill="none" stroke-linecap="square"></line>
                    <path d="M131.457216,211.646762 C131.457216,211.646762 146.200122,220.883269 149.696484,211.646762 L131.457216,211.646762 Z" stroke="none" fill="#F9D0B5" fill-rule="nonzero"></path>
                    <polygon stroke="none" fill="#274992" fill-rule="nonzero" points="151.422091 207.741327 157.070445 208.057577 155.199365 177.275915"></polygon>
                </g>
            </g>
        </g>
    </g>
</svg>