<svg width="23" height="22" viewBox="0 0 23 22" fill="none" xmlns="http://www.w3.org/2000/svg">
<path d="M7 0C3.14018 0 0 3.2493 0 7.24321C0 12.1998 6.26431 19.4763 6.53102 19.7837C6.78154 20.0724 7.21892 20.0719 7.46898 19.7837C7.73569 19.4763 14 12.1998 14 7.24321C13.9999 3.2493 10.8598 0 7 0ZM7 10.8875C5.05803 10.8875 3.47816 9.25267 3.47816 7.24321C3.47816 5.23376 5.05807 3.59899 7 3.59899C8.94193 3.59899 10.5218 5.2338 10.5218 7.24325C10.5218 9.25271 8.94193 10.8875 7 10.8875Z" fill="#fff"/>
<path d="M21.6889 14.4873H22.1889V14.9873V16.2972V16.7972H21.6889H18.5683V20.1497V20.6497H18.0683H16.6203H16.1203V20.1497V16.7972H13H12.5V16.2972V14.9873V14.4873H13H16.1206V11V10.5H16.6206H18.0686H18.5686V11V14.4873H21.6889Z" fill="#EF9C21" stroke="#fff"/>
</svg>
