<svg width="28" height="20" viewBox="0 0 28 20" fill="none" xmlns="http://www.w3.org/2000/svg">
<path d="M26.032 0.0470131H1.968C1.45562 0.0387894 0.960738 0.22584 0.591835 0.567166C0.222933 0.908492 0.0101045 1.37625 0 1.8679L0 17.2259C0.0100464 17.7176 0.222849 18.1854 0.591758 18.5268C0.960667 18.8682 1.45558 19.0552 1.968 19.047H26.032C26.5444 19.0552 27.0393 18.8682 27.4082 18.5268C27.7772 18.1854 27.99 17.7176 28 17.2259V1.8679C27.9899 1.37625 27.7771 0.908492 27.4082 0.567166C27.0393 0.22584 26.5444 0.0387894 26.032 0.0470131ZM27.0667 17.2259C27.0614 17.4844 26.9495 17.7303 26.7555 17.9097C26.5616 18.0892 26.3014 18.1875 26.032 18.1832H1.968C1.69862 18.1875 1.43845 18.0892 1.2445 17.9097C1.05055 17.7303 0.938648 17.4844 0.933333 17.2259V1.8679C0.938648 1.60942 1.05055 1.36351 1.2445 1.18407C1.43845 1.00463 1.69862 0.906309 1.968 0.910649H26.032C26.3014 0.906309 26.5616 1.00463 26.7555 1.18407C26.9495 1.36351 27.0614 1.60942 27.0667 1.8679V17.2259Z" fill="#EF9C21"/>
<path d="M18.1335 12.83H13.9335C13.8097 12.83 13.691 12.8772 13.6035 12.9612C13.516 13.0452 13.4668 13.1591 13.4668 13.2778C13.4668 13.3966 13.516 13.5105 13.6035 13.5945C13.691 13.6785 13.8097 13.7256 13.9335 13.7256H18.1335C18.2572 13.7256 18.3759 13.6785 18.4634 13.5945C18.551 13.5105 18.6001 13.3966 18.6001 13.2778C18.6001 13.1591 18.551 13.0452 18.4634 12.9612C18.3759 12.8772 18.2572 12.83 18.1335 12.83Z" fill="#B7AEC4"/>
<path d="M24.1999 12.83H19.9999C19.8761 12.83 19.7574 12.8772 19.6699 12.9612C19.5824 13.0452 19.5332 13.1591 19.5332 13.2778C19.5332 13.3966 19.5824 13.5105 19.6699 13.5945C19.7574 13.6785 19.8761 13.7256 19.9999 13.7256H24.1999C24.3236 13.7256 24.4423 13.6785 24.5299 13.5945C24.6174 13.5105 24.6665 13.3966 24.6665 13.2778C24.6665 13.1591 24.6174 13.0452 24.5299 12.9612C24.4423 12.8772 24.3236 12.83 24.1999 12.83Z" fill="#B7AEC4"/>
<path d="M14.4001 15.0691H13.9335C13.8097 15.0691 13.691 15.1163 13.6035 15.2003C13.516 15.2842 13.4668 15.3981 13.4668 15.5169C13.4668 15.6357 13.516 15.7496 13.6035 15.8336C13.691 15.9175 13.8097 15.9647 13.9335 15.9647H14.4001C14.5239 15.9647 14.6426 15.9175 14.7301 15.8336C14.8176 15.7496 14.8668 15.6357 14.8668 15.5169C14.8668 15.3981 14.8176 15.2842 14.7301 15.2003C14.6426 15.1163 14.5239 15.0691 14.4001 15.0691Z" fill="#B7AEC4"/>
<path d="M17.1998 15.0691H16.2665C16.1427 15.0691 16.024 15.1163 15.9365 15.2003C15.849 15.2842 15.7998 15.3981 15.7998 15.5169C15.7998 15.6357 15.849 15.7496 15.9365 15.8336C16.024 15.9175 16.1427 15.9647 16.2665 15.9647H17.1998C17.3236 15.9647 17.4423 15.9175 17.5298 15.8336C17.6173 15.7496 17.6665 15.6357 17.6665 15.5169C17.6665 15.3981 17.6173 15.2842 17.5298 15.2003C17.4423 15.1163 17.3236 15.0691 17.1998 15.0691Z" fill="#B7AEC4"/>
<path d="M19.5334 15.0691H19.0668C18.943 15.0691 18.8243 15.1163 18.7368 15.2003C18.6493 15.2842 18.6001 15.3981 18.6001 15.5169C18.6001 15.6357 18.6493 15.7496 18.7368 15.8336C18.8243 15.9175 18.943 15.9647 19.0668 15.9647H19.5334C19.6572 15.9647 19.7759 15.9175 19.8634 15.8336C19.9509 15.7496 20.0001 15.6357 20.0001 15.5169C20.0001 15.3981 19.9509 15.2842 19.8634 15.2003C19.7759 15.1163 19.6572 15.0691 19.5334 15.0691Z" fill="#B7AEC4"/>
<path d="M22.3331 15.0691H21.3998C21.276 15.0691 21.1573 15.1163 21.0698 15.2003C20.9823 15.2842 20.9331 15.3981 20.9331 15.5169C20.9331 15.6357 20.9823 15.7496 21.0698 15.8336C21.1573 15.9175 21.276 15.9647 21.3998 15.9647H22.3331C22.4569 15.9647 22.5756 15.9175 22.6631 15.8336C22.7506 15.7496 22.7998 15.6357 22.7998 15.5169C22.7998 15.3981 22.7506 15.2842 22.6631 15.2003C22.5756 15.1163 22.4569 15.0691 22.3331 15.0691Z" fill="#B7AEC4"/>
<path d="M23.8687 15.2C23.8038 15.2628 23.7598 15.3426 23.7421 15.4293C23.7244 15.5161 23.7339 15.6059 23.7693 15.6876C23.8047 15.7692 23.8645 15.8389 23.9412 15.8879C24.0179 15.937 24.1079 15.9631 24.2001 15.9631C24.2922 15.9631 24.3823 15.937 24.4589 15.8879C24.5356 15.8389 24.5954 15.7692 24.6308 15.6876C24.6663 15.6059 24.6757 15.5161 24.658 15.4293C24.6403 15.3426 24.5963 15.2628 24.5314 15.2C24.4411 15.1201 24.3228 15.0758 24.2001 15.0758C24.0773 15.0758 23.959 15.1201 23.8687 15.2Z" fill="#B7AEC4"/>
<path d="M4.4103 15.8793H8.72519C8.91642 15.8791 9.09976 15.8061 9.23499 15.6764C9.37021 15.5466 9.44628 15.3707 9.44652 15.1872V12.2745C9.44628 12.091 9.37021 11.915 9.23499 11.7853C9.09976 11.6555 8.91642 11.5825 8.72519 11.5823H4.4103C4.21906 11.5825 4.03572 11.6555 3.9005 11.7853C3.76527 11.915 3.6892 12.091 3.68896 12.2745V15.1874C3.68926 15.3708 3.76536 15.5467 3.90058 15.6764C4.0358 15.8062 4.2191 15.8791 4.4103 15.8793ZM5.6083 14.0378H4.32874V13.4238H5.6083V14.0378ZM4.32874 15.1874V14.6517H5.6083V15.1874C5.60942 15.2136 5.61217 15.2397 5.61652 15.2656H4.4103C4.39959 15.2656 4.38898 15.2636 4.37909 15.2597C4.36919 15.2557 4.3602 15.25 4.35263 15.2427C4.34506 15.2354 4.33905 15.2268 4.33495 15.2173C4.33085 15.2078 4.32874 15.1976 4.32874 15.1874ZM8.80674 14.0378H7.52741V13.5015C7.52741 13.4807 7.536 13.4608 7.5513 13.4461C7.56659 13.4315 7.58733 13.4232 7.60896 13.4232H8.72519C8.75251 13.4221 8.77974 13.4195 8.80674 13.4153V14.0371V14.0378ZM8.72519 15.2656H7.51896C7.52332 15.2397 7.52606 15.2136 7.52719 15.1874V14.6517H8.80674V15.1874C8.80674 15.2081 8.79815 15.228 8.78286 15.2427C8.76756 15.2574 8.74682 15.2656 8.72519 15.2656ZM8.72519 12.1962C8.74682 12.1962 8.76756 12.2044 8.78286 12.2191C8.79815 12.2338 8.80674 12.2537 8.80674 12.2745V12.7319C8.80674 12.7421 8.80463 12.7523 8.80053 12.7618C8.79644 12.7713 8.79043 12.7799 8.78286 12.7872C8.77528 12.7945 8.76629 12.8002 8.7564 12.8042C8.7465 12.8081 8.7359 12.8101 8.72519 12.8101H7.60896C7.41788 12.8104 7.23468 12.8832 7.09948 13.0128C6.96428 13.1424 6.8881 13.3181 6.88763 13.5015V15.1861C6.88763 15.2068 6.87904 15.2268 6.86374 15.2414C6.84845 15.2561 6.82771 15.2644 6.80608 15.2644H6.32941C6.30778 15.2644 6.28704 15.2561 6.27174 15.2414C6.25645 15.2268 6.24785 15.2068 6.24785 15.1861V12.2745C6.24785 12.2537 6.25645 12.2338 6.27174 12.2191C6.28704 12.2044 6.30778 12.1962 6.32941 12.1962H8.72519ZM4.4103 12.1962H5.61652C5.61217 12.2221 5.60942 12.2482 5.6083 12.2745V12.8101H4.32874V12.2745C4.32874 12.2537 4.33734 12.2338 4.35263 12.2191C4.36792 12.2044 4.38867 12.1962 4.4103 12.1962Z" fill="#B7AEC4"/>
<path d="M27.5554 4.62012H0.666504V8.67175H27.5554V4.62012Z" fill="#EF9C21"/>
</svg>
