<svg width="28" height="20" viewBox="0 0 28 20" fill="none" xmlns="http://www.w3.org/2000/svg">
<g clip-path="url(#clip0)">
<path d="M26.032 0.0479736H1.968C0.882889 0.0479736 0 0.864881 0 1.86891V17.227C0 18.2311 0.882889 19.048 1.968 19.048H26.032C27.1169 19.048 28 18.2311 28 17.227V1.86891C28 0.864881 27.1171 0.0479736 26.032 0.0479736ZM27.0667 17.227C27.0544 17.4922 26.9388 17.7418 26.7449 17.9212C26.551 18.1005 26.2947 18.1952 26.032 18.1844H1.968C1.70526 18.1952 1.44897 18.1005 1.2551 17.9212C1.06124 17.7418 0.945563 17.4922 0.933333 17.227V1.86891C0.945563 1.6037 1.06124 1.35416 1.2551 1.17478C1.44897 0.995404 1.70526 0.90077 1.968 0.911549H26.032C26.2947 0.90077 26.551 0.995404 26.7449 1.17478C26.9388 1.35416 27.0544 1.6037 27.0667 1.86891V17.227Z" fill="#EF9C21"/>
<path d="M14.0002 12.7146C15.7433 12.7146 17.1615 11.294 17.1615 9.54795C17.1615 7.80196 15.7427 6.38129 14.0002 6.38129C12.2576 6.38129 10.8389 7.80179 10.8389 9.54795C10.8389 11.2941 12.257 12.7146 14.0002 12.7146Z" fill="#B7AEC4"/>
<path d="M10.7457 15.7983H22.3092C22.4086 15.7995 22.5045 15.7608 22.5756 15.6907C22.6468 15.6206 22.6875 15.5249 22.6888 15.4245C22.6888 14.4822 23.6526 13.5594 24.6343 13.5594C24.7338 13.5606 24.8296 13.5219 24.9007 13.4518C24.9719 13.3817 25.0126 13.2859 25.0139 13.1856V6.05238C25.0126 5.95201 24.9719 5.85626 24.9007 5.78618C24.8296 5.71609 24.7338 5.67739 24.6343 5.67859C23.6526 5.67859 22.6888 4.75466 22.6888 3.81345C22.6875 3.71308 22.6468 3.61734 22.5756 3.54725C22.5045 3.47716 22.4086 3.43847 22.3092 3.43966H5.40279C5.30337 3.43847 5.20756 3.47716 5.13639 3.54725C5.06522 3.61734 5.02452 3.71308 5.02323 3.81345C5.02323 4.81232 4.21056 5.68846 3.28434 5.68846C3.18493 5.68726 3.08911 5.72596 3.01794 5.79605C2.94677 5.86613 2.90607 5.96188 2.90479 6.06225V13.1746C2.90607 13.2749 2.94677 13.3707 3.01794 13.4408C3.08911 13.5109 3.18493 13.5496 3.28434 13.5484C4.21079 13.5484 5.02323 14.4245 5.02323 15.4234C5.02452 15.5237 5.06522 15.6195 5.13639 15.6896C5.20756 15.7597 5.30337 15.7984 5.40279 15.7972H9.22723C9.27663 15.7984 9.32577 15.7896 9.37176 15.7714C9.41775 15.7531 9.45966 15.7258 9.49502 15.6909C9.53038 15.6561 9.55849 15.6145 9.57767 15.5685C9.59686 15.5225 9.60675 15.4731 9.60675 15.4233C9.60675 15.3734 9.59686 15.324 9.57767 15.278C9.55849 15.232 9.53038 15.1904 9.49502 15.1556C9.45966 15.1207 9.41775 15.0934 9.37176 15.0751C9.32577 15.0569 9.27663 15.0481 9.22723 15.0494H5.75412C5.67069 14.5127 5.43087 14.0133 5.06523 13.6148C4.69762 13.2033 4.20427 12.9277 3.66367 12.832V6.40463C4.20427 6.30884 4.69761 6.0333 5.06523 5.62182C5.43088 5.22332 5.67071 4.7239 5.75412 4.18724H21.963C22.087 4.74229 22.3707 5.24799 22.7784 5.64081C23.1861 6.03364 23.6996 6.29609 24.2546 6.39521V12.8427C23.6996 12.9418 23.186 13.2043 22.7783 13.5971C22.3706 13.9899 22.087 14.4956 21.963 15.0507H10.7457C10.6474 15.0507 10.5532 15.0901 10.4837 15.1602C10.4143 15.2304 10.3752 15.3255 10.3752 15.4247C10.3752 15.5239 10.4143 15.619 10.4837 15.6892C10.5532 15.7593 10.6474 15.7987 10.7457 15.7987V15.7983Z" fill="#EF9C21" stroke="#EF9C21" stroke-width="0.2"/>
</g>
<defs>
<clipPath id="clip0">
<rect width="28" height="19" fill="white" transform="translate(0 0.0479736)"/>
</clipPath>
</defs>
</svg>
