<svg width="35" height="36" viewBox="0 0 35 36" fill="none" xmlns="http://www.w3.org/2000/svg">
<g clip-path="url(#clip0)">
<path d="M11.4953 19.092C11.4953 19.5874 11.6175 20.0548 11.833 20.4645C12.3271 21.4033 13.3118 22.0429 14.4463 22.0429H18.8384V28.288H21.0345L21.147 26.9155L21.6068 21.3189C21.7049 20.12 20.7578 19.092 19.5548 19.092H11.4953Z" fill="#616161"/>
<path d="M11.4949 19.092C11.4949 19.5874 11.6171 20.0548 11.8326 20.4645H16.4361C17.1941 20.4645 17.8086 19.85 17.8086 19.092H11.4949Z" fill="#424242"/>
<path d="M11.4954 11.543V19.092H16.4365V8.11157H14.9267C14.4099 8.11157 13.9199 8.22621 13.4807 8.43067C12.3079 8.97632 11.4954 10.165 11.4954 11.543Z" fill="#EF9C21"/>
<path d="M34.4854 30.3469C34.4854 27.7317 32.3653 25.6116 29.75 25.6116C27.1347 25.6116 25.0147 27.7316 25.0147 30.3469H34.4854Z" fill="#B0BEC5"/>
<path d="M33.0965 30.3469C33.1513 30.59 33.1812 30.8424 33.1812 31.1018C33.1812 32.9939 31.6418 34.5332 29.7498 34.5332C27.8577 34.5332 26.3184 32.9939 26.3184 31.1018C26.3184 30.8424 26.3483 30.59 26.4031 30.3469H33.0965Z" fill="#616161"/>
<path d="M30.8951 30.3469C31.0385 30.5637 31.1226 30.823 31.1226 31.1018C31.1226 31.8586 30.5068 32.4743 29.75 32.4743C28.9932 32.4743 28.3775 31.8586 28.3775 31.1018C28.3775 30.823 28.4616 30.5637 28.605 30.3469H30.8951Z" fill="#D8D7DA"/>
<path d="M12.4397 30.3469C12.4945 30.59 12.5244 30.8424 12.5244 31.1018C12.5244 32.9939 10.9851 34.5332 9.09305 34.5332C7.201 34.5332 5.66168 32.9939 5.66168 31.1018C5.66168 30.8424 5.69155 30.59 5.74638 30.3469H12.4397Z" fill="#616161"/>
<path d="M10.2379 30.3469C10.3813 30.5637 10.4653 30.823 10.4653 31.1018C10.4653 31.8586 9.84962 32.4743 9.09281 32.4743C8.33601 32.4743 7.72029 31.8586 7.72029 31.1018C7.72029 30.823 7.80438 30.5637 7.94773 30.3469H10.2379Z" fill="#D8D7DA"/>
<path d="M22.4854 13.387L26.0767 25.4709L26.5021 26.9025C27.2735 26.175 28.2885 25.7043 29.4126 25.6247L29.0084 24.2843L26.0726 14.5427C25.7733 13.446 24.6417 12.7989 23.545 13.0981L22.4854 13.387Z" fill="#EF9C21"/>
<path d="M28.9268 13.8763C27.7139 13.8763 26.7307 14.8596 26.7307 16.0724C26.7307 17.2852 27.7139 18.2685 28.9268 18.2685V13.8763Z" fill="#FDD844"/>
<path d="M18.8379 26.9155V28.288H21.034L21.1465 26.9155H18.8379Z" fill="#424242"/>
<path d="M14.8579 28.288V30.3469H22.6128L25.4423 28.1549L25.6345 28.006C25.8678 27.5963 26.1608 27.2243 26.502 26.9025L25.9673 25.103L24.7965 25.9814L21.7206 28.288H14.8579Z" fill="#B0BEC5"/>
<path d="M3.67116 26.1607V30.3469H14.8574V22.043H7.78879C6.65915 22.043 5.63526 22.498 4.89199 23.2344C4.45552 23.6668 4.11516 24.1959 3.90584 24.7881C3.75347 25.2177 3.67116 25.6795 3.67116 26.1607Z" fill="#EF9C21"/>
<path d="M4.88858 23.4931C4.93732 25.0139 6.11631 26.1606 7.63095 26.1606H12.1123C13.1657 26.1606 14.1286 25.7625 14.8574 25.1085V22.043H7.78879C6.65915 22.043 5.63527 22.498 4.89199 23.2343C4.88653 23.3194 4.88584 23.4059 4.88858 23.4931Z" fill="#D46E13"/>
<path d="M7.63109 24.7881H12.1123C13.6284 24.7881 14.8574 23.559 14.8574 22.043H7.78879C7.69917 22.043 7.61017 22.0458 7.52192 22.0514C5.76966 22.1635 5.87528 24.7881 7.63109 24.7881Z" fill="#B0BEC5"/>
<path d="M0.514454 15.8666H9.43604V22.0431H0.514454V15.8666Z" fill="#B7ADC3"/>
<path d="M14.5502 9.12391C14.1617 8.94966 13.7995 8.71614 13.4807 8.43067C13.9199 8.22614 14.4099 8.11157 14.9267 8.11157H16.4365V8.53909V9.47862V18.4736C14.8718 18.1552 13.6914 16.7683 13.6914 15.1116V10.9939C13.6914 10.2472 14.0249 9.57727 14.5502 9.12391Z" fill="#D56E13"/>
<path d="M14.2627 7.27915C14.6745 7.70325 15.2221 7.99494 15.8356 8.08346C15.9646 8.10199 16.0964 8.11163 16.231 8.11163C17.631 8.11163 18.786 7.06368 18.9548 5.70968C18.9686 5.59716 18.9761 5.48253 18.9761 5.36652C18.9761 5.0021 18.9047 4.65483 18.7757 4.3371H15.9565V5.25325C15.9564 6.26551 15.2255 7.10688 14.2627 7.27915Z" fill="#FDD8A8"/>
<path d="M14.2627 7.27916C14.6745 7.70326 15.2221 7.99495 15.8356 8.08347C16.618 7.5461 17.1677 6.69311 17.2988 5.70963H18.9548C18.9686 5.59711 18.9761 5.48247 18.9761 5.36646C18.9761 5.00204 18.9047 4.65477 18.7757 4.33704H15.9565V5.25319C15.9564 6.26552 15.2255 7.10689 14.2627 7.27916Z" fill="#FFC477"/>
<path d="M11.8385 7.31194C11.5484 6.65972 11.3996 5.93135 11.4309 5.16586C11.5319 2.69747 13.525 0.688256 15.9925 0.568354C18.3921 0.451801 19.928 2.10726 20.417 4.33708H15.9562V5.25302C15.9562 6.39011 15.0345 7.31187 13.8974 7.31187H11.8385V7.31194Z" fill="#EF9C21"/>
<path d="M21.0347 17.1705H17.1229C15.9858 17.1705 15.064 16.2487 15.064 15.1116V10.994C15.064 10.3875 15.5556 9.89594 16.1621 9.89594C16.7686 9.89594 17.2601 10.3875 17.2601 10.994V14.9744H21.0347V17.1705Z" fill="#EF9C21"/>
<path d="M21.0345 14.9744H23.0934C23.6998 14.9744 24.1914 15.4659 24.1914 16.0724C24.1914 16.6789 23.6998 17.1705 23.0934 17.1705H21.0345V14.9744Z" fill="#FDD8A8"/>
<path d="M0.514454 15.8666H9.43604V17.2391H0.514454V15.8666Z" fill="#9397A4"/>
<path d="M0.514454 14.1509C0.514454 13.5824 0.975334 13.1215 1.54388 13.1215H8.40661C8.97509 13.1215 9.43604 13.5823 9.43604 14.1509V15.8666H0.514454V14.1509Z" fill="#B7ADC3"/>
<path d="M26.0767 25.4709L26.5021 26.9025C27.2735 26.175 28.2885 25.7043 29.4126 25.6246L29.0084 24.2843C27.9165 24.4168 26.9132 24.8388 26.0767 25.4709Z" fill="#D46E13"/>
<path d="M24.7965 25.9815L25.4423 28.1549L25.6345 28.006C25.8678 27.5963 26.1608 27.2243 26.502 26.9025L25.9673 25.103L24.7965 25.9815Z" fill="#90A4AE"/>
<path d="M0.0342064 24.6852H2.02441V25.7147H0.0342064V24.6852Z" fill="black"/>
<path d="M0.0342064 27.2587H2.02441V28.2882H0.0342064V27.2587Z" fill="black"/>
<path d="M0.0342064 29.8323H2.02441V30.8617H0.0342064V29.8323Z" fill="black"/>
<path d="M31.129 28.6839L31.7871 27.8923C31.2157 27.4173 30.4921 27.1558 29.7497 27.1558V28.1852C30.2522 28.1852 30.7421 28.3623 31.129 28.6839Z" fill="white"/>
<path d="M8.81789 28.8028H9.84731V27.7734H8.81789V28.8028ZM10.8767 28.8028H13.313V26.2292H12.2836V27.7734H10.8767V28.8028Z" fill="white"/>
<path d="M5.2157 26.1607H6.24512V27.7391H5.2157V26.1607Z" fill="white"/>
<path d="M12.764 15.7294H13.7935V17.7196H12.764V15.7294Z" fill="white"/>
<path d="M2.05822 20.4988H4.28857V19.4694H3.08757V18.2685H2.05822V20.4988Z" fill="white"/>
<path d="M14.0009 5.28209L14.0014 5.27101C14.0169 4.89408 14.1316 4.52344 14.3335 4.19921L13.4595 3.65527C13.1649 4.12873 12.9968 4.67082 12.9731 5.22323L12.9727 5.23601L13.4991 5.25358L14.0009 5.28209Z" fill="white"/>
<path d="M15.2692 2.10669H17.6025V3.13611H15.2692V2.10669Z" fill="white"/>
</g>
<defs>
<clipPath id="clip0">
<rect width="35" height="35" fill="white" transform="matrix(-1 0 0 1 35 0.0479736)"/>
</clipPath>
</defs>
</svg>
