<svg width="24" height="24" viewBox="0 0 24 24" fill="none" xmlns="http://www.w3.org/2000/svg">
<g clip-path="url(#clip0)">
<path d="M16.1176 13.0588C16.1176 13.3985 16.0338 13.719 15.886 13.9999C15.5472 14.6437 14.8719 15.0823 14.0941 15.0823H11.0823V19.3646H9.57643L9.49928 18.4235L9.184 14.5858C9.11669 13.7637 9.76614 13.0588 10.591 13.0588H16.1176Z" fill="#616161"/>
<path d="M16.1179 13.0588C16.1179 13.3985 16.0342 13.719 15.8864 13.9999H12.7297C12.2099 13.9999 11.7886 13.5786 11.7886 13.0588H16.1179Z" fill="#424242"/>
<path d="M16.1172 7.88231V13.0588H12.729V5.52933H13.7643C14.1187 5.52933 14.4547 5.60794 14.7558 5.74814C15.5601 6.1223 16.1172 6.93736 16.1172 7.88231Z" fill="#EF9C21"/>
<path d="M0.353027 20.7764C0.353027 18.9831 1.80676 17.5293 3.60011 17.5293C5.39345 17.5293 6.84718 18.9831 6.84718 20.7764H0.353027Z" fill="#B0BEC5"/>
<path d="M1.30515 20.7764C1.26755 20.9431 1.24707 21.1162 1.24707 21.294C1.24707 22.5915 2.3026 23.647 3.60001 23.647C4.89741 23.647 5.95294 22.5915 5.95294 21.294C5.95294 21.1162 5.93246 20.9431 5.89487 20.7764H1.30515Z" fill="#616161"/>
<path d="M2.81464 20.7764C2.71635 20.925 2.65869 21.1029 2.65869 21.294C2.65869 21.813 3.08089 22.2352 3.59985 22.2352C4.1188 22.2352 4.541 21.813 4.541 21.294C4.541 21.1028 4.48335 20.925 4.38505 20.7764H2.81464Z" fill="#D8D7DA"/>
<path d="M15.4697 20.7764C15.4321 20.9431 15.4116 21.1162 15.4116 21.294C15.4116 22.5915 16.4672 23.647 17.7646 23.647C19.062 23.647 20.1175 22.5915 20.1175 21.294C20.1175 21.1162 20.097 20.9431 20.0594 20.7764H15.4697Z" fill="#616161"/>
<path d="M16.9797 20.7764C16.8814 20.925 16.8237 21.1029 16.8237 21.294C16.8237 21.813 17.2459 22.2352 17.7649 22.2352C18.2838 22.2352 18.706 21.813 18.706 21.294C18.706 21.1028 18.6484 20.925 18.5501 20.7764H16.9797Z" fill="#D8D7DA"/>
<path d="M8.58162 9.14676L6.11904 17.4329L5.82729 18.4145C5.29836 17.9157 4.60236 17.5929 3.83154 17.5383L4.10872 16.6192L6.12186 9.93923C6.32703 9.18721 7.10305 8.74345 7.85502 8.94862L8.58162 9.14676Z" fill="#EF9C21"/>
<path d="M4.16455 9.4823C4.99621 9.4823 5.67041 10.1565 5.67041 10.9882C5.67041 11.8198 4.99621 12.4941 4.16455 12.4941V9.4823Z" fill="#FDD844"/>
<path d="M11.0826 18.4235V19.3646H9.57667L9.49951 18.4235H11.0826Z" fill="#424242"/>
<path d="M13.8117 19.3646V20.7764H8.49401L6.55376 19.2734L6.42199 19.1712C6.26201 18.8903 6.06105 18.6352 5.82715 18.4145L6.19376 17.1806L6.99659 17.783L9.10577 19.3646H13.8117Z" fill="#B0BEC5"/>
<path d="M21.4826 17.9058V20.7764H13.812V15.0823H18.6591C19.4337 15.0823 20.1358 15.3943 20.6454 15.8992C20.9447 16.1957 21.1781 16.5585 21.3217 16.9647C21.4262 17.2592 21.4826 17.5759 21.4826 17.9058Z" fill="#EF9C21"/>
<path d="M20.6478 16.0766C20.6144 17.1195 19.8059 17.9058 18.7673 17.9058H15.6944C14.972 17.9058 14.3118 17.6328 13.812 17.1844V15.0823H18.6591C19.4337 15.0823 20.1358 15.3943 20.6454 15.8992C20.6492 15.9576 20.6497 16.0169 20.6478 16.0766Z" fill="#D46E13"/>
<path d="M18.7672 16.9646H15.6944C14.6548 16.9646 13.812 16.1219 13.812 15.0823H18.6591C18.7205 15.0823 18.7816 15.0842 18.8421 15.0881C20.0436 15.1649 19.9712 16.9646 18.7672 16.9646Z" fill="#B0BEC5"/>
<path d="M23.6474 10.8471H17.5298V15.0824H23.6474V10.8471Z" fill="#B7ADC3"/>
<path d="M14.0225 6.2235C14.2889 6.10402 14.5373 5.94389 14.7558 5.74814C14.4547 5.60789 14.1187 5.52933 13.7643 5.52933H12.729V5.82248V6.46673V12.6347C13.8019 12.4164 14.6114 11.4653 14.6114 10.3293V7.50581C14.6114 6.99375 14.3827 6.53437 14.0225 6.2235Z" fill="#D56E13"/>
<path d="M14.2198 4.95852C13.9374 5.24933 13.5619 5.44935 13.1412 5.51005C13.0528 5.52276 12.9624 5.52936 12.8701 5.52936C11.9102 5.52936 11.1182 4.81077 11.0024 3.88232C10.9929 3.80516 10.9878 3.72655 10.9878 3.64701C10.9878 3.39712 11.0367 3.15899 11.1252 2.94112H13.0584V3.56933C13.0584 4.26346 13.5596 4.8404 14.2198 4.95852Z" fill="#FDD8A8"/>
<path d="M14.2198 4.95854C13.9374 5.24935 13.5619 5.44937 13.1412 5.51007C12.6047 5.14159 12.2278 4.55668 12.1379 3.88229H11.0024C10.9929 3.80513 10.9878 3.72652 10.9878 3.64698C10.9878 3.39709 11.0367 3.15896 11.1252 2.94109H13.0584V3.5693C13.0584 4.26348 13.5596 4.84041 14.2198 4.95854Z" fill="#FFC477"/>
<path d="M15.8819 4.98099C16.0808 4.53375 16.1829 4.0343 16.1614 3.50939C16.0921 1.81678 14.7254 0.439035 13.0334 0.356817C11.388 0.276895 10.3348 1.41207 9.99951 2.94108H13.0583V3.56916C13.0583 4.34888 13.6904 4.98094 14.4701 4.98094H15.8819V4.98099Z" fill="#EF9C21"/>
<path d="M9.57617 11.7411H12.2585C13.0383 11.7411 13.6703 11.1091 13.6703 10.3293V7.50582C13.6703 7.08995 13.3333 6.75287 12.9174 6.75287C12.5015 6.75287 12.1644 7.08995 12.1644 7.50582V10.2352H9.57617V11.7411Z" fill="#EF9C21"/>
<path d="M9.57635 10.2352H8.16457C7.7487 10.2352 7.41162 10.5723 7.41162 10.9882C7.41162 11.4041 7.7487 11.7412 8.16457 11.7412H9.57635V10.2352Z" fill="#FDD8A8"/>
<path d="M23.6474 10.8471H17.5298V11.7882H23.6474V10.8471Z" fill="#9397A4"/>
<path d="M23.6474 9.67055C23.6474 9.28074 23.3314 8.96466 22.9416 8.96466H18.2357C17.8459 8.96466 17.5298 9.28069 17.5298 9.67055V10.847H23.6474V9.67055Z" fill="#B7ADC3"/>
<path d="M6.11905 17.4329L5.8273 18.4145C5.29836 17.9157 4.60236 17.5929 3.83154 17.5383L4.10872 16.6192C4.8574 16.71 5.54539 16.9995 6.11905 17.4329Z" fill="#D46E13"/>
<path d="M6.99659 17.783L6.55376 19.2734L6.42199 19.1712C6.26201 18.8903 6.06105 18.6352 5.82715 18.4145L6.19376 17.1806L6.99659 17.783Z" fill="#90A4AE"/>
<path d="M23.9765 16.8941H22.6118V17.6H23.9765V16.8941Z" fill="black"/>
<path d="M23.9765 18.6588H22.6118V19.3647H23.9765V18.6588Z" fill="black"/>
<path d="M23.9765 20.4235H22.6118V21.1294H23.9765V20.4235Z" fill="black"/>
<path d="M2.65439 19.636L2.20312 19.0932C2.59495 18.7675 3.09113 18.5882 3.60019 18.5882V19.2941C3.25561 19.2941 2.9197 19.4155 2.65439 19.636Z" fill="white"/>
<path d="M17.9534 19.7176H17.2476V19.0117H17.9534V19.7176ZM16.5417 19.7176H14.8711V17.9529H15.577V19.0117H16.5417V19.7176Z" fill="white"/>
<path d="M20.4237 17.9059H19.7178V18.9882H20.4237V17.9059Z" fill="white"/>
<path d="M15.2474 10.7529H14.5415V12.1177H15.2474V10.7529Z" fill="white"/>
<path d="M22.5885 14.0235H21.0591V13.3176H21.8826V12.4941H22.5885V14.0235Z" fill="white"/>
<path d="M14.3995 3.58913L14.3991 3.58154C14.3885 3.32307 14.3098 3.06891 14.1714 2.84659L14.7707 2.4736C14.9727 2.79826 15.088 3.16998 15.1042 3.54877L15.1045 3.55754L14.7435 3.56959L14.3995 3.58913Z" fill="white"/>
<path d="M13.5297 1.4117H11.9297V2.11759H13.5297V1.4117Z" fill="white"/>
</g>
<defs>
<clipPath id="clip0">
<rect width="24" height="24" fill="white"/>
</clipPath>
</defs>
</svg>
