<svg width="25" height="25" viewBox="0 0 25 25" fill="none" xmlns="http://www.w3.org/2000/svg">
<path d="M5.46875 22.6562C6.76317 22.6562 7.8125 21.6069 7.8125 20.3125C7.8125 19.0181 6.76317 17.9688 5.46875 17.9688C4.17433 17.9688 3.125 19.0181 3.125 20.3125C3.125 21.6069 4.17433 22.6562 5.46875 22.6562Z" fill="#B0BEC5"/>
<path d="M19.5312 22.6562C20.8257 22.6562 21.875 21.6069 21.875 20.3125C21.875 19.0181 20.8257 17.9688 19.5312 17.9688C18.2368 17.9688 17.1875 19.0181 17.1875 20.3125C17.1875 21.6069 18.2368 22.6562 19.5312 22.6562Z" fill="#B0BEC5"/>
<path d="M5.46875 2.34375C2.44844 2.34375 0 4.79219 0 7.8125C0 10.625 4.3875 15.5891 4.8875 16.1469C5.17578 16.4679 5.66973 16.4944 5.99077 16.2061C6.01157 16.1875 6.03135 16.1677 6.05 16.1469C6.55 15.5891 10.9375 10.625 10.9375 7.8125C10.9375 4.79219 8.48906 2.34375 5.46875 2.34375Z" fill="#EF9C21"/>
<path d="M5.46875 10.1562C6.76317 10.1562 7.8125 9.10692 7.8125 7.8125C7.8125 6.51808 6.76317 5.46875 5.46875 5.46875C4.17433 5.46875 3.125 6.51808 3.125 7.8125C3.125 9.10692 4.17433 10.1562 5.46875 10.1562Z" fill="#FAFAFA"/>
<path d="M19.5312 2.34375C16.5109 2.34375 14.0625 4.79219 14.0625 7.8125C14.0625 10.625 18.45 15.5891 18.95 16.1469C19.2383 16.4679 19.7322 16.4944 20.0533 16.2061C20.0741 16.1875 20.0938 16.1677 20.1125 16.1469C20.6125 15.5891 25 10.625 25 7.8125C25 4.79219 22.5516 2.34375 19.5312 2.34375Z" fill="#FFD54F"/>
<path d="M19.5312 10.1562C20.8257 10.1562 21.875 9.10692 21.875 7.8125C21.875 6.51808 20.8257 5.46875 19.5312 5.46875C18.2368 5.46875 17.1875 6.51808 17.1875 7.8125C17.1875 9.10692 18.2368 10.1562 19.5312 10.1562Z" fill="#FAFAFA"/>
<path d="M5.46875 22.6562C4.17432 22.6562 3.125 21.6069 3.125 20.3125C3.125 19.0181 4.17432 17.9688 5.46875 17.9688C6.76318 17.9688 7.8125 19.0181 7.8125 20.3125C7.8125 21.6069 6.76318 22.6562 5.46875 22.6562ZM5.46875 19.5312C5.03726 19.5312 4.6875 19.881 4.6875 20.3125C4.6875 20.744 5.03726 21.0938 5.46875 21.0938C5.90024 21.0938 6.25 20.744 6.25 20.3125C6.25 19.881 5.90024 19.5312 5.46875 19.5312Z" fill="#B7ADC3"/>
<path d="M19.5312 22.6562C18.2368 22.6562 17.1875 21.6069 17.1875 20.3125C17.1875 19.0181 18.2368 17.9688 19.5312 17.9688C20.8257 17.9688 21.875 19.0181 21.875 20.3125C21.875 21.6069 20.8257 22.6562 19.5312 22.6562ZM19.5312 19.5312C19.0998 19.5312 18.75 19.881 18.75 20.3125C18.75 20.744 19.0998 21.0938 19.5312 21.0938C19.9627 21.0938 20.3125 20.744 20.3125 20.3125C20.3125 19.881 19.9627 19.5312 19.5312 19.5312Z" fill="#B7ADC3"/>
<path d="M17.9688 19.5312H7.03125V21.0938H17.9688V19.5312Z" fill="#B7ADC3"/>
</svg>
