<svg width="375" height="313" viewBox="0 0 375 313" fill="none" xmlns="http://www.w3.org/2000/svg">
<path d="M351.077 271.328C349.648 263.594 350.498 256.368 352.744 250.161C345.94 255.079 344.069 268.513 344.069 268.513C344.239 264.951 343.355 260.303 344.851 256.776C341.688 259.489 337.742 269.564 336.925 273.872C334.816 250.364 343.287 227.738 343.253 227.467C339.408 229.604 326.55 257.454 324.917 262.508C324.1 264.985 323.59 268.004 322.195 269.327C321.311 263.458 321.855 256.267 323.59 250.839C322.535 252.569 320.903 256.368 319.882 258.098C318.691 249.55 320.766 234.692 322.059 229.638C318.963 233.2 315.426 243.851 313.895 249.041C312.398 254.13 310.391 261.423 310.323 267.325C308.554 260.609 309.438 246.497 310.969 232.454C308.248 238.695 306.071 244.123 303.655 258.777C303.281 261.118 303.281 265.052 302.397 266.613C301.274 259.795 301.206 249.822 301.988 246.192C299.403 248.295 297.736 267.19 297.634 272.244C296.341 264.069 295.865 254.435 297.022 246.972C293.994 258.37 294.538 272.922 294.266 284.999L364.276 279.707C367.439 279.571 371.25 280.69 374.243 278.927C373.359 273.024 375.196 264.679 375.876 258.675C377.135 247.345 379.108 236.456 383.258 225.737C384.551 222.379 387.272 217.901 387 214.034C373.597 235.778 358.799 249.991 351.077 271.328Z" fill="#A4FAB5"/>
<path d="M285.898 275.399C283.925 271.158 283.38 267.427 283.721 264.476C280.795 266.816 281.509 273.838 281.509 273.838C281.135 271.905 280.013 269.428 280.421 267.631C279.026 268.987 278.04 274.415 278.108 276.925C274.332 264.442 276.441 254.672 276.407 254.571C274.706 255.351 270.419 267.902 269.909 270.548C269.637 271.871 269.569 273.567 268.855 274.313C267.868 271.023 267.664 267.257 268.242 264.544C267.766 265.392 267.154 267.257 266.677 268.173C265.453 263.899 265.691 257.183 266.099 255.113C264.704 256.538 263.412 261.185 262.833 263.628C262.255 266.138 261.405 269.937 261.643 273.194C260.316 269.496 260.248 262.373 260.554 256.131C259.33 258.777 258.309 261.219 257.322 268.479C257.152 269.734 257.254 271.905 256.778 272.787C255.928 269.021 255.724 263.899 256.098 262.135C254.669 263.119 253.921 273.092 253.921 276.111C253.036 271.328 252.696 266.172 253.342 262.474C251.607 268.241 251.948 276.518 251.777 284.388L295.015 280.25C296.784 280.148 299.199 280.792 300.492 279.707C289.674 275.5 294.64 250.296 294.64 250.296C291.919 258.336 286.816 264.442 285.898 275.399Z" fill="#7DC98C"/>
<path d="M21.4059 279.3C23.9232 276.789 24.8417 274.72 24.8077 273.16C27.6652 274.11 26.2025 277.977 26.2025 277.977C26.8148 276.891 28.2095 275.433 27.9714 274.517C29.2981 275.093 29.8084 277.943 29.5022 279.3C34.741 272.142 33.4483 267.088 33.5164 267.054C35.2513 267.291 38.5171 273.601 38.7892 274.992C38.9253 275.67 38.8232 276.586 39.5036 276.925C40.8643 275.059 41.4766 272.99 41.1365 271.599C41.5447 272.007 42.0209 272.956 42.4292 273.397C44.1301 270.955 44.5383 267.359 44.3682 266.274C45.6949 266.884 46.6134 269.259 46.9876 270.514C47.3618 271.803 47.8721 273.77 47.2938 275.568C49.0627 273.431 49.8451 269.564 50.1173 266.24C51.1378 267.529 51.9883 268.75 52.2944 272.583C52.3625 273.228 52.0223 274.415 52.4645 274.856C53.7232 272.719 54.4376 269.937 54.2335 269.021C55.6282 269.395 55.4241 274.72 55.152 276.315C56.5467 273.635 57.4312 270.819 57.125 268.886C58.3837 271.803 57.1931 276.349 56.5807 280.555L11.4045 282.963C9.53352 283.099 6.94813 283.71 5.68945 283.269C17.5278 279.842 14.7723 266.749 14.7723 266.749C16.7454 270.717 21.542 273.465 21.4059 279.3Z" fill="#A4FAB5"/>
<path d="M16.5072 275.263C16.133 274.279 15.5207 271.43 14.9084 270.412C14.262 271.769 13.9899 273.329 13.8198 274.856C13.6497 274.381 12.6972 273.499 12.5271 273.058C12.255 273.567 11.7787 273.94 11.5065 274.483C10.9623 273.669 9.94171 273.228 9.56751 272.108C9.26135 272.719 8.13874 274.11 7.79856 274.924C7.59445 274.211 7.18623 273.703 7.08418 272.787C6.98212 274.042 6.70998 275.297 6.57391 276.552C4.49879 268.445 4.63487 269.496 1.57322 261.796C1.74332 267.698 1.23304 266.477 -0.161707 273.669C-1.55645 272.888 -1.18225 270.548 -0.808053 268.682C-2.74709 270.31 -4.03979 273.397 -5.12837 275.941C-6.82928 273.974 -5.19641 269.564 -4.58408 266.986C-8.49618 270.378 -12.3743 275.704 -12.0341 281.708L18.8205 282.251C18.6504 279.3 17.2897 277.298 16.5072 275.263Z" fill="#7DC98C"/>
<path d="M256.268 276.891C255.792 275.874 254.907 272.99 254.193 272.007C253.683 273.499 253.615 275.195 253.58 276.79C253.376 276.315 252.356 275.467 252.118 275.059C251.914 275.636 251.471 276.077 251.267 276.688C250.621 275.908 249.6 275.534 249.124 274.415C248.886 275.093 247.933 276.688 247.695 277.57C247.423 276.823 246.947 276.349 246.777 275.399C246.811 276.722 246.675 278.079 246.675 279.435C243.817 271.158 244.055 272.244 240.245 264.51C241.028 270.684 240.415 269.462 239.769 277.197C238.306 276.552 238.442 274.042 238.612 272.007C236.878 273.974 235.959 277.332 235.143 280.114C233.272 278.214 234.428 273.431 234.768 270.65C231.299 274.652 228.067 280.724 229.019 287L259.33 284.015C258.785 280.86 257.254 278.927 256.268 276.891Z" fill="#A4FAB5"/>
<g opacity="0.2">
<path d="M182.785 238.314C183.075 238.355 183.406 238.396 183.696 238.396C183.406 238.355 183.116 238.314 182.785 238.314Z" fill="#A7CFD8"/>
<path d="M201.211 223.343C199.306 221.579 191.853 223.794 189.41 223.671C187.754 223.589 185.642 222.604 184.151 222.686C179.886 222.891 169.7 226.911 167.465 230.808C165.767 230.274 163.821 231.136 162.165 231.505C161.336 229.864 159.473 230.438 157.858 230.931C156.947 228.552 150.198 225.927 147.3 225.639C146.844 222.112 146.182 224.696 142 223.343C133.429 220.594 139.929 231.628 123.947 228.429C122.166 225.64 119.433 229.003 119.433 231.341C116.825 229.782 112.933 230.644 115.003 234.13C113.347 233.187 111.69 233.31 111.566 235.36C108.999 235.935 101.049 232.243 99.931 233.966C95.7904 230.438 91.6084 229.413 86.267 231.464C86.5568 236.714 83.8654 256.812 88.2545 257.879C89.1654 257.633 105.065 259.56 104.941 259.027L135.54 243.318C151.482 244.589 154.67 245.943 170.322 247.214C169.659 247.132 175.497 251.234 174.835 251.193C177.278 247.871 235.205 244.548 238.725 243.236C241.871 242.005 205.517 227.28 201.211 223.343Z" fill="#A7CFD8"/>
<path d="M285.803 200.906C284.437 199.676 282.905 200.906 281.58 201.932C279.841 200.045 272.595 200.045 269.779 200.865C268.04 197.748 267.626 194.877 263.237 195.164C254.252 195.738 252.596 206.321 249.076 211.981C246.385 210.012 245.101 214.155 245.971 216.329C242.948 215.836 239.677 218.051 242.865 220.553C240.96 220.307 239.47 221.005 240.132 222.932C237.938 224.409 229.201 223.876 228.787 225.886C223.653 224.122 219.346 224.696 215.164 228.552C217.4 233.31 214.585 248.24 219.057 247.665C227.172 270.225 235.619 255.828 241.623 246.148L301.91 234.991C317.231 230.356 287.211 199.963 285.803 200.906Z" fill="#A7CFD8"/>
<path d="M366.794 218.462C367.084 218.544 367.415 218.585 367.663 218.585C367.373 218.544 367.084 218.503 366.794 218.462Z" fill="#A7CFD8"/>
<path d="M386.089 204.68C384.267 202.793 376.731 204.557 374.288 204.27C372.632 204.065 370.603 202.957 369.112 202.957C364.848 202.916 354.413 206.28 351.929 210.012C350.273 209.356 348.244 210.094 346.587 210.381C345.842 208.7 343.979 209.151 342.323 209.52C341.536 207.1 334.994 204.024 332.137 203.572C331.93 200.004 332.799 197.256 328.659 195.656C320.295 192.375 314.249 201.276 308.618 204.885C307.003 201.973 304.063 205.172 303.939 207.51C301.455 205.787 297.521 206.403 299.343 210.012C297.728 208.987 296.072 209.028 295.824 211.038C293.215 211.448 285.513 207.264 284.313 208.905C280.42 205.131 276.321 203.819 270.814 205.582C270.773 210.832 261.829 223.178 266.135 224.532C263.775 248.363 277.605 238.929 287.211 232.694L346.546 248.076C362.363 250.332 351.266 216.247 366.794 218.462C366.173 218.339 365.51 218.133 364.848 218.051C367.456 214.893 372.798 217.272 376.4 216.206C379.671 215.221 390.147 208.864 386.089 204.68Z" fill="#A7CFD8"/>
<path d="M73.5967 247.255C73.8865 247.419 74.135 247.542 74.4248 247.624C74.135 247.46 73.8451 247.378 73.5967 247.255Z" fill="#A7CFD8"/>
<path d="M96.6599 230.562C95.4591 227.444 87.5091 228.593 85.1904 227.731C83.617 227.116 81.9607 225.106 80.5115 224.819C76.3295 223.958 65.1084 226.952 61.5475 231.997C60.0983 230.726 57.9037 231.423 56.2061 231.505C55.999 228.88 54.0116 229.208 52.2725 229.454C52.2311 225.722 46.7241 219.938 44.0327 218.708C44.9022 213.375 46.5584 209.479 42.9975 206.321C35.7514 199.881 27.1804 211.858 20.5554 216.165C19.8515 211.571 16.0007 215.713 15.1726 219.159C13.2265 216.124 9.21008 216.288 9.91398 221.989C8.63039 220.143 7.01555 219.897 6.18742 222.809C3.49602 222.932 -2.79772 215.262 -4.45396 217.436C-7.18677 210.997 -10.8305 208.33 -16.7516 209.848C-18.3664 217.6 -11.9899 226.255 -8.18052 229.085C-7.18677 229.003 -7.93208 228.593 -7.84927 227.772L17.6569 261.98C32.5217 268.338 47.0139 256.115 61.5889 262.391C51.4444 272.768 76.4123 257.592 75.7912 257.345C79.3107 253.162 96.7427 252.136 100.593 251.275C104.113 250.414 99.3513 237.534 96.6599 230.562Z" fill="#A7CFD8"/>
<path d="M106.804 230.479C106.722 230.603 106.597 230.685 106.515 230.849L107.136 230.438C107.094 230.397 107.094 230.315 107.094 230.274C107.011 230.315 106.887 230.397 106.804 230.479Z" fill="#A7CFD8"/>
<path d="M121.628 220.307C121.09 219.282 120.675 217.559 119.599 216.944C118.895 216.534 118.108 217.108 117.322 216.821C115.997 216.329 116.162 217.067 115.21 216.124C114.258 215.139 114.961 213.827 113.595 213.334C111.401 212.596 104.693 215.795 105.355 218.215C104.361 216.821 100.097 215.303 98.399 215.303C95.9974 215.344 93.2232 218.585 92.6435 221.169C91.1943 221.005 89.2896 221.825 88.2959 223.22C86.474 225.763 86.8881 231.915 90.5318 232.94C92.8506 233.597 93.7615 231.71 95.3349 230.972C97.1568 230.151 98.7716 230.726 100.055 228.634C101.008 228.347 102.001 228.142 103.036 228.059C103.492 232.366 101.753 236.468 101.836 240.488C101.836 240.488 103.947 242.908 103.989 242.908C103.326 242.169 104.486 236.386 104.693 235.319C105.024 233.802 105.562 231.505 106.804 230.438C107.384 229.782 108.005 229.454 108.875 229.208L107.136 230.397C107.26 230.767 107.633 231.259 107.633 231.71C108.875 231.218 109.744 230.849 110.986 231.546C111.732 231.956 111.442 233.187 112.726 232.776C113.347 232.571 113.554 231.259 113.678 230.644C114.879 230.603 115.21 229.413 115.127 228.183C118.357 227.895 122.332 227.485 123.284 226.337C124.858 224.45 122.663 222.235 121.628 220.307Z" fill="#A7CFD8"/>
<path d="M132.104 230.644C132.021 230.726 131.979 230.808 131.897 230.89L132.311 230.603C132.311 230.562 132.269 230.52 132.269 230.479C132.228 230.562 132.186 230.603 132.104 230.644Z" fill="#A7CFD8"/>
<path d="M142.662 223.425C142.248 222.686 142 221.497 141.213 221.046C140.716 220.759 140.136 221.169 139.598 220.964C138.646 220.594 138.77 221.128 138.107 220.471C137.445 219.774 137.942 218.831 136.948 218.503C135.375 217.969 130.613 220.266 131.11 221.989C130.406 221.005 127.383 219.897 126.183 219.938C124.485 219.979 122.497 222.276 122.083 224.122C121.048 223.999 119.682 224.573 118.978 225.557C117.694 227.362 117.984 231.751 120.593 232.489C122.249 232.94 122.911 231.587 123.988 231.095C125.272 230.52 126.431 230.931 127.342 229.413C128.046 229.208 128.708 229.044 129.454 229.003C129.785 232.079 128.543 234.991 128.584 237.862L130.116 239.585C129.661 239.052 130.447 234.95 130.613 234.171C130.82 233.105 131.234 231.464 132.104 230.685C132.518 230.192 132.973 229.987 133.594 229.823L132.352 230.685C132.435 230.931 132.725 231.3 132.683 231.628C133.553 231.259 134.174 231.013 135.085 231.505C135.623 231.792 135.416 232.694 136.327 232.366C136.782 232.202 136.907 231.259 137.031 230.849C137.9 230.808 138.107 229.987 138.066 229.085C140.385 228.88 143.2 228.593 143.863 227.772C144.94 226.378 143.407 224.819 142.662 223.425Z" fill="#A7CFD8"/>
<path d="M158.148 227.444C158.065 227.526 158.024 227.608 157.941 227.69L158.355 227.403C158.355 227.362 158.314 227.321 158.314 227.28C158.272 227.362 158.189 227.403 158.148 227.444Z" fill="#A7CFD8"/>
<path d="M168.665 220.225C168.251 219.487 168.003 218.297 167.216 217.846C166.719 217.559 166.139 217.969 165.601 217.764C164.649 217.395 164.773 217.928 164.111 217.272C163.448 216.575 163.945 215.631 162.951 215.303C161.378 214.77 156.616 217.067 157.113 218.79C156.409 217.805 153.345 216.698 152.186 216.739C150.488 216.78 148.5 219.077 148.086 220.923C147.051 220.8 145.685 221.374 144.981 222.358C143.697 224.163 143.987 228.552 146.596 229.29C148.252 229.741 148.914 228.388 149.991 227.895C151.275 227.321 152.434 227.731 153.345 226.214C154.049 226.009 154.711 225.845 155.457 225.804C155.788 228.88 154.546 231.792 154.587 234.663L156.119 236.386C155.664 235.853 156.45 231.751 156.616 230.972C156.823 229.905 157.237 228.265 158.107 227.485C158.521 227.034 158.976 226.788 159.597 226.624L158.355 227.485C158.438 227.731 158.728 228.101 158.686 228.429C159.556 228.059 160.177 227.813 161.088 228.306C161.626 228.593 161.419 229.495 162.33 229.167C162.786 229.003 162.91 228.059 163.034 227.649C163.903 227.608 164.111 226.788 164.069 225.886C166.388 225.681 169.203 225.393 169.866 224.573C170.984 223.178 169.452 221.579 168.665 220.225Z" fill="#A7CFD8"/>
<path d="M166.553 228.962C166.595 229.003 166.636 229.044 166.678 229.085L166.429 228.962C166.429 228.921 166.429 228.921 166.429 228.921C166.471 228.921 166.512 228.962 166.553 228.962Z" fill="#A7CFD8"/>
<path d="M160.881 225.681C161.047 225.27 161.088 224.573 161.461 224.286C161.709 224.081 161.999 224.286 162.247 224.122C162.703 223.876 162.661 224.163 162.951 223.753C163.241 223.343 162.91 222.85 163.407 222.604C164.152 222.235 166.636 223.178 166.512 224.163C166.802 223.589 168.251 222.809 168.831 222.727C169.659 222.645 170.777 223.794 171.108 224.778C171.605 224.655 172.309 224.901 172.723 225.393C173.468 226.296 173.593 228.716 172.35 229.29C171.564 229.659 171.15 228.962 170.57 228.716C169.907 228.47 169.328 228.757 168.789 228.018C168.458 227.936 168.086 227.895 167.713 227.936C167.754 229.618 168.541 231.136 168.665 232.694L168.003 233.72C168.21 233.392 167.547 231.218 167.423 230.808C167.257 230.233 166.968 229.372 166.471 229.003C166.222 228.757 166.015 228.675 165.684 228.593L166.347 228.962C166.305 229.126 166.222 229.331 166.222 229.495C165.767 229.331 165.436 229.249 165.022 229.577C164.773 229.782 164.939 230.233 164.483 230.11C164.235 230.069 164.111 229.536 164.069 229.331C163.655 229.372 163.489 228.921 163.448 228.429C162.289 228.47 160.881 228.47 160.508 228.059C159.929 227.403 160.632 226.46 160.881 225.681Z" fill="#A7CFD8"/>
<path d="M176.615 225.927C176.657 225.968 176.739 226.05 176.781 226.132L176.408 225.927C176.408 225.886 176.408 225.845 176.408 225.845C176.532 225.845 176.574 225.886 176.615 225.927Z" fill="#A7CFD8"/>
<path d="M167.879 220.8C168.127 220.143 168.21 219.077 168.748 218.626C169.121 218.339 169.576 218.626 169.99 218.38C170.694 218.01 170.653 218.462 171.067 217.805C171.522 217.149 171.025 216.411 171.771 216.042C172.93 215.426 176.781 216.944 176.574 218.421C177.029 217.518 179.224 216.329 180.176 216.206C181.501 216.083 183.24 217.846 183.696 219.364C184.482 219.159 185.559 219.528 186.221 220.307C187.381 221.702 187.588 225.434 185.642 226.296C184.441 226.829 183.779 225.763 182.909 225.434C181.874 225.065 181.004 225.516 180.176 224.327C179.638 224.204 179.1 224.163 178.52 224.163C178.561 226.788 179.804 229.126 180.011 231.546L179.017 233.146C179.307 232.653 178.313 229.249 178.106 228.634C177.816 227.731 177.361 226.419 176.615 225.845C176.243 225.475 175.87 225.352 175.414 225.229L176.45 225.804C176.408 226.009 176.243 226.337 176.284 226.624C175.58 226.419 175.083 226.255 174.462 226.747C174.089 227.034 174.338 227.772 173.593 227.608C173.22 227.526 173.054 226.747 172.93 226.378C172.268 226.419 172.019 225.763 171.978 224.983C170.197 225.024 168.003 225.065 167.423 224.409C166.388 223.507 167.423 222.03 167.879 220.8Z" fill="#A7CFD8"/>
<path d="M212.804 231.833C212.721 231.915 212.639 232.038 212.597 232.161L213.053 231.833C213.053 231.792 213.011 231.71 213.011 231.669C212.928 231.71 212.887 231.751 212.804 231.833Z" fill="#A7CFD8"/>
<path d="M224.232 223.425C223.777 222.399 223.487 220.759 222.617 220.061C222.038 219.61 221.458 220.102 220.837 219.733C219.802 219.159 219.926 219.856 219.181 218.913C218.435 217.887 218.974 216.698 217.897 216.124C216.158 215.221 210.982 217.723 211.521 220.102C210.734 218.708 207.38 216.862 206.096 216.739C204.233 216.575 202.08 219.446 201.666 221.825C200.507 221.538 199.057 222.153 198.312 223.384C196.904 225.64 197.318 231.546 200.175 232.858C201.997 233.679 202.701 231.956 203.902 231.382C205.31 230.726 206.593 231.464 207.546 229.577C208.291 229.372 209.078 229.249 209.864 229.29C210.278 233.433 208.953 237.206 209.036 241.021L210.734 243.482C210.196 242.702 211.024 237.288 211.189 236.304C211.438 234.909 211.81 232.776 212.804 231.833C213.26 231.259 213.757 231.013 214.419 230.849L213.053 231.833C213.177 232.202 213.467 232.694 213.425 233.146C214.378 232.776 215.082 232.53 216.034 233.269C216.614 233.72 216.407 234.868 217.4 234.581C217.897 234.417 218.021 233.187 218.146 232.612C219.098 232.653 219.346 231.587 219.264 230.397C221.789 230.397 224.895 230.356 225.599 229.331C226.8 227.649 225.06 225.352 224.232 223.425Z" fill="#A7CFD8"/>
<path d="M161.129 235.443L161.295 234.704C161.212 233.064 161.461 231.546 161.668 229.905C161.916 227.772 161.792 225.845 161.75 223.753C161.047 227.608 160.094 231.546 161.129 235.443Z" fill="#A7CFD8"/>
<path d="M165.601 235.196V234.417C165.187 232.817 165.104 231.3 164.98 229.659C164.814 227.526 164.276 225.639 163.821 223.589C163.945 227.485 163.821 231.546 165.601 235.196Z" fill="#A7CFD8"/>
<path d="M116.286 234.048V233.269C115.872 231.669 115.79 230.151 115.665 228.511C115.5 226.378 114.961 224.491 114.506 222.44C114.63 226.378 114.506 230.397 116.286 234.048Z" fill="#A7CFD8"/>
<path d="M111.193 239.421V238.642C110.779 237.042 110.697 235.525 110.572 233.884C110.407 231.751 109.868 229.864 109.413 227.813C109.496 231.751 109.372 235.771 111.193 239.421Z" fill="#A7CFD8"/>
</g>
<g opacity="0.25">
<path d="M188.751 221.911L188.804 219.531L187.905 219.584L187.958 218.315V217.945V217.575L187.376 217.628H187.429V216.994H187.376L187.429 214.72V214.509H187.535V214.033H187.429V213.187V212.235V211.971H187.694V211.495L187.429 211.548V210.649V209.962V209.803H187.694V209.327L187.429 209.38L187.482 207.53V207.212H187.641V206.737L187.112 206.842L187.165 206.102L187.324 204.146H187.482V203.67L186.795 203.723V202.137L185.579 202.295L185.843 193.096L184.944 193.36L184.997 191.88L179.34 193.889V194.999L178.811 195.158L178.758 195.105V195.158L178.6 195.211L178.653 197.273L177.542 197.22L177.595 196.585H176.696L176.644 197.22H176.221L176.062 195.845H175.48L175.375 197.22L172.995 197.167V197.643H173.154L173.048 201.502L172.308 201.449L172.202 200.656L171.092 200.551L171.039 201.396H170.881V200.709H170.616L170.722 197.061H170.933V196.268L169.717 196.215V195.634H169.03V196.162L167.973 196.109V195.739H167.285V196.109L166.175 196.056L166.281 191.774V191.721V191.668H166.439V190.822H166.175L166.228 187.386L165.329 187.28L165.382 185.747L166.334 185.799V184.901L166.439 180.724V180.142L166.545 175.278L165.646 175.172V174.168L166.386 174.221V173.639H166.545L166.651 169.092V168.669L166.757 163.858L165.858 163.752L165.911 162.166L166.809 162.219V161.32L166.862 158.888L166.915 157.249V156.773L167.021 151.592L166.122 151.486L166.175 150.164L167.074 150.217V149.318L167.18 145.617V144.93V144.56L167.285 139.59L166.386 139.484V138.427L167.285 138.479V137.792L167.391 133.139V132.241L167.497 128.064L166.651 127.958L166.704 126.16L167.603 126.213V125.314L167.708 120.82L166.862 120.715L166.915 118.97H167.074V118.23L167.391 111.356H167.55V110.193L161.099 109.506V106.122H161.258V105.382L158.72 105.276V106.016H158.879V109.242L158.139 109.189L155.548 108.924L154.913 108.871V106.386H155.019V105.911L153.327 105.858V106.334H153.433V108.713L149.045 108.237V106.281H149.203V105.276L147.194 105.223V106.228H147.406V107.92V108.078L142.383 107.55V108.766H142.594V109.136V109.823L142.647 118.441V119.234V120.08H142.436V121.561L140.797 121.138V123.834L140.427 123.993L138.523 124.68V123.57L136.144 122.935L136.197 125.526L133.5 126.478L133.448 125.103L131.068 124.469L131.121 127.271L126.098 129.015L126.891 139.537L127.262 139.484V139.907L127.314 140.7L126.839 140.753L126.997 145.881L127.473 145.829L127.526 147.679V147.732L127.05 147.785L127.209 152.385L126.204 152.649L126.151 151.38L125.834 151.433V150.64L125.464 150.587L125.517 151.486H125.411L124.935 151.539L124.882 150.64L124.512 150.587L124.565 151.592L124.036 151.644L123.984 150.799L123.613 150.746L123.666 151.697L123.296 151.75L123.349 153.442L121.287 154.024L119.172 154.605L119.119 153.759L118.802 153.812L118.749 153.019L118.326 152.966L118.379 153.865H118.273L117.798 153.918L117.745 153.019L117.48 152.966L117.428 150.058L117.269 137.263V135.889V134.038L117.216 131.818V130.443L117.163 127.324L117.11 124.944L117.163 124.892C117.269 124.839 117.322 124.733 117.428 124.68C117.533 124.627 117.586 124.521 117.639 124.469C117.692 124.416 117.798 124.363 117.85 124.257C117.903 124.204 118.009 124.098 118.062 124.046C118.115 123.993 118.168 123.94 118.221 123.887C118.273 123.834 118.326 123.781 118.379 123.728C118.432 123.675 118.432 123.623 118.485 123.57C118.538 123.517 118.591 123.464 118.591 123.411C118.644 123.358 118.644 123.305 118.696 123.305C118.749 123.252 118.749 123.2 118.749 123.2C118.749 123.147 118.802 123.147 118.802 123.094C118.802 123.041 118.802 123.041 118.802 122.988V122.935C118.802 122.882 118.802 122.882 118.749 122.83C118.696 122.777 118.644 122.777 118.591 122.777H118.538C118.485 122.777 118.432 122.777 118.379 122.777H118.326C118.168 122.777 118.009 122.83 117.798 122.882C117.798 122.882 117.798 122.882 117.745 122.882C117.639 122.935 117.586 122.935 117.48 122.988C117.269 123.094 117.057 123.2 116.846 123.252C116.793 123.305 116.687 123.305 116.634 123.358C116.634 123.358 116.582 123.358 116.582 123.411H116.37V122.618C116.423 122.565 116.476 122.512 116.529 122.459C116.582 122.407 116.687 122.301 116.74 122.248C116.846 122.142 116.952 122.036 117.005 121.931C117.057 121.878 117.11 121.825 117.163 121.772C117.269 121.613 117.427 121.508 117.48 121.349C117.533 121.296 117.533 121.296 117.533 121.243C117.586 121.138 117.692 121.085 117.692 120.979C117.745 120.926 117.745 120.926 117.745 120.873C117.798 120.82 117.798 120.768 117.85 120.662C117.85 120.609 117.903 120.609 117.903 120.556C117.903 120.503 117.956 120.45 117.956 120.397V120.345C117.956 120.292 117.956 120.239 117.903 120.186C117.85 120.133 117.85 120.133 117.745 120.133H117.692C117.639 120.133 117.586 120.133 117.586 120.133C117.533 120.133 117.48 120.133 117.48 120.186C117.427 120.186 117.375 120.186 117.322 120.239C117.269 120.239 117.216 120.292 117.163 120.292C117.11 120.292 117.057 120.345 117.005 120.345C116.952 120.345 116.899 120.397 116.846 120.397C116.793 120.45 116.74 120.45 116.634 120.503C116.582 120.503 116.529 120.556 116.476 120.609C116.423 120.662 116.317 120.662 116.264 120.715C116.211 120.715 116.159 120.768 116.106 120.82C116 120.873 115.947 120.926 115.841 120.979C115.788 120.979 115.736 121.032 115.736 121.032C115.683 121.085 115.63 121.085 115.577 121.138L115.418 116.009V115.428C115.418 115.375 115.418 115.375 115.418 115.322C115.418 114.899 115.418 114.476 115.471 114C115.471 113.947 115.471 113.894 115.471 113.789C115.471 113.366 115.471 112.89 115.471 112.414C115.471 112.361 115.471 112.361 115.471 112.308V112.255C115.471 112.202 115.471 112.097 115.471 112.044C115.471 111.409 115.471 110.775 115.471 110.14C115.471 110.087 115.471 109.982 115.471 109.929C115.471 109.242 115.418 108.554 115.418 107.814C115.418 107.761 115.418 107.708 115.418 107.603C115.366 106.915 115.313 106.228 115.26 105.541C115.26 105.488 115.26 105.435 115.26 105.329C115.207 104.642 115.101 104.007 115.048 103.373C115.048 103.32 115.048 103.267 115.048 103.267C115.048 103.214 115.048 103.161 115.048 103.108C114.995 102.527 114.995 101.945 114.943 101.417V101.364C114.943 100.253 114.89 99.1431 114.731 98.1385V98.0857C114.678 97.6098 114.625 97.134 114.52 96.6581C114.52 96.6053 114.52 96.6053 114.52 96.5524C114.414 96.1294 114.361 95.7065 114.202 95.2835V95.2306C114.202 95.1777 114.202 95.1777 114.202 95.1249C114.149 94.8076 114.097 94.4904 114.044 94.1732C114.044 94.0674 113.991 93.9617 113.991 93.9088C113.938 93.5916 113.832 93.3272 113.779 93.0629C113.779 92.9571 113.727 92.9043 113.727 92.7985C113.621 92.5342 113.568 92.2698 113.462 92.0055C113.462 91.9526 113.409 91.8997 113.409 91.8468C113.304 91.5296 113.198 91.2653 113.092 91.0538C113.039 90.5779 112.933 90.1021 112.881 89.6791C112.881 89.5734 112.881 89.5205 112.828 89.4148C112.775 88.9918 112.722 88.5159 112.669 88.093C112.669 88.0401 112.669 87.9344 112.616 87.8815C112.563 87.4056 112.51 86.8769 112.458 86.3482C112.458 86.2953 112.458 86.1896 112.458 86.1367C112.405 85.7138 112.352 85.2379 112.299 84.7621C112.299 84.6563 112.299 84.6035 112.246 84.4977C112.193 83.969 112.14 83.4403 112.087 82.9116C112.087 82.8587 112.087 82.8058 112.087 82.753C112.035 82.2771 112.035 81.8013 111.982 81.2726C111.982 81.1668 111.982 81.0611 111.982 81.0082C111.929 80.4795 111.929 79.8979 111.876 79.3163C111.876 79.2634 111.876 79.2634 111.876 79.2106C111.876 78.6819 111.823 78.1003 111.823 77.5716C111.823 77.4658 111.823 77.3601 111.823 77.2543C111.823 76.6727 111.77 76.0383 111.77 75.4038C111.77 74.7694 111.77 74.1878 111.717 73.5005C111.717 73.3418 111.717 73.2361 111.717 73.0775C111.717 72.443 111.717 71.7557 111.717 71.0684L111.347 71.1741C111.347 71.8614 111.347 72.5488 111.347 73.2361C111.347 73.3947 111.347 73.5533 111.347 73.6591C111.347 74.2935 111.347 74.9809 111.347 75.6153C111.347 75.6682 111.347 75.7211 111.347 75.7739C111.347 76.3555 111.294 76.9371 111.294 77.4658C111.294 77.5716 111.294 77.7302 111.294 77.8359C111.294 78.4175 111.242 78.9991 111.242 79.5278C111.242 79.6335 111.242 79.7393 111.242 79.7922C111.242 80.268 111.189 80.7438 111.189 81.2197C111.189 81.3254 111.189 81.4312 111.189 81.5898C111.136 82.1185 111.136 82.5943 111.083 83.1231C111.083 83.2288 111.083 83.3345 111.083 83.4932C111.03 83.9161 111.03 84.3391 110.977 84.7621C110.977 84.8678 110.977 84.9736 110.977 85.0793C110.924 85.5551 110.871 86.031 110.819 86.5068C110.819 86.6126 110.819 86.7712 110.766 86.8769C110.713 87.2999 110.66 87.7229 110.66 88.093C110.66 88.1987 110.66 88.2516 110.607 88.3573C110.554 88.8332 110.501 89.309 110.448 89.7849C110.448 89.9435 110.396 90.1021 110.396 90.2078C110.396 90.3136 110.343 90.4722 110.343 90.5779C110.343 90.6308 110.29 90.6308 110.29 90.6837C110.237 90.7365 110.237 90.7894 110.184 90.8423C110.131 90.948 110.078 91.0538 110.025 91.1595C109.973 91.2124 109.973 91.2653 109.92 91.3181C109.867 91.4767 109.761 91.6882 109.708 91.8468C109.708 91.8997 109.655 92.0055 109.655 92.0583C109.603 92.2169 109.55 92.3756 109.497 92.5342C109.497 92.6399 109.444 92.6928 109.444 92.7985C109.391 92.9571 109.338 93.1686 109.285 93.3801C109.285 93.433 109.232 93.4859 109.232 93.5916C109.18 93.856 109.127 94.1203 109.074 94.4375C109.074 94.4904 109.074 94.5433 109.021 94.5962C109.021 94.7548 108.968 94.9134 108.915 95.072C108.809 95.3364 108.757 95.6007 108.651 95.9179C108.598 96.2352 108.492 96.5524 108.439 96.8696V96.9225C108.334 97.557 108.228 98.2443 108.122 98.9316C108.122 98.9845 108.122 98.9845 108.122 99.0374C108.069 99.7247 108.016 100.465 107.964 101.205C107.964 101.258 107.964 101.258 107.964 101.311C107.911 102.051 107.911 102.844 107.964 103.637C107.858 104.483 107.752 105.382 107.646 106.334C107.593 106.809 107.593 107.232 107.541 107.708V107.761C107.488 108.237 107.488 108.66 107.435 109.136C107.435 109.189 107.435 109.242 107.435 109.294C107.435 109.665 107.382 110.087 107.382 110.458C107.382 110.563 107.382 110.616 107.382 110.722C107.382 111.145 107.329 111.568 107.329 111.991C107.329 112.097 107.329 112.149 107.329 112.255C107.329 112.572 107.329 112.943 107.329 113.26C107.329 113.366 107.329 113.524 107.329 113.63C107.329 114.053 107.329 114.423 107.329 114.846C107.329 115.375 107.329 115.903 107.329 116.432C107.329 116.485 107.329 116.485 107.329 116.538C107.329 117.067 107.329 117.542 107.329 118.018C107.276 119.076 107.276 120.133 107.276 121.191V121.613C107.276 121.613 107.223 121.613 107.223 121.561C107.17 121.508 107.065 121.508 106.959 121.455C106.906 121.402 106.853 121.402 106.747 121.402C106.695 121.349 106.589 121.349 106.536 121.296C106.483 121.243 106.377 121.243 106.324 121.191C106.272 121.191 106.219 121.138 106.113 121.138C106.06 121.138 105.954 121.085 105.902 121.085C105.849 121.085 105.796 121.032 105.743 121.032C105.69 121.032 105.637 120.979 105.531 120.979C105.479 120.979 105.426 120.979 105.373 120.926C105.32 120.926 105.267 120.873 105.214 120.873C105.161 120.873 105.108 120.873 105.056 120.873C105.003 120.873 104.95 120.873 104.897 120.873C104.844 120.873 104.791 120.873 104.791 120.873C104.738 120.873 104.738 120.873 104.685 120.873C104.633 120.873 104.58 120.926 104.58 120.979C104.58 121.032 104.527 121.085 104.527 121.138V121.191C104.527 121.243 104.527 121.296 104.58 121.349C104.58 121.402 104.633 121.402 104.633 121.455C104.685 121.508 104.685 121.561 104.738 121.613C104.738 121.666 104.791 121.666 104.844 121.719C104.897 121.772 104.95 121.825 105.003 121.931C105.056 121.984 105.056 122.036 105.108 122.036C105.214 122.142 105.267 122.248 105.373 122.301C105.426 122.354 105.426 122.354 105.479 122.407C105.637 122.512 105.743 122.671 105.954 122.83C106.007 122.882 106.06 122.935 106.166 122.988C106.272 123.041 106.324 123.147 106.43 123.2V123.728H106.007C105.954 123.675 105.849 123.623 105.743 123.57C105.69 123.517 105.584 123.464 105.531 123.411C105.531 123.411 105.479 123.411 105.479 123.358C105.426 123.305 105.373 123.305 105.267 123.252C105.267 123.252 105.214 123.252 105.214 123.2C105.161 123.147 105.056 123.147 105.003 123.094C105.003 123.094 105.003 123.094 104.95 123.094C104.897 123.041 104.791 123.041 104.738 122.988H104.685C104.633 122.988 104.58 122.935 104.527 122.935H104.474C104.421 122.935 104.421 122.935 104.368 122.935H104.315C104.263 122.935 104.21 122.988 104.21 122.988C104.21 122.988 104.157 123.041 104.157 123.094V123.147C104.157 123.2 104.157 123.2 104.21 123.252C104.21 123.305 104.21 123.305 104.263 123.358C104.263 123.411 104.315 123.464 104.315 123.517C104.315 123.57 104.368 123.57 104.368 123.623C104.421 123.675 104.421 123.728 104.474 123.781C104.527 123.834 104.527 123.887 104.58 123.94C104.633 123.993 104.685 124.046 104.685 124.098C104.738 124.151 104.791 124.204 104.844 124.31C104.897 124.363 104.95 124.416 104.95 124.469C105.108 124.627 105.267 124.839 105.426 125.05C105.426 125.103 105.479 125.103 105.479 125.156V127.271V127.641V127.958H105.426V128.54V129.015V129.068V130.549V131.13V132.294V133.087V133.457V133.51H105.373V134.091H105.426V136.1V136.682V138.902H105.373V139.484H105.426V139.696V141.44V142.022V143.079V144.242V144.824V148.842V149.635V150.217L105.373 155.134V155.345V159.364L105.003 159.311L104.474 159.258L103.258 158.253L103.84 160.263V160.791H103.998V160.844V161.373V161.426V163.805L103.945 172.582L102.729 172.634V171.841L101.513 171.894L101.619 171.154L102.729 171.101L102.676 168.933H101.989L102.095 168.193H102.676L102.623 166.025H102.412L102.148 165.285H102.571L102.518 163.065H101.302V162.324H102.518L102.465 160.104H101.302V159.364H102.465L102.412 157.143L101.249 157.09V156.35L102.359 156.403L102.306 154.129L101.196 154.077V153.495L101.513 153.389V153.336L102.306 153.389L102.253 151.116L101.513 151.063V145.776L97.9179 146.78L97.8122 145.881L97.495 145.934L97.4421 145.141L97.072 145.088L97.1249 145.987L96.5433 146.04L96.4904 145.141L96.1203 145.088L96.1732 146.146H96.1203L95.6445 146.199L95.5916 145.353L95.2215 145.3L95.2744 146.252L94.9043 146.304L94.9571 148.049L94.4813 148.208L90.7803 149.265L90.7274 148.366L90.4102 148.419L90.3573 147.626H90.1987L89.0884 96.3409L86.6034 94.649L86.6563 93.856C86.392 93.4859 86.0747 93.2215 85.7575 92.9043C85.6518 92.7985 85.546 92.6928 85.4403 92.587C85.3874 92.5342 85.2817 92.4284 85.2288 92.3756L85.3345 90.7894C85.123 90.4722 84.9116 90.155 84.6472 89.8906C84.5943 89.8377 84.5415 89.732 84.4886 89.6791C84.4357 89.6262 84.3828 89.5734 84.33 89.4676C84.2242 89.3619 84.1185 89.2561 84.0127 89.1504C83.8541 88.9918 83.7484 88.886 83.5898 88.7274C83.4312 88.6217 83.3254 88.5159 83.1668 88.4102C83.0082 88.2516 82.7967 88.1458 82.6381 87.9872C82.4795 87.8815 82.3208 87.7757 82.1622 87.67C82.0036 87.5643 81.7921 87.4585 81.6335 87.3528C81.4749 87.247 81.3163 87.1942 81.1048 87.1413C80.9462 87.0884 80.7347 86.9827 80.5761 86.9298C80.4175 86.8769 80.206 86.8241 80.0474 86.7712C79.8888 86.7183 79.7301 86.6654 79.5187 86.6654C79.3072 86.6126 79.1486 86.6126 78.9371 86.5597C78.7785 86.5597 78.6199 86.5068 78.4612 86.5068C78.2497 86.5068 78.0383 86.5068 77.8797 86.5068C77.8268 86.5068 77.7739 86.5068 77.7739 86.5068L77.721 84.6563C77.7739 84.6563 77.7739 84.6035 77.8268 84.6035C77.8796 84.6035 77.9325 84.5506 77.9854 84.4977C78.0383 84.4448 78.0911 84.392 78.0911 84.392C78.144 84.3391 78.1969 84.2862 78.1969 84.2334C78.2497 84.1805 78.2498 84.0747 78.3026 84.0219C78.3026 83.969 78.3555 83.9161 78.3555 83.8633C78.4084 83.7046 78.4084 83.546 78.4084 83.3874C78.4084 83.2288 78.3555 83.0702 78.3026 82.9116C78.3026 82.8587 78.2497 82.8058 78.2497 82.753C78.1969 82.7001 78.1969 82.5943 78.144 82.5415C78.0911 82.4886 78.0383 82.4357 77.9854 82.3829C77.9325 82.33 77.8797 82.2771 77.8797 82.2771C77.8268 82.2242 77.7739 82.2242 77.6682 82.2242C77.6153 82.2242 77.6153 82.1714 77.5624 82.1714L77.4567 78.9991L77.5096 78.9462C77.5624 78.8933 77.6153 78.8405 77.6682 78.7876C77.6682 78.7876 77.721 78.7347 77.721 78.6819C77.7739 78.629 77.7739 78.5761 77.8268 78.4704C77.8268 78.4175 77.8268 78.4175 77.8797 78.3646C77.9325 78.2589 77.9325 78.1531 77.9325 78.0474C77.9325 77.9417 77.8797 77.8359 77.8797 77.7302C77.8797 77.6773 77.8796 77.6773 77.8268 77.6244C77.7739 77.5716 77.7739 77.4658 77.721 77.4129L77.6682 77.3601C77.6153 77.3072 77.5624 77.2543 77.5096 77.2015C77.5096 77.2015 77.5096 77.2015 77.4567 77.1486L76.7693 56H76.3464L77.0337 77.0428C77.0337 77.0428 77.0337 77.0428 76.9808 77.0428C76.928 77.0428 76.928 77.0957 76.8751 77.0957C76.8222 77.1486 76.8222 77.1486 76.7693 77.2015C76.7693 77.2543 76.7165 77.2543 76.7165 77.3072C76.6636 77.3601 76.6636 77.4129 76.6636 77.4658C76.6636 77.5187 76.6107 77.5187 76.6107 77.5716C76.5579 77.6773 76.5579 77.783 76.5579 77.9417C76.5579 78.0474 76.6107 78.1531 76.6107 78.2589C76.6107 78.3118 76.6636 78.3118 76.6636 78.3646C76.6636 78.4175 76.7165 78.4704 76.7693 78.5232C76.7693 78.5761 76.8222 78.5761 76.8751 78.629C76.928 78.6819 76.928 78.6819 76.9808 78.7347C77.0337 78.7347 77.0337 78.7876 77.0866 78.7876C77.0866 78.7876 77.0866 78.7876 77.1395 78.7876L77.2452 82.0128C77.1923 82.0128 77.1923 82.0656 77.1395 82.1185C77.0866 82.1714 77.0337 82.2242 76.9808 82.2771C76.928 82.33 76.928 82.3829 76.8751 82.3829C76.8222 82.4357 76.7693 82.5415 76.7693 82.6472C76.7693 82.7001 76.7165 82.753 76.7165 82.8058C76.6636 82.9644 76.6636 83.1231 76.6636 83.2817C76.6636 83.4403 76.7165 83.5989 76.7693 83.7046C76.7693 83.7575 76.8222 83.8104 76.8222 83.8104C76.8751 83.9161 76.8751 83.969 76.928 84.0219C76.9808 84.0747 76.9808 84.1276 77.0337 84.1276C77.0866 84.1805 77.1395 84.2334 77.1923 84.2862C77.2452 84.3391 77.2452 84.3391 77.2981 84.3391L77.3509 86.2425C77.2981 86.2425 77.2452 86.2425 77.2452 86.2425C76.9808 86.2425 76.7165 86.2953 76.4521 86.3482C76.3464 86.3482 76.1878 86.4011 76.082 86.4011C75.8177 86.454 75.5533 86.5068 75.2889 86.6126C75.1832 86.6654 75.0775 86.6654 74.9188 86.7183C74.6545 86.8241 74.3901 86.9298 74.1258 87.0355C74.02 87.0884 73.9143 87.1413 73.8086 87.1942C73.5442 87.2999 73.3327 87.4585 73.0683 87.5643C72.9626 87.6171 72.8569 87.67 72.7511 87.7229C72.5396 87.8815 72.2753 87.9872 72.0638 88.1458C71.9581 88.1987 71.8523 88.3045 71.7466 88.3573C71.5351 88.5159 71.3236 88.6746 71.1121 88.8332C71.0064 88.9389 70.9006 88.9918 70.7949 89.0975C70.5834 89.2561 70.4248 89.4676 70.2133 89.6791C70.1076 89.7849 70.0547 89.8377 69.9489 89.9435C69.6846 90.2078 69.4202 90.5251 69.2087 90.8423L69.4202 92.1641C69.3145 92.2698 69.2087 92.3227 69.103 92.4284C68.9972 92.5342 68.8386 92.6399 68.7329 92.7457C68.4685 92.9571 68.2042 93.2215 67.9398 93.433L68.2042 94.7019L64.8204 97.0811L65.0319 98.5615L68.0456 146.516L67.8341 146.463V148.314L66.1422 148.842V148.102L64.3974 147.679V149.424L62.8113 149.953L61.9653 122.354L61.9125 121.561H62.0182L61.9653 120.08L60.2206 120.45L60.0091 113.471L58.8988 113.577L58.8459 112.52L58.6873 105.805H58.7402L58.6873 105.17L57.577 105.276L57.3655 104.536L57.1012 103.003L56.1495 101.734L56.0966 101.522L55.4093 101.575L53.9818 88.8332H53.876L53.7703 87.8815L53.8231 88.8332L53.5059 88.7803L53.3473 86.5597C53.2944 86.4011 53.2416 86.2953 53.1887 86.1896L53.1358 86.1367C53.0829 86.031 52.9772 85.9781 52.9243 85.9781L52.3427 72.866L52.1841 73.0246L52.5542 86.031C52.4485 86.0839 52.3956 86.1896 52.3427 86.2953L52.2899 86.3482C52.237 86.454 52.1841 86.6126 52.1313 86.7712L52.237 89.0447L51.6554 89.309L51.4439 101.945H51.1796L50.9681 103.69L49.9635 103.796V104.377L49.752 105.858L48.1659 105.964L48.2188 106.968H48.3774L48.4303 107.55L48.6417 114.634L47.9015 114.687L48.2716 121.243L45.9453 120.979L45.9982 122.459H46.3154L46.3683 122.882L47.7958 147.626H47.7429L47.7958 148.525L47.2142 148.631L47.1613 147.732L46.7912 147.679L46.8441 148.684H46.7384L46.3683 148.737L46.3154 147.891L45.9453 147.838L45.9982 148.789L45.6281 148.842L45.6809 150.217L43.3546 151.063L43.4075 151.327L41.557 151.909L41.5041 151.063L41.2926 151.116L41.2397 150.428L41.9799 150.323L41.8213 146.886L41.0811 146.992L40.7639 139.748L39.9708 139.854L39.7593 136.47L33.1504 137.686L33.0447 136.153L31.2999 135.995L30.9827 130.654H30.7712L31.0884 135.995L30.5597 135.942L30.7712 138.109H30.7183L29.6609 138.321L29.0793 127.958H28.8678L29.4494 138.374L26.33 138.955L26.1714 137.475L24.4266 138.268L24.5852 139.273L20.0912 140.118L20.2498 142.974L19.4567 143.079L19.9325 150.111H19.8797V150.428L19.0337 150.64L19.1395 152.49L20.144 152.385L20.2498 153.442L20.4084 155.716H20.3026L20.3555 156.244L19.0866 156.403L19.1923 158.201L20.4613 158.042L20.5141 158.888H20.567L20.6199 159.628L20.7256 161.426H20.6727L20.7256 162.06L19.5096 162.219L19.6153 164.016L20.8842 163.858L20.9371 164.175V164.598H20.99L21.1486 167.189L21.2015 167.665L20.0383 167.77L20.144 169.568L21.3072 169.462V169.674H21.2543L21.3072 170.361H21.4129L21.5716 172.952L20.6199 173.057L20.7256 174.855L21.6773 174.749V175.067H21.6244L21.6773 175.754H21.7302L21.9417 178.503L20.99 178.609L21.0957 180.407L22.0474 180.301L22.3118 184.16L21.3601 184.266L21.4658 186.064L22.3646 185.958L22.4175 186.434L22.629 189.818L21.7302 189.923L21.8359 191.774L22.7347 191.668L22.9991 195.528L22.206 195.581H22.3118V194.893L21.2543 195.105L21.2015 194.523L21.0957 192.831H21.1486L21.0957 192.355L19.8797 192.567L19.8268 191.615H19.7211L19.7739 192.567L18.7165 192.778L18.7694 193.254H18.8751L19.0337 195.528L17.8706 195.739L18.082 196.374H18.2407L18.2935 197.431L18.3993 199.599L16.2844 200.022L16.3373 200.286L16.6016 202.718L15.8086 202.983L15.8614 203.776L15.9672 203.723V203.829L16.2844 207.9L15.3856 208.217V207.847L14.8569 208.005V208.376L14.0109 208.693L13.9581 208.164L13.4293 208.323L13.4822 208.851L12.4777 209.169L12.5305 209.909L12.6891 209.856L13.2179 213.557L13.0064 213.61L13.0592 214.297L12.9535 214.35L12.8478 213.557L12.0018 213.927L11.9489 214.72L11.3674 214.932L11.103 211.231L11.2087 211.178L11.1559 210.702L9.2525 211.336L9.09389 210.067L8.67092 210.173L8.61805 211.548L8.30082 211.654L8.24795 211.072L7.56062 211.283L7.61349 211.865L6.76755 212.129L6.71467 210.173L6.08022 210.12L6.02735 209.063L1.53327 208.481L1.63901 209.856L0.951686 209.803L1.58614 218.421L0.528715 218.474L0.634457 219.954L0.105743 220.06L0.158614 220.536H0.264357L0.422972 221.858L0.528715 223.074H0.105743L0.158614 223.55H0.264357V223.867L0.3701 225.612H0.158614L0.211486 226.087L0.422972 226.035V226.193L0.528715 227.674H0.317229L0.3701 228.149H0.581586V228.414L0.687329 230.106H0.581586L0.634457 230.582H0.7402V230.793L0.845943 232.062L0.898815 232.961H0.845943L0.898815 233.542H0.951686L0.528715 233.648L0.581586 234.335L0.687329 235.499L0 235.657L0.158614 237.878L12.5305 235.604L12.6363 237.085L52.0255 233.384L75.0246 232.749L74.9717 231.692L122.82 229.471L122.662 224.396V224.343L127.896 224.29L127.949 225.77L135.933 225.559V227.938L172.361 229.26V225.612V224.078L166.016 223.867V222.968L188.751 221.911Z" fill="#A7CFD8"/>
<path d="M275.672 223.973L275.725 221.805L274.932 221.858L274.984 220.695V220.377V220.06L274.456 220.113H274.509V219.531H274.456L274.509 217.417V217.205H274.614V216.729H274.509V215.989V215.09V214.826H274.72V214.35L274.456 214.403V213.557V212.922V212.764H274.667V212.288L274.403 212.341L274.456 210.649V210.385H274.614V209.909L274.139 209.962L274.191 209.274L274.35 207.477H274.456V207.001L273.874 207.054V205.573L272.817 205.732L273.028 197.273L272.235 197.537L272.288 196.215L267.265 198.066V199.07L266.789 199.229H266.736V199.282L266.578 199.335L266.631 201.238L265.679 201.185L265.732 200.603H264.939L264.886 201.185H264.516L264.357 199.916H263.881L263.776 201.185L261.661 201.132V201.608H261.767L261.714 205.203L261.079 205.15L260.974 204.41L260.022 204.304L259.969 205.098H259.81V204.463H259.599L259.652 201.079H259.81V200.339L258.753 200.286V199.757H258.171V200.286L257.273 200.233V199.863H256.691V200.18L255.739 200.128L255.792 196.162V196.109V196.056H255.951V195.316H255.739L255.792 192.197L254.999 192.091L255.052 190.664L255.898 190.716V189.923L255.951 186.117V185.588L256.056 181.094L255.263 180.988V180.089L255.898 180.142V179.613H256.056L256.162 175.437V175.067L256.268 170.625L255.475 170.52L255.528 169.039L256.321 169.092V168.299L256.374 166.078L256.427 164.545V164.069L256.532 159.311L255.739 159.205V157.989L256.532 158.042V157.196L256.585 153.812V153.178V152.861L256.691 148.261L255.898 148.155V147.203L256.691 147.256V146.622L256.797 142.339V141.493L256.902 137.634L256.109 137.528L256.162 135.836L256.955 135.889V135.043L257.061 130.919L256.321 130.866L256.374 129.227H256.532V128.54L256.797 122.248H256.955V121.138L251.245 120.503V117.384H251.404V116.696L249.183 116.591V117.278H249.342V120.239L248.707 120.186L246.434 119.922L245.852 119.869V117.595H245.958V117.172L244.478 117.119V117.542H244.53V119.71L240.671 119.287V117.49H240.777V116.538L238.979 116.485V117.437H239.19V119.023V119.129L234.749 118.653V119.763H234.961V120.133V120.768L235.014 128.751V129.438V130.232H234.855V131.606L233.427 131.183V133.668L233.057 133.774L231.366 134.356V133.351L229.251 132.769L229.304 135.149L226.924 135.995L226.871 134.778L224.757 134.197L224.809 136.788L220.368 138.374L220.738 148.419L221.108 148.366V148.789L221.161 149.53L220.738 149.582L220.897 154.288L221.32 154.235L221.373 155.927V155.98L220.95 156.033L221.108 160.263L220.21 160.527L220.157 159.364L219.892 159.417V158.676L219.575 158.624L219.628 159.469H219.522L219.099 159.522L219.046 158.676L218.729 158.624L218.782 159.575L218.359 159.628L218.306 158.835L217.989 158.782L218.042 159.681L217.725 159.734L217.778 161.32L215.98 161.849L214.129 162.377L214.077 161.584L213.759 161.637L213.706 160.897L213.336 160.844L213.389 161.69H213.283L212.86 161.743L212.808 160.897L212.596 160.844L212.543 158.201L212.385 146.41V145.141V143.449L212.332 141.387V140.118L212.279 137.263L212.226 135.096L212.279 135.043C212.332 134.99 212.438 134.884 212.49 134.831C212.543 134.778 212.649 134.673 212.702 134.62C212.755 134.567 212.808 134.514 212.86 134.461C212.913 134.408 212.966 134.356 213.019 134.25C213.072 134.197 213.125 134.144 213.178 134.091C213.231 134.038 213.283 133.985 213.336 133.933C213.389 133.88 213.389 133.827 213.442 133.827C213.495 133.774 213.495 133.721 213.548 133.668C213.548 133.615 213.601 133.615 213.601 133.562C213.601 133.51 213.654 133.457 213.654 133.457C213.654 133.404 213.706 133.404 213.706 133.351C213.706 133.298 213.706 133.298 213.706 133.245V133.192C213.706 133.139 213.706 133.139 213.654 133.087C213.601 133.034 213.601 133.034 213.548 133.034C213.548 133.034 213.548 133.034 213.495 133.034C213.442 133.034 213.389 133.034 213.389 133.034H213.336C213.231 133.034 213.072 133.087 212.86 133.139C212.86 133.139 212.86 133.139 212.808 133.139C212.702 133.192 212.649 133.192 212.543 133.245C212.385 133.351 212.173 133.404 212.015 133.51C211.962 133.562 211.909 133.562 211.803 133.615H211.75H211.539V132.875C211.592 132.822 211.644 132.769 211.697 132.716C211.75 132.664 211.856 132.558 211.909 132.505C212.015 132.399 212.067 132.294 212.173 132.241C212.226 132.188 212.279 132.135 212.332 132.082C212.438 131.923 212.543 131.818 212.649 131.712C212.702 131.659 212.702 131.659 212.702 131.606C212.755 131.5 212.808 131.448 212.86 131.395C212.86 131.342 212.913 131.342 212.913 131.289C212.966 131.236 212.966 131.183 213.019 131.13C213.019 131.077 213.019 131.077 213.072 131.025C213.072 130.972 213.125 130.919 213.125 130.866V130.813C213.125 130.76 213.125 130.707 213.072 130.707C213.019 130.655 213.019 130.654 212.966 130.654H212.913C212.86 130.654 212.86 130.654 212.808 130.654C212.755 130.654 212.755 130.654 212.702 130.654C212.649 130.654 212.596 130.655 212.596 130.707C212.543 130.707 212.49 130.76 212.438 130.76C212.385 130.76 212.332 130.813 212.279 130.813C212.226 130.813 212.173 130.866 212.12 130.866C212.067 130.866 212.015 130.919 211.962 130.919C211.909 130.919 211.856 130.972 211.803 130.972C211.75 131.025 211.697 131.025 211.592 131.077C211.539 131.077 211.486 131.13 211.433 131.13C211.38 131.183 211.274 131.236 211.221 131.236C211.169 131.236 211.169 131.289 211.116 131.289C211.063 131.342 211.01 131.342 210.957 131.395L210.799 126.689V126.108C210.799 126.055 210.799 126.055 210.799 126.002C210.799 125.632 210.799 125.209 210.851 124.786C210.851 124.733 210.851 124.68 210.851 124.627C210.851 124.204 210.851 123.781 210.851 123.358C210.851 123.305 210.851 123.305 210.851 123.252V123.2C210.851 123.147 210.851 123.094 210.851 122.988C210.851 122.407 210.851 121.825 210.851 121.243C210.851 121.191 210.851 121.085 210.851 121.032C210.851 120.397 210.799 119.763 210.799 119.076C210.799 119.023 210.799 118.97 210.799 118.917C210.746 118.283 210.746 117.648 210.64 117.014C210.64 116.961 210.64 116.908 210.64 116.855C210.587 116.221 210.534 115.639 210.428 115.057C210.428 115.005 210.428 115.005 210.428 114.952C210.428 114.899 210.428 114.846 210.428 114.793C210.376 114.264 210.376 113.736 210.323 113.26V113.207C210.323 112.202 210.27 111.198 210.164 110.246V110.193C210.111 109.717 210.058 109.294 209.953 108.871C209.953 108.871 209.953 108.819 209.953 108.766C209.9 108.343 209.794 107.973 209.688 107.603V107.55V107.497C209.635 107.18 209.582 106.915 209.53 106.651C209.53 106.545 209.477 106.492 209.477 106.387C209.424 106.122 209.371 105.858 209.318 105.593C209.318 105.541 209.265 105.435 209.265 105.382C209.212 105.118 209.107 104.853 209.054 104.642C209.054 104.589 209.001 104.536 209.001 104.536C208.895 104.272 208.789 104.007 208.684 103.796C208.631 103.373 208.578 102.95 208.525 102.527C208.525 102.474 208.525 102.368 208.472 102.315C208.419 101.892 208.366 101.469 208.314 101.099C208.314 101.046 208.314 100.941 208.314 100.888C208.261 100.412 208.208 99.9891 208.155 99.5132C208.155 99.4603 208.155 99.3546 208.155 99.3017C208.102 98.8788 208.049 98.4558 208.049 98.0328C208.049 97.9799 208.049 97.8742 208.049 97.8213C207.996 97.3455 207.943 96.8696 207.943 96.3938C207.943 96.3409 207.943 96.2881 207.943 96.2352C207.891 95.8122 207.891 95.3364 207.838 94.9134C207.838 94.8077 207.838 94.7548 207.838 94.649C207.785 94.1203 207.785 93.6445 207.732 93.1158C207.732 93.0629 207.732 93.0629 207.732 93.01C207.732 92.5342 207.679 92.0055 207.679 91.4768C207.679 91.371 207.679 91.2653 207.679 91.1595C207.679 90.5779 207.626 90.0492 207.626 89.4676C207.626 88.8861 207.626 88.3045 207.573 87.7229C207.573 87.5643 207.573 87.4585 207.573 87.2999C207.573 86.7183 207.573 86.0839 207.573 85.4494L207.256 85.5552C207.256 86.1896 207.256 86.8241 207.256 87.4585C207.256 87.6171 207.256 87.7229 207.256 87.8815C207.256 88.4631 207.256 89.0975 207.256 89.6791C207.256 89.732 207.256 89.7849 207.256 89.8377C207.256 90.3665 207.256 90.8952 207.203 91.4239C207.203 91.5296 207.203 91.6354 207.203 91.794C207.203 92.3227 207.15 92.8514 207.15 93.3801C207.15 93.4859 207.15 93.5387 207.15 93.6445C207.15 94.0675 207.098 94.5433 207.098 94.9663C207.098 95.072 207.098 95.1778 207.098 95.2835C207.045 95.7593 207.045 96.2352 206.992 96.711C206.992 96.8168 206.992 96.9225 206.992 97.0283C206.939 97.3984 206.939 97.8213 206.886 98.1914C206.886 98.2972 206.886 98.4029 206.886 98.4558C206.833 98.8788 206.833 99.3546 206.78 99.7776C206.78 99.8833 206.78 100.042 206.727 100.148C206.675 100.518 206.675 100.888 206.622 101.258C206.622 101.364 206.622 101.417 206.622 101.522C206.569 101.945 206.516 102.368 206.463 102.791C206.463 102.95 206.41 103.056 206.41 103.214C206.41 103.32 206.357 103.426 206.357 103.531C206.357 103.531 206.304 103.584 206.304 103.637C206.252 103.69 206.252 103.743 206.199 103.796C206.146 103.902 206.093 104.007 206.04 104.113C206.04 104.166 205.987 104.219 205.987 104.272C205.934 104.43 205.881 104.589 205.829 104.8C205.829 104.853 205.776 104.959 205.776 105.012C205.723 105.17 205.67 105.276 205.67 105.435C205.67 105.488 205.617 105.593 205.617 105.646C205.564 105.805 205.511 105.964 205.511 106.175C205.511 106.228 205.511 106.281 205.458 106.334C205.406 106.598 205.353 106.809 205.3 107.074C205.3 107.127 205.3 107.18 205.247 107.232C205.247 107.391 205.194 107.497 205.194 107.655C205.141 107.92 205.036 108.184 204.983 108.448C204.93 108.713 204.877 109.03 204.824 109.294V109.347C204.718 109.929 204.613 110.563 204.56 111.198C204.56 111.251 204.56 111.251 204.56 111.304C204.507 111.938 204.454 112.625 204.454 113.313V113.366C204.454 114.053 204.401 114.793 204.454 115.48C204.348 116.273 204.242 117.119 204.19 117.965C204.137 118.388 204.137 118.811 204.084 119.234V119.287C204.084 119.71 204.031 120.133 204.031 120.556C204.031 120.609 204.031 120.662 204.031 120.715C204.031 121.085 203.978 121.455 203.978 121.772C203.978 121.878 203.978 121.931 203.978 122.036C203.978 122.407 203.978 122.83 203.925 123.2C203.925 123.305 203.925 123.358 203.925 123.464C203.925 123.781 203.925 124.098 203.925 124.416C203.925 124.521 203.925 124.627 203.925 124.786C203.925 125.156 203.925 125.526 203.925 125.896C203.925 126.425 203.925 126.901 203.925 127.376C203.925 127.429 203.925 127.429 203.925 127.482C203.925 127.958 203.925 128.434 203.925 128.857C203.872 129.861 203.872 130.813 203.872 131.765V132.188C203.872 132.188 203.819 132.188 203.819 132.135C203.767 132.082 203.661 132.082 203.608 132.029C203.555 132.029 203.502 131.976 203.449 131.976C203.396 131.923 203.344 131.923 203.238 131.871C203.185 131.818 203.132 131.818 203.079 131.818C203.026 131.818 202.974 131.765 202.921 131.765C202.868 131.765 202.815 131.712 202.762 131.712C202.709 131.712 202.656 131.659 202.603 131.659C202.551 131.659 202.498 131.606 202.445 131.606C202.392 131.606 202.339 131.606 202.286 131.553C202.233 131.553 202.18 131.5 202.128 131.5C202.075 131.5 202.022 131.5 202.022 131.5C201.969 131.5 201.916 131.5 201.916 131.5C201.863 131.5 201.863 131.5 201.81 131.5H201.757C201.705 131.5 201.652 131.553 201.652 131.606C201.652 131.659 201.599 131.659 201.652 131.712V131.765C201.652 131.818 201.652 131.818 201.705 131.871C201.705 131.923 201.757 131.923 201.757 131.976C201.757 132.029 201.81 132.082 201.863 132.135C201.863 132.188 201.916 132.188 201.916 132.241C201.969 132.294 202.022 132.346 202.075 132.399C202.128 132.452 202.128 132.452 202.18 132.505C202.233 132.611 202.339 132.664 202.445 132.769C202.498 132.822 202.498 132.822 202.551 132.875C202.656 132.981 202.815 133.139 202.974 133.245C203.026 133.298 203.079 133.351 203.132 133.404C203.185 133.457 203.291 133.562 203.397 133.615V134.091H203.026C202.974 134.038 202.868 133.985 202.815 133.933C202.762 133.88 202.656 133.827 202.603 133.827C202.603 133.827 202.551 133.827 202.551 133.774C202.498 133.721 202.445 133.721 202.392 133.668C202.392 133.668 202.339 133.668 202.339 133.615C202.286 133.562 202.233 133.562 202.128 133.51C202.128 133.51 202.128 133.51 202.075 133.51C202.022 133.457 201.916 133.457 201.863 133.457C201.863 133.457 201.863 133.457 201.81 133.457C201.757 133.457 201.705 133.457 201.652 133.404H201.599C201.546 133.404 201.546 133.404 201.493 133.404C201.493 133.404 201.493 133.404 201.44 133.404C201.387 133.404 201.387 133.457 201.335 133.457C201.335 133.457 201.335 133.51 201.335 133.562V133.615C201.335 133.668 201.335 133.668 201.335 133.721C201.335 133.721 201.335 133.774 201.387 133.827C201.387 133.88 201.44 133.88 201.44 133.933C201.44 133.985 201.493 133.985 201.493 134.038C201.493 134.091 201.546 134.144 201.599 134.197C201.652 134.25 201.652 134.303 201.705 134.356C201.757 134.408 201.757 134.461 201.81 134.514C201.863 134.567 201.916 134.62 201.916 134.673C201.969 134.726 201.969 134.778 202.022 134.831C202.128 134.99 202.286 135.149 202.445 135.36L202.498 135.413V137.369V137.686V138.004V138.532V138.955V139.008V140.383V140.912V141.969V142.709V143.079V143.132H202.445V143.661H202.498V145.511V146.04V148.049V148.578V148.789V150.428V150.957V151.962V153.072V153.601V157.302V158.042V158.571V163.118V163.276V166.977L202.18 166.924L201.705 166.871L200.647 165.92L201.176 167.77V168.246H201.335V168.299V168.775V168.828V170.995V179.085L200.277 179.138V178.45L199.167 178.503L199.273 177.816L200.224 177.763L200.171 175.754H199.537L199.643 175.067H200.118L200.066 173.057H199.907L199.696 172.423H200.066L200.013 170.414H198.955V169.727H200.013L199.96 167.665H198.902V166.977H199.96L199.907 164.915L198.902 164.862V164.175L199.907 164.228L199.325 161.743L198.374 161.69V161.161L198.638 161.056V161.003L199.325 161.056L199.273 158.941L198.638 158.888L198.585 154.024L195.413 154.975L195.36 153.759L195.096 153.812V153.072L194.778 153.019L194.831 153.865L194.303 153.918L194.25 153.072L193.933 153.019L193.985 153.971H193.933L193.51 154.024L193.457 153.231L193.139 153.178L193.192 154.077L192.875 154.129L192.928 155.716L192.505 155.821L189.227 156.773L189.174 155.98L188.857 156.033L188.804 155.293H188.698L187.641 108.026L185.42 106.439L185.473 105.699C185.209 105.382 184.944 105.118 184.68 104.8C184.574 104.695 184.469 104.589 184.416 104.536C184.363 104.483 184.257 104.377 184.204 104.325L184.31 102.897C184.098 102.58 183.94 102.315 183.728 102.051C183.675 101.998 183.623 101.945 183.57 101.84C183.517 101.787 183.464 101.734 183.411 101.681C183.305 101.575 183.2 101.469 183.147 101.364C183.041 101.258 182.935 101.099 182.777 100.994C182.671 100.888 182.512 100.782 182.407 100.676C182.248 100.518 182.089 100.412 181.931 100.306C181.772 100.201 181.666 100.148 181.508 100.042C181.349 99.9362 181.19 99.8304 181.032 99.7776C180.873 99.6718 180.715 99.619 180.556 99.5661C180.397 99.5132 180.239 99.4603 180.08 99.4075C179.922 99.3546 179.763 99.3017 179.604 99.2489C179.446 99.196 179.287 99.196 179.181 99.1431C179.023 99.0902 178.864 99.0902 178.653 99.0374C178.494 99.0374 178.388 98.9845 178.23 98.9845C178.071 98.9845 177.86 98.9845 177.701 98.9845C177.648 98.9845 177.648 98.9845 177.595 98.9845L177.542 97.2926C177.595 97.2926 177.595 97.2397 177.648 97.2397C177.701 97.2397 177.754 97.1869 177.807 97.134C177.86 97.0811 177.86 97.0811 177.912 97.0283C177.965 96.9754 178.018 96.9225 178.018 96.8696C178.071 96.8168 178.071 96.711 178.124 96.6582C178.124 96.6053 178.177 96.5524 178.177 96.4995C178.23 96.3409 178.23 96.2352 178.23 96.0766C178.23 95.918 178.177 95.7593 178.177 95.6536C178.177 95.6007 178.124 95.5479 178.124 95.495C178.071 95.4421 178.071 95.3364 178.018 95.2835C177.965 95.2306 177.912 95.1778 177.912 95.1249C177.86 95.072 177.86 95.072 177.807 95.0191C177.754 94.9663 177.701 94.9663 177.648 94.9663C177.595 94.9663 177.595 94.9134 177.542 94.9134L177.437 92.0055C177.437 92.0055 177.437 92.0055 177.489 91.9526C177.542 91.8997 177.595 91.8469 177.648 91.794L177.701 91.7411C177.754 91.6882 177.754 91.6354 177.754 91.5825C177.754 91.5296 177.754 91.5296 177.754 91.4768C177.754 91.371 177.807 91.2653 177.807 91.1595C177.807 91.0538 177.807 90.948 177.754 90.8423C177.754 90.7894 177.754 90.7894 177.701 90.7366C177.701 90.6837 177.648 90.6308 177.595 90.5779L177.542 90.5251C177.489 90.4722 177.437 90.4193 177.384 90.3665C177.384 90.3665 177.384 90.3665 177.331 90.3136L176.591 71.0155H176.221L176.855 90.4193C176.855 90.4193 176.855 90.4193 176.802 90.4193C176.749 90.4193 176.749 90.4722 176.696 90.4722C176.644 90.5251 176.644 90.5251 176.591 90.5779C176.591 90.6308 176.538 90.6308 176.538 90.6837C176.485 90.7366 176.485 90.7894 176.485 90.8423C176.485 90.8952 176.432 90.8952 176.432 90.948C176.432 91.0538 176.379 91.1595 176.379 91.2653C176.379 91.371 176.379 91.4768 176.432 91.5825C176.432 91.6354 176.485 91.6354 176.485 91.6882C176.485 91.7411 176.538 91.794 176.591 91.8469C176.591 91.8997 176.644 91.8997 176.644 91.9526C176.696 92.0055 176.696 92.0055 176.749 92.0583C176.802 92.0583 176.802 92.1112 176.855 92.1112C176.855 92.1112 176.855 92.1112 176.908 92.1112L177.014 95.072C176.961 95.072 176.961 95.1249 176.908 95.1249C176.855 95.1778 176.802 95.2306 176.749 95.2835C176.696 95.3364 176.696 95.3364 176.696 95.3892C176.644 95.4421 176.644 95.5479 176.591 95.6007C176.591 95.6536 176.538 95.6536 176.538 95.7065C176.485 95.8122 176.485 95.9708 176.485 96.1294C176.485 96.2881 176.538 96.3938 176.538 96.5524C176.538 96.6053 176.591 96.6053 176.591 96.6582C176.644 96.711 176.644 96.8168 176.696 96.8696C176.696 96.9225 176.749 96.9225 176.749 96.9754C176.802 97.0283 176.855 97.0811 176.908 97.134C176.961 97.134 176.961 97.1869 177.014 97.1869L177.067 98.9316C177.014 98.9316 177.014 98.9316 176.961 98.9316C176.749 98.9316 176.485 98.9845 176.273 99.0374C176.168 99.0374 176.062 99.0902 175.956 99.0902C175.745 99.1431 175.48 99.196 175.269 99.2489C175.163 99.3017 175.057 99.3017 174.952 99.3546C174.74 99.4075 174.476 99.5132 174.264 99.619C174.159 99.6718 174.053 99.6718 173.947 99.7247C173.736 99.8304 173.524 99.9362 173.313 100.042C173.207 100.095 173.101 100.148 173.048 100.201C172.837 100.306 172.625 100.465 172.467 100.624C172.361 100.676 172.255 100.729 172.202 100.835C171.991 100.994 171.832 101.152 171.674 101.311C171.568 101.364 171.515 101.469 171.409 101.522C171.251 101.681 171.039 101.892 170.881 102.051C170.828 102.104 170.722 102.21 170.669 102.263C170.458 102.527 170.193 102.791 170.035 103.108L170.246 104.325C170.14 104.377 170.035 104.483 169.929 104.589C169.823 104.695 169.717 104.747 169.612 104.853C169.347 105.065 169.136 105.276 168.924 105.488L169.136 106.651L166.175 108.819L166.334 110.193L169.083 154.341L168.924 154.288V155.98L167.444 156.509V155.821L165.911 155.398V157.037L164.483 157.513L163.69 132.135L163.637 131.395H163.743L163.69 130.02L162.157 130.337L161.945 123.94L160.994 124.046L160.941 123.094L160.676 116.802H160.729L160.676 116.221L159.725 116.273L159.566 115.586L159.302 114.159L158.456 112.995L158.403 112.784L157.768 112.837L156.5 101.099H156.394L156.288 100.201L156.341 101.046L156.024 100.994L155.865 98.9845C155.812 98.8259 155.759 98.773 155.706 98.6673C155.706 98.6673 155.706 98.6144 155.654 98.6144C155.601 98.5615 155.548 98.5087 155.442 98.4558L154.861 86.3482L154.913 86.6655L155.283 98.6673C155.231 98.7201 155.125 98.773 155.072 98.8788C155.072 98.8788 155.072 98.9316 155.019 98.9316C154.966 99.0374 154.913 99.1431 154.861 99.3017L154.966 101.364L154.49 101.575L154.332 113.207H154.12L153.909 114.793L153.01 114.899V115.428L152.799 116.802L151.424 116.908L151.477 117.86H151.635V118.388L151.794 124.892L151.107 124.944L151.424 130.972L149.362 130.707L149.415 132.082H149.679L149.732 132.505L151.054 155.293H151.001L151.054 156.139L150.578 156.244L150.525 155.398L150.208 155.345L150.261 156.297H150.155L149.838 156.35L149.785 155.557L149.468 155.504L149.52 156.403L149.203 156.456L149.256 157.725L147.194 158.518L147.247 158.782L145.608 159.311L145.555 158.518L145.397 158.571L145.344 157.936L145.978 157.83L145.872 154.658L145.185 154.764L144.868 148.102L144.18 148.208L144.022 145.088L138.206 146.199L138.153 144.824L136.62 144.665L136.355 139.748H136.197L136.461 144.665L135.985 144.613L136.144 146.622H136.091L135.139 146.78L134.611 137.211H134.452L134.981 146.78L132.232 147.309L132.126 145.934L130.593 146.675L130.698 147.626L126.733 148.366L126.892 151.01L126.204 151.116L126.627 157.566H126.574V157.883L125.675 157.989L125.781 159.681L126.68 159.575L126.733 160.58L126.892 162.695H126.786L126.839 163.17L125.728 163.276L125.834 164.968L126.944 164.862L126.997 165.655H127.05L127.103 166.343L127.209 168.035H127.156L127.209 168.616L126.098 168.775L126.204 170.467L127.314 170.308V170.625V170.995H127.367L127.526 173.375L127.579 173.798L126.574 173.903L126.68 175.595L127.685 175.49V175.648H127.632L127.685 176.283H127.737L127.896 178.662L127.05 178.768L127.156 180.459L128.002 180.354V180.671H127.949L128.002 181.305H128.055L128.213 183.843L127.367 183.949L127.473 185.641L128.319 185.588L128.583 189.13L127.949 189.236L128.055 190.928L128.848 190.875L128.901 191.298L129.112 194.417L128.319 194.47L128.425 196.162L129.218 196.109L129.482 199.652L128.795 199.705H128.901V199.07L128.002 199.229L127.949 198.7L127.843 197.167H127.896L127.843 196.691L126.786 196.902L126.733 196.004H126.68L126.733 196.902L125.781 197.061L125.834 197.537H125.94L126.098 199.599L125.094 199.81L125.252 200.445H125.358L125.411 201.449L125.517 203.458L123.666 203.829L123.719 204.04L123.984 206.261L123.296 206.472L123.349 207.212L123.455 207.16V207.265L123.719 211.019L122.926 211.283V210.966L122.45 211.125V211.495L121.71 211.759L121.657 211.283L121.181 211.442L121.234 211.971L120.388 212.288L120.441 212.975L120.6 212.922L120.864 216.148L120.706 216.201L120.758 216.835L120.653 216.888L120.547 216.148L119.807 216.465L119.754 217.205L119.225 217.417L118.961 213.98L119.067 213.927L119.014 213.504L117.322 214.086L117.216 212.922L116.846 213.028L116.793 214.297L116.529 214.403L116.476 213.874L115.841 214.086L115.894 214.667L115.154 214.932L115.101 213.134L114.572 213.081L114.52 212.129L110.554 211.548L110.66 212.817L110.026 212.764L110.607 220.695L109.761 220.8L109.867 222.175L109.391 222.281L109.444 222.704H109.55L109.708 223.92L109.814 225.03L109.444 225.083L109.497 225.506H109.603V225.77L109.708 227.356H109.497L109.55 227.779L109.708 227.726V227.885L109.814 229.26H109.603L109.655 229.683H109.867V229.947L109.973 231.533H109.867L109.92 231.956H110.026V232.168L110.131 233.331L110.184 234.124H110.131L110.184 234.653H110.237L109.867 234.706L109.92 235.34L109.973 236.45L109.391 236.556L109.55 238.618L120.494 236.556L120.547 237.931L155.336 234.547L175.639 233.965L175.586 233.014L217.83 231.057L217.672 226.352V226.299H222.272L222.324 227.674L229.356 227.515V229.683L261.502 230.952V227.568V226.14L255.898 225.929V225.083L275.672 223.973Z" fill="#A7CFD8"/>
<path d="M216.403 223.285L216.297 221.911L217.037 221.964L216.984 221.223V221.012V220.8H217.46H217.407L217.355 220.43H217.407L217.302 219.108V218.95H217.196L217.143 218.633H217.249L217.196 218.157L217.143 217.575V217.417H216.932V217.099H217.143L217.09 216.571L217.037 216.148V216.042H216.826L216.773 215.725H216.984L216.879 214.667V214.509H216.72L216.667 214.191L217.143 214.244L217.09 213.768L216.879 212.605H216.773V212.341L217.302 212.394L217.249 211.442L218.253 211.548L217.725 206.102L218.465 206.261L218.359 205.415L223.17 206.631V207.265L223.646 207.371H223.699V207.424L223.858 207.477L223.911 208.693H224.809L224.757 208.323H225.497L225.55 208.693H225.92L226.025 207.9H226.501L226.607 208.693L228.616 208.64V208.904H228.51L228.722 211.178H229.356L229.409 210.702L230.308 210.649L230.414 211.178H230.572L230.52 210.755H230.731L230.52 208.587H230.361L230.308 208.111L231.313 208.058V207.741H231.894V208.058L232.74 208.005V207.794H233.322V208.005H234.221L234.009 205.468V205.415H233.85L233.798 204.939H234.009L233.85 202.93L234.591 202.877L234.538 201.978H233.745L233.692 201.449L233.48 199.017V198.647L233.216 195.739L233.956 195.686L233.903 195.105H233.269V194.735H233.11L232.899 192.038V191.774L232.634 188.919L233.375 188.866L233.269 187.914H232.529L232.476 187.386L232.37 185.958L232.264 185.006V184.742L232 181.675L232.74 181.623L232.687 180.83H231.947L231.894 180.301L231.683 178.133L231.63 177.71V177.499L231.365 174.538L232.106 174.485V173.903H231.365V173.48L231.154 170.731L231.101 170.202L230.89 167.717L231.63 167.665L231.524 166.607H230.784L230.731 166.078L230.52 163.435L231.207 163.382L231.101 162.325H230.943L230.89 161.902L230.414 157.83H230.255L230.202 157.143L235.542 156.773L235.437 154.764H235.278V154.341L237.393 154.288L237.446 154.711H237.287L237.393 156.614L237.974 156.562L240.142 156.403L240.671 156.35L240.565 154.87H240.459V154.605L241.887 154.552V154.817H241.834L241.94 156.244L245.588 155.98L245.535 154.817H245.429L245.376 154.235L247.068 154.182L247.121 154.764H246.91L246.963 155.768V155.821L251.139 155.557L251.192 156.244H251.034V156.456V156.879L251.245 162.007L251.298 162.483V163.012H251.457L251.51 163.911L252.884 163.646L252.937 165.232L253.254 165.338L254.893 165.761V165.127L256.902 164.757L256.955 166.29L259.229 166.871V166.078L261.185 165.708L261.238 167.347L265.52 168.405L265.573 174.855H265.256V175.119V175.595L265.626 175.648V178.662L265.256 178.609V179.719L265.626 179.772V182.521L266.472 182.68V181.94H266.736V181.464L267.054 181.411V181.94H267.159L267.53 181.993V181.464L267.847 181.411V181.993L268.27 182.046V181.57L268.587 181.517V182.098L268.904 182.151V183.156L270.649 183.526L272.447 183.896V183.367H272.711V182.892L273.028 182.839V183.367H273.134L273.557 183.42V182.892H273.768L273.716 181.2L273.451 173.639L273.398 172.846L273.345 171.736L273.293 170.414L273.24 169.621L273.187 167.77L273.134 166.396C273.134 166.396 273.081 166.396 273.081 166.343C273.028 166.29 272.922 166.237 272.87 166.184C272.817 166.131 272.711 166.078 272.658 166.078C272.605 166.026 272.552 166.026 272.499 165.973C272.447 165.92 272.394 165.867 272.341 165.867C272.288 165.814 272.235 165.814 272.182 165.761C272.129 165.708 272.076 165.708 272.024 165.655C271.971 165.603 271.971 165.603 271.918 165.55C271.865 165.497 271.865 165.497 271.812 165.444L271.759 165.391L271.706 165.338L271.654 165.285V165.232V165.18V165.127C271.706 165.127 271.706 165.074 271.759 165.074C271.759 165.074 271.759 165.074 271.812 165.074C271.865 165.074 271.865 165.074 271.918 165.074C271.918 165.074 271.918 165.074 271.971 165.074C272.077 165.074 272.235 165.127 272.394 165.127C272.394 165.127 272.394 165.127 272.447 165.127C272.499 165.127 272.605 165.18 272.658 165.18C272.817 165.232 273.028 165.285 273.187 165.338C273.24 165.338 273.293 165.391 273.398 165.391H273.451H273.663L273.61 164.915C273.557 164.862 273.504 164.862 273.451 164.809C273.398 164.757 273.293 164.704 273.24 164.651C273.134 164.598 273.081 164.545 272.975 164.492C272.922 164.439 272.87 164.439 272.817 164.387C272.711 164.281 272.605 164.228 272.499 164.122L272.447 164.069C272.394 164.016 272.341 163.964 272.288 163.911L272.235 163.858C272.182 163.805 272.182 163.805 272.129 163.752C272.129 163.752 272.129 163.699 272.076 163.699C272.076 163.646 272.024 163.646 272.024 163.593C272.024 163.593 272.024 163.593 272.024 163.541C272.024 163.488 272.024 163.488 272.076 163.435C272.076 163.435 272.129 163.382 272.182 163.382H272.235C272.288 163.382 272.288 163.382 272.341 163.382C272.394 163.382 272.394 163.382 272.447 163.382C272.499 163.382 272.552 163.382 272.552 163.382C272.605 163.382 272.658 163.382 272.658 163.435C272.711 163.435 272.764 163.435 272.817 163.488C272.87 163.488 272.922 163.541 272.975 163.541C273.028 163.541 273.081 163.593 273.134 163.593C273.187 163.593 273.24 163.646 273.293 163.646C273.345 163.646 273.398 163.699 273.504 163.699C273.557 163.699 273.61 163.752 273.663 163.752C273.716 163.805 273.821 163.805 273.874 163.858C273.927 163.858 273.927 163.911 273.98 163.911C274.033 163.911 274.086 163.964 274.138 163.964L274.086 160.95V160.58V160.527C274.086 160.263 274.033 159.998 274.033 159.734C274.033 159.681 274.033 159.681 274.033 159.628C274.033 159.364 273.98 159.099 273.98 158.835V158.782C273.98 158.729 273.98 158.729 273.98 158.676C273.98 158.306 273.927 157.936 273.927 157.566C273.927 157.513 273.927 157.46 273.927 157.46C273.927 157.037 273.927 156.614 273.927 156.244C273.927 156.191 273.927 156.191 273.927 156.139C273.927 155.716 273.98 155.293 273.98 154.923C273.98 154.87 273.98 154.87 273.98 154.817C274.033 154.394 280.324 154.87 280.43 155.451C280.483 155.716 280.536 155.98 280.589 156.244C280.642 156.509 280.642 156.773 280.695 157.037C280.695 157.09 280.695 157.09 280.695 157.143C280.747 157.355 280.747 157.619 280.8 157.83C280.8 157.883 280.8 157.936 280.8 157.989C280.8 158.253 280.853 158.518 280.853 158.729C280.853 158.782 280.853 158.835 280.853 158.888C280.853 159.099 280.906 159.311 280.906 159.469C280.906 159.522 280.906 159.628 280.906 159.681C280.906 159.892 280.959 160.157 280.959 160.368C280.959 160.685 281.012 161.003 281.012 161.32V161.373C281.012 161.69 281.012 161.954 281.012 162.272C281.065 162.906 281.118 163.541 281.17 164.122V164.387H281.223C281.276 164.387 281.382 164.334 281.435 164.334C281.488 164.334 281.54 164.281 281.593 164.281C281.646 164.281 281.699 164.228 281.752 164.228C281.805 164.228 281.858 164.175 281.911 164.175C281.963 164.175 282.016 164.122 282.069 164.122C282.122 164.122 282.175 164.069 282.228 164.069C282.281 164.069 282.334 164.069 282.386 164.016C282.439 164.016 282.492 164.016 282.545 163.964C282.598 163.964 282.651 163.964 282.651 163.964C282.704 163.964 282.757 163.964 282.809 163.964C282.862 163.964 282.862 163.964 282.915 163.964C282.968 163.964 282.968 163.964 283.021 163.964C283.074 163.964 283.074 163.964 283.127 163.964H283.179C283.232 163.964 283.285 164.016 283.285 164.016C283.285 164.016 283.338 164.069 283.338 164.122C283.338 164.122 283.338 164.122 283.338 164.175C283.338 164.175 283.338 164.228 283.285 164.281C283.285 164.281 283.285 164.334 283.232 164.334C283.232 164.387 283.179 164.387 283.179 164.439L283.127 164.492C283.074 164.545 283.021 164.545 283.021 164.598C282.968 164.651 282.968 164.651 282.915 164.651C282.862 164.704 282.757 164.757 282.704 164.809L282.651 164.862C282.545 164.915 282.439 165.021 282.281 165.127C282.228 165.18 282.175 165.18 282.122 165.232C282.069 165.285 281.963 165.338 281.911 165.391V165.708H282.281C282.334 165.655 282.386 165.655 282.492 165.603C282.545 165.55 282.598 165.55 282.704 165.497H282.757C282.809 165.497 282.862 165.444 282.915 165.444H282.968C283.021 165.444 283.074 165.391 283.127 165.391C283.127 165.391 283.127 165.391 283.179 165.391C283.232 165.391 283.285 165.338 283.391 165.338C283.391 165.338 283.391 165.338 283.444 165.338C283.497 165.338 283.55 165.338 283.55 165.338H283.602C283.655 165.338 283.655 165.338 283.708 165.338C283.708 165.338 283.708 165.338 283.761 165.338C283.814 165.338 283.814 165.338 283.867 165.391C283.867 165.391 283.867 165.444 283.92 165.444C283.92 165.444 283.92 165.444 283.92 165.497V165.55V165.603L283.867 165.655L283.814 165.708C283.814 165.708 283.761 165.761 283.761 165.814C283.761 165.867 283.708 165.867 283.655 165.92C283.602 165.973 283.602 165.973 283.55 166.026C283.497 166.078 283.497 166.078 283.444 166.131C283.391 166.184 283.391 166.184 283.338 166.237C283.232 166.343 283.074 166.448 282.915 166.554L282.862 166.607L282.915 167.876V168.088V168.299V168.669V168.933L282.968 169.832V170.202L283.021 170.89L283.074 171.366V171.577V171.63H283.127V172H283.074L283.127 173.163V173.533L283.232 174.855V175.225V175.384L283.285 176.441V176.811L283.338 177.446L283.391 178.133V178.503L283.55 180.882V181.358V181.728L283.708 184.636V184.742L283.867 187.121H284.184L284.607 187.068L285.559 186.487L285.136 187.65V187.967H284.977V188.284V188.337L285.083 189.712L285.4 194.893L286.405 194.946V194.47L287.409 194.523L287.303 194.1L286.405 194.047V192.778H286.986L286.88 192.355H286.405V191.087H286.563L286.722 190.664H286.352V189.342H287.356V188.919H286.352V187.597H287.356V187.174H286.405V185.852H287.356V185.429H286.405V184.108H287.303V183.737L287.039 183.685H286.405V182.31H287.039L286.88 179.191L289.947 179.825V179.032H290.211V178.556L290.529 178.503V179.032L291.004 179.085V178.556L291.322 178.503V179.138H291.375L291.745 179.191V178.715L292.062 178.662V179.243L292.379 179.296V180.301L292.802 180.407L295.922 181.041V180.512L296.186 180.565V180.089H296.292L314.797 179.666L314.955 179.613L315.008 180.724L316.436 181.041V180.618L317.863 180.354L317.916 181.411L319.291 181.728L319.132 165.444V164.968H319.026V164.069L320.454 164.281L320.401 160.157L321.3 160.21V159.575L329.971 160.791L330.605 160.844L330.499 164.704L332.403 164.545V165.444H332.138V165.708L331.716 180.301H331.768V180.83L332.244 180.882V180.354L332.561 180.301V180.935H332.667L332.984 180.988V180.512L333.302 180.459V181.041L333.619 181.094V181.887L335.628 182.416L335.575 182.574L337.108 182.892V182.363H337.267V181.94L336.633 181.887V179.878L337.267 179.931L337.32 175.648L338.007 175.701L338.06 173.692L343.612 174.432V173.533L345.039 173.428L345.145 170.255H345.303L345.198 173.375L345.674 173.322L345.568 174.591H345.621L346.52 174.696L346.678 168.563H346.837L346.678 174.696L349.322 175.067L349.375 174.168L350.855 174.644L350.749 175.225L354.556 175.754L354.503 177.446L355.19 177.499L355.032 181.623H355.085V181.834L355.931 181.887L355.878 182.944L355.032 182.892L354.979 183.526L354.926 184.848H355.032V185.165L356.089 185.271L356.036 186.328L354.979 186.222L354.926 186.751H354.873V187.174L354.82 188.232H354.873V188.602L355.931 188.707L355.878 189.765L354.82 189.659V189.871V190.135H354.767L354.715 191.668V191.933L355.666 191.985L355.613 193.043L354.662 192.99V193.096H354.715V193.519H354.662L354.609 195.052L355.402 195.105L355.349 196.162L354.556 196.109V196.321H354.609V196.744H354.556L354.503 198.383L355.296 198.436L355.243 199.493L354.45 199.44L354.344 201.714L355.138 201.767L355.085 202.824L354.292 202.771V203.036L354.186 205.045L354.926 205.098L354.873 206.155L354.133 206.102L354.027 208.376L354.662 208.428H354.556V208.005L355.455 208.111V207.741L355.508 206.737H355.455V206.419L356.459 206.578L356.512 205.996H356.565L356.512 206.578L357.411 206.684V207.001H357.305L357.252 208.323L358.204 208.428L358.045 208.799H357.94V209.433V210.702L359.684 210.966L359.632 211.125L359.473 212.552L360.16 212.711V213.187H360.055V213.24L359.949 215.672L360.689 215.83V215.619L361.165 215.725V215.936L361.852 216.095V215.778L362.328 215.883V216.201L363.174 216.412V216.835L363.015 216.782L362.91 218.844L363.068 218.897V219.267L363.174 219.32L363.227 218.844L363.967 219.056L364.02 219.531L364.496 219.637L364.602 217.469H364.496V217.205L366.082 217.575L366.188 216.835L366.558 216.888L366.664 217.681L366.928 217.734L366.981 217.364L367.562 217.469L367.509 217.84L368.25 217.998V216.835H368.778V216.201L372.532 215.883L372.479 216.676H373.061L372.797 221.752L373.59 221.805L373.537 222.704L373.96 222.757V223.021H373.854L373.748 223.814L373.695 224.554H374.066V224.819H373.96V224.977L373.907 225.982H374.066V226.246H373.907V226.352L373.854 227.251H374.013V227.515H373.854V227.674L373.801 228.678H373.907V228.943H373.854V229.048L373.801 229.788V230.317H373.854V230.687H373.801L374.171 230.74V231.163L374.118 231.85L374.7 231.903L374.647 233.225L364.231 231.85V232.696L331.187 230.37L311.942 229.894V229.26L271.865 227.779V224.766L267.477 224.713V225.559L260.815 225.4L260.921 226.828L230.52 227.462L230.361 225.294L230.308 224.396L235.595 224.29L235.542 223.761L216.403 223.285Z" fill="#A7CFD8"/>
</g>
<path d="M196.987 312.954C225.706 312.954 248.987 307.581 248.987 300.954C248.987 294.326 225.706 288.954 196.987 288.954C168.268 288.954 144.987 294.326 144.987 300.954C144.987 307.581 168.268 312.954 196.987 312.954Z" fill="#DBDBDB"/>
<path d="M177.287 77.5537C180.159 77.5537 182.487 75.1808 182.487 72.2537C182.487 69.3266 180.159 66.9537 177.287 66.9537C174.415 66.9537 172.087 69.3266 172.087 72.2537C172.087 75.1808 174.415 77.5537 177.287 77.5537Z" fill="#F8A16E"/>
<path d="M212.987 77.5537C215.859 77.5537 218.187 75.1808 218.187 72.2537C218.187 69.3266 215.859 66.9537 212.987 66.9537C210.115 66.9537 207.787 69.3266 207.787 72.2537C207.787 75.1808 210.115 77.5537 212.987 77.5537Z" fill="#F8A16E"/>
<path d="M182.887 292.054C182.887 292.054 170.387 297.354 170.087 300.754C169.787 303.754 186.387 300.754 189.387 300.754C192.387 300.754 190.187 291.754 188.887 290.654C187.487 289.654 182.887 292.054 182.887 292.054Z" fill="#5D3C29"/>
<path d="M180.187 278.754C180.187 278.754 180.487 288.554 181.287 292.154C182.087 295.654 188.887 295.154 189.687 292.154C190.487 289.154 190.787 275.554 190.787 275.554L180.187 278.754Z" fill="#FBC293"/>
<path d="M211.787 291.654C211.787 291.654 223.287 298.854 222.987 302.354C222.787 305.354 206.887 299.754 203.887 299.254C200.887 298.754 204.487 290.254 206.087 289.354C207.587 288.454 211.787 291.654 211.787 291.654Z" fill="#5D3C29"/>
<path d="M216.587 278.954C216.587 278.954 214.787 288.554 213.387 291.954C211.987 295.354 205.387 293.654 205.087 290.554C204.787 287.454 206.687 273.954 206.687 273.954L216.587 278.954Z" fill="#FBC293"/>
<path d="M171.087 101.054C161.987 105.554 157.887 128.554 157.987 131.754C158.187 134.954 173.287 133.054 173.287 133.054L178.087 121.054L176.487 112.654L171.087 101.054Z" fill="#FFD300"/>
<path d="M195.287 185.854C195.287 185.854 203.687 221.854 205.887 229.754C208.087 237.654 204.387 274.754 204.687 278.754C205.087 282.854 213.987 282.554 216.987 279.854C219.987 277.154 225.987 237.054 227.887 226.154C229.787 215.254 219.987 178.454 219.987 178.454L195.187 176.454V185.854H195.287Z" fill="#7F553E"/>
<path d="M168.587 181.754C168.587 181.754 177.287 277.154 178.687 280.954C180.087 284.754 189.287 283.454 191.487 281.354C193.687 279.254 198.287 183.954 197.787 178.454C197.287 172.954 169.987 177.854 168.587 181.754Z" fill="#7F553E"/>
<path d="M186.687 82.9537C186.687 82.9537 188.087 91.2537 184.687 94.7537C181.087 98.6537 192.987 105.654 192.987 105.654L204.087 103.354L203.487 94.7537C203.487 94.7537 199.887 88.8537 200.187 82.3537C200.487 75.8537 186.687 82.9537 186.687 82.9537Z" fill="#F8A16E"/>
<path d="M184.687 94.7537C184.687 94.7537 192.887 106.154 203.487 94.7537C203.487 94.7537 212.887 97.6537 216.687 100.054C225.287 105.354 238.387 125.554 240.987 133.154L222.087 137.354C222.087 137.354 222.887 174.154 223.987 181.754C223.987 181.754 189.887 186.954 168.687 181.754L171.187 101.054L184.687 94.7537Z" fill="#FFD300"/>
<path d="M212.687 69.0537C212.687 80.4537 202.987 89.7537 194.587 89.7537C186.687 89.7537 176.487 80.4537 176.487 69.0537C176.487 57.6537 184.587 48.3537 194.587 48.3537C204.587 48.3537 212.687 57.6537 212.687 69.0537Z" fill="#FBC293"/>
<path d="M185.087 120.954C185.087 120.954 191.987 116.754 197.087 116.554C202.187 116.354 202.087 129.354 202.087 129.354C202.087 129.354 190.487 126.554 185.987 128.254C181.487 129.854 185.087 120.954 185.087 120.954Z" fill="#F8A16E"/>
<path d="M206.387 135.954H197.687C196.787 135.954 195.987 135.154 195.987 134.254V114.454C195.987 113.554 196.787 112.754 197.687 112.754H206.387C207.287 112.754 208.087 113.554 208.087 114.454V134.154C208.187 135.154 207.387 135.954 206.387 135.954Z" fill="#29597B"/>
<path d="M214.787 125.554C214.787 125.554 211.687 123.754 209.487 121.454C207.287 119.154 206.787 116.554 205.487 116.554C204.287 116.554 205.587 122.854 205.587 122.854C205.587 122.854 194.387 117.854 193.887 119.554C193.387 121.354 202.187 124.154 202.187 124.154C202.187 124.154 193.187 122.354 192.887 123.854C192.587 125.354 202.187 126.154 202.187 126.154C202.187 126.154 193.587 127.254 194.187 129.054C194.787 130.854 202.987 128.954 202.987 128.954C202.987 128.954 197.587 131.154 198.487 132.454C199.487 133.854 210.987 132.554 213.787 130.854C216.587 129.154 214.787 125.554 214.787 125.554Z" fill="#FBC293"/>
<path d="M213.687 123.454C211.187 125.254 210.187 131.254 212.287 134.654C214.487 137.954 229.687 146.954 236.187 145.854C242.687 144.754 244.187 133.854 237.387 128.554C230.687 123.154 213.687 123.454 213.687 123.454Z" fill="#F9A719"/>
<path d="M186.187 118.854C188.687 120.654 189.687 126.654 187.587 130.054C185.387 133.354 170.187 142.354 163.687 141.254C157.187 140.154 155.687 129.254 162.487 123.954C169.187 118.554 186.187 118.854 186.187 118.854Z" fill="#F9A719"/>
<path d="M186.487 60.3537C186.487 60.3537 202.987 70.2537 216.387 67.6537C216.387 67.6537 218.687 53.4537 208.187 45.6537C197.687 37.8537 183.387 47.2537 183.387 47.2537C183.387 47.2537 185.687 43.9537 184.387 42.2537C183.087 40.5537 179.387 47.9537 179.387 47.9537C179.387 47.9537 173.087 47.3537 173.387 48.8537C173.687 50.2537 178.087 51.1537 178.087 51.1537C178.087 51.1537 170.287 59.3537 172.787 69.8537C172.787 69.7537 179.287 69.7537 186.487 60.3537Z" fill="#A46A50"/>
<path d="M204.687 63.2537C203.487 61.4537 200.787 61.4537 198.787 60.9537C195.787 60.1537 192.887 59.1537 190.087 57.7537C189.387 57.4537 188.887 58.3537 189.487 58.7537C191.987 60.6537 194.787 62.3537 197.687 63.4537C199.587 64.2537 202.487 65.6537 204.387 64.3537C204.787 64.1537 204.987 63.6537 204.687 63.2537Z" fill="#C28465"/>
<path d="M212.287 63.2537C211.187 63.1537 210.087 63.1537 208.987 63.0537C207.687 62.9537 207.387 65.1537 208.687 65.3537C209.887 65.5537 211.087 65.8537 212.287 66.0537C212.987 66.1537 213.687 65.3537 213.687 64.6537C213.687 63.8537 213.087 63.3537 212.287 63.2537Z" fill="#C28465"/>
<path d="M181.587 58.4537C179.887 60.9537 177.287 62.9537 174.587 64.2537C173.687 64.6537 174.387 65.8537 175.187 65.7537C178.887 64.9537 181.687 62.9537 183.987 59.9537C185.087 58.4537 182.587 56.9537 181.587 58.4537Z" fill="#C28465"/>
<path d="M197.987 114.254C197.087 114.254 197.087 115.654 197.987 115.654C198.887 115.554 198.887 114.254 197.987 114.254Z" fill="white"/>
<path d="M194.487 103.154C201.487 103.154 204.987 99.3537 206.587 95.7537C204.787 95.1537 203.487 94.7537 203.487 94.7537C192.887 106.154 184.687 94.7537 184.687 94.7537L182.187 95.9537C183.087 98.9537 185.887 103.154 194.487 103.154Z" fill="#F9A719"/>
<path d="M126.087 270.554C135.2 270.554 142.587 269.031 142.587 267.154C142.587 265.276 135.2 263.754 126.087 263.754C116.974 263.754 109.587 265.276 109.587 267.154C109.587 269.031 116.974 270.554 126.087 270.554Z" fill="#DBDBDB"/>
<path d="M107.687 247.254C106.087 240.854 107.587 234.054 109.087 227.354C108.787 228.454 114.287 233.454 115.187 234.654C117.187 237.354 118.987 240.254 120.587 243.154C123.787 249.154 126.187 255.454 127.587 261.954C129.387 270.554 122.587 266.554 118.487 262.854C113.587 258.554 109.287 253.454 107.687 247.254Z" fill="#A4FAB5"/>
<path d="M123.287 262.754C119.987 249.954 116.487 232.154 121.687 219.154C122.687 216.554 124.787 212.554 125.987 209.154C128.287 215.554 130.487 222.054 132.587 228.554C134.287 233.854 135.887 239.354 135.787 244.854C135.687 250.654 133.787 256.254 131.187 261.454C128.787 266.554 125.387 270.654 123.287 262.754Z" fill="#7DC98C"/>
<path d="M127.987 251.654C129.287 248.654 131.187 245.854 132.987 243.054C135.787 238.754 138.687 234.454 141.487 230.154C141.887 229.554 142.287 228.954 142.887 228.454C145.187 236.554 145.287 245.354 142.087 253.154C140.187 257.754 134.587 266.554 128.887 267.254C120.887 268.054 126.287 255.354 127.987 251.654Z" fill="#A4FAB5"/>
<path d="M258.387 289.154C267.499 289.154 274.887 287.631 274.887 285.754C274.887 283.876 267.499 282.354 258.387 282.354C249.274 282.354 241.887 283.876 241.887 285.754C241.887 287.631 249.274 289.154 258.387 289.154Z" fill="#DBDBDB"/>
<path d="M276.787 265.854C278.387 259.454 276.887 252.654 275.387 245.954C275.687 247.054 270.187 252.054 269.287 253.254C267.287 255.954 265.487 258.854 263.887 261.754C260.687 267.754 258.287 274.054 256.887 280.554C255.087 289.154 261.887 285.154 265.987 281.454C270.787 277.154 275.187 272.054 276.787 265.854Z" fill="#A4FAB5"/>
<path d="M261.087 281.254C264.387 268.454 267.887 250.654 262.687 237.654C261.687 235.054 259.587 231.054 258.387 227.654C256.087 234.054 253.887 240.554 251.787 247.054C250.087 252.354 248.487 257.854 248.587 263.354C248.687 269.154 250.587 274.754 253.187 279.954C255.587 285.154 259.087 289.254 261.087 281.254Z" fill="#7DC98C"/>
<path d="M256.387 270.254C255.087 267.254 253.187 264.454 251.387 261.654C248.587 257.354 245.687 253.054 242.887 248.754C242.487 248.154 242.087 247.554 241.487 247.054C239.187 255.154 239.087 263.954 242.287 271.754C244.187 276.354 249.787 285.154 255.487 285.854C263.587 286.654 258.087 273.954 256.387 270.254Z" fill="#A4FAB5"/>
<path fill-rule="evenodd" clip-rule="evenodd" d="M43.5 137.628C43.5 137.628 55 122.851 55 116.5C55 110.149 49.8513 105 43.5 105C37.1487 105 32 110.149 32 116.5C32 122.851 43.5 137.628 43.5 137.628ZM43.5 121.047C46.011 121.047 48.0465 119.011 48.0465 116.5C48.0465 113.989 46.011 111.953 43.5 111.953C40.989 111.953 38.9535 113.989 38.9535 116.5C38.9535 119.011 40.989 121.047 43.5 121.047Z" fill="url(#paint0_linear)"/>
<path fill-rule="evenodd" clip-rule="evenodd" d="M301.5 117.442C301.5 117.442 308 109.09 308 105.5C308 101.91 305.09 99 301.5 99C297.91 99 295 101.91 295 105.5C295 109.09 301.5 117.442 301.5 117.442ZM301.5 108.07C302.919 108.07 304.07 106.919 304.07 105.5C304.07 104.081 302.919 102.93 301.5 102.93C300.081 102.93 298.93 104.081 298.93 105.5C298.93 106.919 300.081 108.07 301.5 108.07Z" fill="url(#paint1_linear)"/>
<path fill-rule="evenodd" clip-rule="evenodd" d="M330.172 169.535C330.172 169.535 342.344 153.895 342.344 147.172C342.344 140.45 336.895 135 330.172 135C323.45 135 318 140.45 318 147.172C318 153.895 330.172 169.535 330.172 169.535ZM330.172 151.984C332.83 151.984 334.984 149.83 334.984 147.172C334.984 144.514 332.83 142.36 330.172 142.36C327.514 142.36 325.36 144.514 325.36 147.172C325.36 149.83 327.514 151.984 330.172 151.984Z" fill="url(#paint2_linear)"/>
<path fill-rule="evenodd" clip-rule="evenodd" d="M73.6639 77.907C73.6639 77.907 80.3279 69.3443 80.3279 65.6639C80.3279 61.9835 77.3443 59 73.6639 59C69.9835 59 67 61.9835 67 65.6639C67 69.3443 73.6639 77.907 73.6639 77.907ZM73.664 68.2985C75.119 68.2985 76.2985 67.119 76.2985 65.6639C76.2985 64.2089 75.119 63.0294 73.664 63.0294C72.2089 63.0294 71.0294 64.2089 71.0294 65.6639C71.0294 67.119 72.2089 68.2985 73.664 68.2985Z" fill="url(#paint3_linear)"/>
<path fill-rule="evenodd" clip-rule="evenodd" d="M92.6639 134.907C92.6639 134.907 99.3279 126.344 99.3279 122.664C99.3279 118.984 96.3443 116 92.6639 116C88.9835 116 86 118.984 86 122.664C86 126.344 92.6639 134.907 92.6639 134.907ZM92.664 125.299C94.119 125.299 95.2985 124.119 95.2985 122.664C95.2985 121.209 94.119 120.029 92.664 120.029C91.2089 120.029 90.0294 121.209 90.0294 122.664C90.0294 124.119 91.2089 125.299 92.664 125.299Z" fill="url(#paint4_linear)"/>
<path fill-rule="evenodd" clip-rule="evenodd" d="M288 170.907C288 170.907 294 163.197 294 159.884C294 156.57 291.314 153.884 288 153.884C284.686 153.884 282 156.57 282 159.884C282 163.197 288 170.907 288 170.907ZM288 162.256C289.31 162.256 290.372 161.194 290.372 159.884C290.372 158.574 289.31 157.512 288 157.512C286.69 157.512 285.628 158.574 285.628 159.884C285.628 161.194 286.69 162.256 288 162.256Z" fill="url(#paint5_linear)"/>
<path fill-rule="evenodd" clip-rule="evenodd" d="M239.68 56.0233C239.68 56.0233 259.426 30.6513 259.426 19.7459C259.426 8.84054 250.586 0 239.68 0C228.775 0 219.934 8.84054 219.934 19.7459C219.934 30.6513 239.68 56.0233 239.68 56.0233ZM239.68 27.5524C243.992 27.5524 247.487 24.0573 247.487 19.7459C247.487 15.4345 243.992 11.9394 239.68 11.9394C235.369 11.9394 231.874 15.4345 231.874 19.7459C231.874 24.0573 235.369 27.5524 239.68 27.5524Z" fill="url(#paint6_linear)"/>
<defs>
<linearGradient id="paint0_linear" x1="32" y1="105" x2="46.3177" y2="139.098" gradientUnits="userSpaceOnUse">
<stop stop-color="#354EC3"/>
<stop offset="0.674977" stop-color="#5739B6"/>
<stop offset="1" stop-color="#9652D1"/>
</linearGradient>
<linearGradient id="paint1_linear" x1="295" y1="99" x2="303.093" y2="118.273" gradientUnits="userSpaceOnUse">
<stop stop-color="#354EC3"/>
<stop offset="0.674977" stop-color="#5739B6"/>
<stop offset="1" stop-color="#9652D1"/>
</linearGradient>
<linearGradient id="paint2_linear" x1="318" y1="135" x2="333.155" y2="171.091" gradientUnits="userSpaceOnUse">
<stop stop-color="#354EC3"/>
<stop offset="0.674977" stop-color="#5739B6"/>
<stop offset="1" stop-color="#9652D1"/>
</linearGradient>
<linearGradient id="paint3_linear" x1="67" y1="59" x2="75.2967" y2="78.7587" gradientUnits="userSpaceOnUse">
<stop stop-color="#354EC3"/>
<stop offset="0.674977" stop-color="#5739B6"/>
<stop offset="1" stop-color="#9652D1"/>
</linearGradient>
<linearGradient id="paint4_linear" x1="86" y1="116" x2="94.2967" y2="135.759" gradientUnits="userSpaceOnUse">
<stop stop-color="#354EC3"/>
<stop offset="0.674977" stop-color="#5739B6"/>
<stop offset="1" stop-color="#9652D1"/>
</linearGradient>
<linearGradient id="paint5_linear" x1="282" y1="153.884" x2="289.47" y2="171.674" gradientUnits="userSpaceOnUse">
<stop stop-color="#354EC3"/>
<stop offset="0.674977" stop-color="#5739B6"/>
<stop offset="1" stop-color="#9652D1"/>
</linearGradient>
<linearGradient id="paint6_linear" x1="219.934" y1="0" x2="244.519" y2="58.5471" gradientUnits="userSpaceOnUse">
<stop stop-color="#354EC3"/>
<stop offset="0.674977" stop-color="#5739B6"/>
<stop offset="1" stop-color="#9652D1"/>
</linearGradient>
</defs>
</svg>
