<svg width="41" height="40" viewBox="0 0 41 40" fill="none" xmlns="http://www.w3.org/2000/svg">
<g clip-path="url(#clip0)">
<path d="M14.5477 12.2719V20.2126H17.5074V15.1594C17.5074 14.7608 17.8387 14.4376 18.2474 14.4376H22.6869C23.0955 14.4376 23.4268 14.7608 23.4268 15.1594V20.2126H26.3865V12.2719C26.3865 11.8733 26.7178 11.55 27.1265 11.55H27.9108L20.4671 5.96429L13.0234 11.55H13.8078C14.2164 11.55 14.5477 11.8733 14.5477 12.2719Z" fill="#EF9C21"/>
<path d="M18.9873 15.8813H21.947V20.2126H18.9873V15.8813Z" fill="#EF9C21"/>
<path d="M20.4675 40.0001C23.2516 36.6085 35.266 21.5626 35.266 14.4376C35.266 6.46377 28.6402 0 20.4675 0C12.2943 0 5.66895 6.46377 5.66895 14.4376C5.66895 21.564 17.683 36.6092 20.4675 40.0001ZM10.3972 11.7023L20.0162 4.48354C20.2821 4.28369 20.6528 4.28369 20.9187 4.48354L30.5377 11.7023C30.7867 11.8916 30.8853 12.2138 30.7834 12.5049C30.6819 12.7961 30.4019 12.9924 30.0865 12.9938H27.8667V20.9345C27.8667 21.3331 27.5354 21.6563 27.1268 21.6563H13.8081C13.3995 21.6563 13.0682 21.3331 13.0682 20.9345V12.9938H10.8484C10.5319 12.9938 10.2505 12.7971 10.1482 12.5046C10.0464 12.212 10.1464 11.8888 10.3972 11.7002V11.7023Z" fill="#EF9C21"/>
</g>
<defs>
<clipPath id="clip0">
<rect width="41" height="40" fill="white"/>
</clipPath>
</defs>
</svg>
