<svg width="47" height="47" viewBox="0 0 47 47" fill="none" xmlns="http://www.w3.org/2000/svg">
<path d="M28.2311 11.1367H23.4787C23.4787 11.1367 13.9616 23.7961 16.7389 27.7837C19.3439 31.524 32.3659 31.524 34.9709 27.7837C37.7482 23.7961 28.2311 11.1367 28.2311 11.1367Z" fill="#EDEDED"/>
<path d="M30.3497 6.49057C29.7592 5.8566 27.7224 7.1576 26.8576 7.20997C25.4175 7.2972 22.2749 5.37731 21.3573 6.49057C20.565 7.45175 23.4783 11.1366 23.4783 11.1366H28.2307C28.2307 11.1366 31.1986 7.40209 30.3497 6.49057Z" fill="#DBD8DD"/>
<path d="M25.8546 27.4536C28.2734 27.4536 30.2342 25.4928 30.2342 23.074C30.2342 20.6553 28.2734 18.6945 25.8546 18.6945C23.4359 18.6945 21.4751 20.6553 21.4751 23.074C21.4751 25.4928 23.4359 27.4536 25.8546 27.4536Z" fill="#FCD462"/>
<path d="M25.8547 26.6806C27.8465 26.6806 29.4613 25.0659 29.4613 23.074C29.4613 21.0821 27.8465 19.4674 25.8547 19.4674C23.8628 19.4674 22.248 21.0821 22.248 23.074C22.248 25.0659 23.8628 26.6806 25.8547 26.6806Z" fill="#F7BE56"/>
<path d="M20.7972 20.7596C20.7174 21.1526 20.6416 21.5287 20.5907 21.9056C20.5428 22.2822 20.5103 22.6566 20.5119 23.032C20.5051 23.4073 20.5319 23.782 20.5741 24.1593C20.6193 24.5367 20.689 24.9139 20.7622 25.3084C20.2815 24.6637 20.0644 23.8382 20.0674 23.0285C20.0778 22.2189 20.3074 21.3973 20.7972 20.7596Z" fill="#DBD8DD"/>
<path d="M40.8576 31.1406C40.8576 31.7279 40.5589 32.2855 40.051 32.6042L28.5705 40.163C27.8038 40.6509 26.8578 40.7702 25.9916 40.5015L16.3431 37.4447L14.053 38.3607L10.3768 34.4711L10.0303 30.1859L14.084 28.0162C15.0233 27.5134 16.1077 27.3518 17.1528 27.5587L27.6544 29.6382C28.5605 29.7976 29.1878 30.6439 29.0684 31.5599C28.9588 32.4263 28.222 33.0634 27.3657 33.0634C27.3059 33.0634 27.2562 33.0634 27.1964 33.0535L21.9562 32.534C21.5897 32.4977 21.2719 32.7855 21.2719 33.1538V33.1538C21.2719 33.4792 21.5225 33.7498 21.8471 33.7747L28.4112 34.2783L38.4977 29.637C39.5034 29.1689 40.6684 29.7963 40.8377 30.8916C40.8477 30.9711 40.8576 31.0608 40.8576 31.1406Z" fill="#FCD462"/>
<path d="M14.1767 38.6101L9.94776 30.0282C9.80184 29.7321 9.44133 29.6134 9.14822 29.7651L6.46131 31.1551C6.17622 31.3026 6.06154 31.6511 6.20332 31.9389L10.4316 40.5284C10.5776 40.8249 10.939 40.9436 11.2323 40.791L13.9199 39.3935C14.2043 39.2456 14.3183 38.8976 14.1767 38.6101Z" fill="#EF9C21"/>
<path d="M11.816 39.5428C12.3028 39.5428 12.6975 39.1482 12.6975 38.6613C12.6975 38.1745 12.3028 37.7799 11.816 37.7799C11.3292 37.7799 10.9346 38.1745 10.9346 38.6613C10.9346 39.1482 11.3292 39.5428 11.816 39.5428Z" fill="#EBF0F3"/>
<path d="M28.4404 10.8303H22.9972C22.8011 10.8303 22.6421 10.9893 22.6421 11.1854C22.6421 11.3814 22.8011 11.5404 22.9972 11.5404H28.4404C28.6365 11.5404 28.7954 11.3814 28.7954 11.1854C28.7954 10.9893 28.6365 10.8303 28.4404 10.8303Z" fill="#344D5B"/>
</svg>
