<svg width="28" height="19" viewBox="0 0 28 19" fill="none" xmlns="http://www.w3.org/2000/svg">
<g clip-path="url(#clip0)">
<path d="M3.23729 2.65304C3.44925 2.65304 3.62107 2.49684 3.62107 2.30415C3.62107 2.11146 3.44925 1.95526 3.23729 1.95526C3.02534 1.95526 2.85352 2.11146 2.85352 2.30415C2.85352 2.49684 3.02534 2.65304 3.23729 2.65304Z" fill="#EF9C21"/>
<path d="M4.61327 2.65304C4.82522 2.65304 4.99705 2.49684 4.99705 2.30415C4.99705 2.11146 4.82522 1.95526 4.61327 1.95526C4.40132 1.95526 4.22949 2.11146 4.22949 2.30415C4.22949 2.49684 4.40132 2.65304 4.61327 2.65304Z" fill="#EF9C21"/>
<path d="M6.041 2.65304C6.25296 2.65304 6.42478 2.49684 6.42478 2.30415C6.42478 2.11146 6.25296 1.95526 6.041 1.95526C5.82905 1.95526 5.65723 2.11146 5.65723 2.30415C5.65723 2.49684 5.82905 2.65304 6.041 2.65304Z" fill="#EF9C21"/>
<path d="M15.8901 1.95522H12.8679C12.819 1.95367 12.7702 1.96108 12.7246 1.97702C12.6789 1.99296 12.6372 2.0171 12.602 2.048C12.5668 2.0789 12.5388 2.11593 12.5197 2.15688C12.5006 2.19782 12.4907 2.24185 12.4907 2.28633C12.4907 2.33081 12.5006 2.37484 12.5197 2.41579C12.5388 2.45673 12.5668 2.49376 12.602 2.52466C12.6372 2.55556 12.6789 2.5797 12.7246 2.59564C12.7702 2.61158 12.819 2.61899 12.8679 2.61744H15.8901C15.939 2.61899 15.9878 2.61158 16.0334 2.59564C16.0791 2.5797 16.1208 2.55556 16.156 2.52466C16.1912 2.49376 16.2192 2.45673 16.2383 2.41579C16.2574 2.37484 16.2673 2.33081 16.2673 2.28633C16.2673 2.24185 16.2574 2.19782 16.2383 2.15688C16.2192 2.11593 16.1912 2.0789 16.156 2.048C16.1208 2.0171 16.0791 1.99296 16.0334 1.97702C15.9878 1.96108 15.939 1.95367 15.8901 1.95522Z" fill="#EF9C21"/>
<path d="M7.76953 11.3337H6.65527L4.63525 8.25409C4.51676 8.07408 4.43473 7.9385 4.38916 7.84735H4.37549C4.39372 8.02053 4.40283 8.28485 4.40283 8.64032V11.3337H3.36035V6.43231H4.5498L6.49463 9.4162C6.5835 9.55064 6.66553 9.68394 6.74072 9.8161H6.75439C6.73617 9.70217 6.72705 9.47772 6.72705 9.14276V6.43231H7.76953V11.3337ZM11.8301 11.3337H8.89062V6.43231H11.7173V7.33124H9.99463V8.42157H11.5977V9.31708H9.99463V10.4382H11.8301V11.3337ZM16.1196 7.33124H14.7217V11.3337H13.6143V7.33124H12.2231V6.43231H16.1196V7.33124Z" fill="#B7AEC4"/>
<path d="M26.032 0.0469994H1.968C1.45562 0.0392085 0.960738 0.216415 0.591835 0.539776C0.222933 0.863138 0.0101045 1.30627 0 1.77205L0 16.3217C0.0100464 16.7876 0.222849 17.2307 0.591758 17.5542C0.960667 17.8776 1.45558 18.0548 1.968 18.047H26.032C26.5444 18.0548 27.0393 17.8776 27.4082 17.5542C27.7772 17.2307 27.99 16.7876 28 16.3217V1.77205C27.9899 1.30627 27.7771 0.863138 27.4082 0.539776C27.0393 0.216415 26.5444 0.0392085 26.032 0.0469994ZM27.0667 16.3217C27.0614 16.5666 26.9495 16.7996 26.7555 16.9696C26.5616 17.1396 26.3014 17.2327 26.032 17.2286H1.968C1.69862 17.2327 1.43845 17.1396 1.2445 16.9696C1.05055 16.7996 0.938648 16.5666 0.933333 16.3217V1.77205C0.938648 1.52718 1.05055 1.29421 1.2445 1.12421C1.43845 0.95422 1.69862 0.861069 1.968 0.865181H26.032C26.3014 0.861069 26.5616 0.95422 26.7555 1.12421C26.9495 1.29421 27.0614 1.52718 27.0667 1.77205V16.3217Z" fill="#EF9C21"/>
<path d="M3.12012 15.048V12.2472H4.13965C4.45215 12.2472 4.69238 12.3045 4.86035 12.4191C5.02832 12.5337 5.1123 12.6951 5.1123 12.9034C5.1123 13.0545 5.06087 13.1866 4.95801 13.2999C4.85645 13.4132 4.72624 13.492 4.56738 13.5363V13.5441C4.7666 13.5688 4.92546 13.6424 5.04395 13.7648C5.16374 13.8872 5.22363 14.0363 5.22363 14.212C5.22363 14.4685 5.13184 14.6723 4.94824 14.8234C4.76465 14.9731 4.514 15.048 4.19629 15.048H3.12012ZM3.75098 12.712V13.3761H4.02832C4.15853 13.3761 4.26074 13.3448 4.33496 13.2823C4.41048 13.2185 4.44824 13.1313 4.44824 13.0206C4.44824 12.8149 4.2946 12.712 3.9873 12.712H3.75098ZM3.75098 13.8448V14.5831H4.09277C4.23861 14.5831 4.35254 14.5493 4.43457 14.4816C4.5179 14.4139 4.55957 14.3214 4.55957 14.2042C4.55957 14.0922 4.51855 14.0044 4.43652 13.9406C4.35579 13.8767 4.24251 13.8448 4.09668 13.8448H3.75098ZM8.14941 15.048H7.46191L7.2627 14.4249H6.2666L6.06934 15.048H5.38574L6.40527 12.2472H7.15332L8.14941 15.048ZM7.11816 13.9406L6.81738 12.9991C6.79525 12.9288 6.77962 12.8448 6.77051 12.7472H6.75488C6.74837 12.8292 6.7321 12.9106 6.70605 12.9913L6.40137 13.9406H7.11816ZM11.0186 15.048H10.3818L9.22754 13.2882C9.15983 13.1853 9.11296 13.1079 9.08691 13.0558H9.0791C9.08952 13.1547 9.09473 13.3058 9.09473 13.5089V15.048H8.49902V12.2472H9.17871L10.29 13.9523C10.3408 14.0291 10.3877 14.1053 10.4307 14.1808H10.4385C10.4281 14.1157 10.4229 13.9874 10.4229 13.796V12.2472H11.0186V15.048ZM13.9873 15.048H13.1904L12.374 13.8312C12.3584 13.8077 12.3337 13.7563 12.2998 13.6769H12.29V15.048H11.6592V12.2472H12.29V13.5714H12.2998C12.3154 13.535 12.3415 13.4829 12.3779 13.4152L13.1514 12.2472H13.9033L12.9268 13.5831L13.9873 15.048ZM14.8877 15.048H14.2568V12.2472H14.8877V15.048ZM18.0459 15.048H17.4092L16.2549 13.2882C16.1872 13.1853 16.1403 13.1079 16.1143 13.0558H16.1064C16.1169 13.1547 16.1221 13.3058 16.1221 13.5089V15.048H15.5264V12.2472H16.2061L17.3174 13.9523C17.3682 14.0291 17.415 14.1053 17.458 14.1808H17.4658C17.4554 14.1157 17.4502 13.9874 17.4502 13.796V12.2472H18.0459V15.048ZM20.9854 14.8605C20.7119 15.018 20.3721 15.0968 19.9658 15.0968C19.5153 15.0968 19.1598 14.9725 18.8994 14.7238C18.6403 14.4738 18.5107 14.13 18.5107 13.6925C18.5107 13.2524 18.6527 12.8937 18.9365 12.6163C19.2204 12.339 19.598 12.2003 20.0693 12.2003C20.3662 12.2003 20.6279 12.2413 20.8545 12.3234V12.9152C20.6383 12.7902 20.374 12.7277 20.0615 12.7277C19.7998 12.7277 19.5863 12.8129 19.4209 12.9835C19.2568 13.1528 19.1748 13.3794 19.1748 13.6632C19.1748 13.951 19.2484 14.1736 19.3955 14.3312C19.5439 14.4887 19.7438 14.5675 19.9951 14.5675C20.1462 14.5675 20.266 14.546 20.3545 14.5031V13.9562H19.7939V13.4523H20.9854V14.8605Z" fill="#B7AEC4"/>
</g>
<defs>
<clipPath id="clip0">
<rect width="28" height="18" fill="white" transform="translate(0 0.0479736)"/>
</clipPath>
</defs>
</svg>
