<svg width="344" height="44" viewBox="0 0 344 44" fill="none" xmlns="http://www.w3.org/2000/svg">
<path d="M344 15.3399L341.463 15.3399C337.945 15.3399 335.061 18.2233 335.061 21.7411C335.061 25.2589 337.945 28.1423 341.463 28.1423L344 28.1423L344 43.2515L0 43.2515L2.05529e-07 28.027L2.88344 28.2C2.9411 28.2 2.99877 28.2 2.99877 28.2C6.51656 28.2 9.4 25.3166 9.4 21.7988C9.4 18.281 6.51656 15.3975 2.99877 15.3975C2.9411 15.3975 2.88344 15.3975 2.88344 15.3975L3.7369e-07 15.5705L5.8389e-07 -1.14441e-05L344 -7.82052e-06L344 15.3399Z" fill="#f03f37"/>
<path d="M2.5376 12.8601C2.7106 12.8601 2.82594 12.8601 2.99895 12.8601C7.95846 12.8601 11.9376 16.8393 11.9376 21.7988C11.9376 26.7583 7.95846 30.7374 2.99895 30.7374C2.82594 30.7374 2.7106 30.7374 2.5376 30.7374L2.5376 40.7141L341.463 40.7141L341.463 30.7374C336.503 30.7374 332.524 26.7583 332.524 21.7988C332.524 16.8393 336.503 12.8601 341.463 12.8601L341.463 2.53743L2.5376 2.53742L2.5376 12.8601Z" stroke="#F8E5B6" stroke-miterlimit="10" stroke-linecap="square" stroke-dasharray="3 3"/>
</svg>
