<svg width="344" height="44" viewBox="0 0 344 44" fill="none" xmlns="http://www.w3.org/2000/svg">
<path d="M344 15.3399L341.463 15.3399C337.945 15.3399 335.061 18.2233 335.061 21.7411C335.061 25.2589 337.945 28.1423 341.463 28.1423L344 28.1423L344 43.2515L0 43.2515L2.05529e-07 28.027L2.88344 28.2C2.9411 28.2 2.99877 28.2 2.99877 28.2C6.51656 28.2 9.4 25.3166 9.4 21.7988C9.4 18.281 6.51656 15.3975 2.99877 15.3975C2.9411 15.3975 2.88344 15.3975 2.88344 15.3975L3.7369e-07 15.5705L5.8389e-07 -1.14441e-05L344 -7.82052e-06L344 15.3399Z" fill="#f03f37"/>
<path d="M2.5376 12.8601C2.7106 12.8601 2.82594 12.8601 2.99895 12.8601C7.95846 12.8601 11.9376 16.8393 11.9376 21.7988C11.9376 26.7583 7.95846 30.7374 2.99895 30.7374C2.82594 30.7374 2.7106 30.7374 2.5376 30.7374L2.5376 40.7141L341.463 40.7141L341.463 30.7374C336.503 30.7374 332.524 26.7583 332.524 21.7988C332.524 16.8393 336.503 12.8601 341.463 12.8601L341.463 2.53743L2.5376 2.53742L2.5376 12.8601Z" stroke="#F8E5B6" stroke-miterlimit="10" stroke-linecap="square" stroke-dasharray="3 3"/>
<path d="M29.5703 11.6641H26.9102V19H25.4395V11.6641H22.8027V10.4688H29.5703V11.6641ZM29.0723 15.7715C29.0723 15.1504 29.1953 14.5918 29.4414 14.0957C29.6875 13.5957 30.0332 13.2129 30.4785 12.9473C30.9238 12.6777 31.4355 12.543 32.0137 12.543C32.8691 12.543 33.5625 12.8184 34.0938 13.3691C34.6289 13.9199 34.918 14.6504 34.9609 15.5606L34.9668 15.8945C34.9668 16.5195 34.8457 17.0781 34.6035 17.5703C34.3652 18.0625 34.0215 18.4434 33.5723 18.7129C33.127 18.9824 32.6113 19.1172 32.0254 19.1172C31.1309 19.1172 30.4141 18.8203 29.875 18.2266C29.3398 17.6289 29.0723 16.834 29.0723 15.8418V15.7715ZM30.4961 15.8945C30.4961 16.5469 30.6309 17.0586 30.9004 17.4297C31.1699 17.7969 31.5449 17.9805 32.0254 17.9805C32.5059 17.9805 32.8789 17.793 33.1445 17.418C33.4141 17.043 33.5488 16.4941 33.5488 15.7715C33.5488 15.1309 33.4102 14.6231 33.1328 14.2481C32.8594 13.8731 32.4863 13.6856 32.0137 13.6856C31.5488 13.6856 31.1797 13.8711 30.9062 14.2422C30.6328 14.6094 30.4961 15.1602 30.4961 15.8945ZM35.9043 15.7832C35.9043 14.8066 36.1309 14.0234 36.584 13.4336C37.0371 12.8399 37.6445 12.543 38.4062 12.543C39.0781 12.543 39.6211 12.7774 40.0352 13.2461V10H41.459V19H40.1699L40.0996 18.3438C39.6738 18.8594 39.1055 19.1172 38.3945 19.1172C37.6523 19.1172 37.0508 18.8184 36.5898 18.2207C36.1328 17.6231 35.9043 16.8106 35.9043 15.7832ZM37.3281 15.9063C37.3281 16.5508 37.4512 17.0547 37.6973 17.418C37.9473 17.7774 38.3008 17.957 38.7578 17.957C39.3398 17.957 39.7656 17.6973 40.0352 17.1777V14.4707C39.7734 13.9629 39.3516 13.709 38.7695 13.709C38.3086 13.709 37.9531 13.8926 37.7031 14.2598C37.4531 14.6231 37.3281 15.1719 37.3281 15.9063ZM46.7324 19C46.6699 18.8789 46.6152 18.6816 46.5684 18.4082C46.1152 18.8809 45.5605 19.1172 44.9043 19.1172C44.2676 19.1172 43.748 18.9356 43.3457 18.5723C42.9434 18.209 42.7422 17.7598 42.7422 17.2246C42.7422 16.5488 42.9922 16.0313 43.4922 15.6719C43.9961 15.3086 44.7148 15.127 45.6484 15.127H46.5215V14.7109C46.5215 14.3828 46.4297 14.1211 46.2461 13.9258C46.0625 13.7266 45.7832 13.627 45.4082 13.627C45.084 13.627 44.8184 13.709 44.6113 13.8731C44.4043 14.0332 44.3008 14.2383 44.3008 14.4883H42.877C42.877 14.1406 42.9922 13.8164 43.2227 13.5156C43.4531 13.2109 43.7656 12.9727 44.1602 12.8008C44.5586 12.6289 45.002 12.543 45.4902 12.543C46.2324 12.543 46.8242 12.7305 47.2656 13.1055C47.707 13.4766 47.9336 14 47.9453 14.6758V17.5352C47.9453 18.1055 48.0254 18.5606 48.1855 18.9004V19H46.7324ZM45.168 17.9746C45.4492 17.9746 45.7129 17.9063 45.959 17.7695C46.209 17.6328 46.3965 17.4492 46.5215 17.2188V16.0234H45.7539C45.2266 16.0234 44.8301 16.1152 44.5645 16.2988C44.2988 16.4824 44.166 16.7422 44.166 17.0781C44.166 17.3516 44.2559 17.5703 44.4355 17.7344C44.6191 17.8945 44.8633 17.9746 45.168 17.9746ZM51.5605 16.9609L52.8496 12.6602H54.3672L51.8477 19.9609C51.4609 21.0274 50.8047 21.5606 49.8789 21.5606C49.6719 21.5606 49.4434 21.5254 49.1934 21.4551V20.3535L49.4629 20.3711C49.8223 20.3711 50.0918 20.3047 50.2715 20.1719C50.4551 20.043 50.5996 19.8242 50.7051 19.5156L50.9102 18.9707L48.6836 12.6602H50.2188L51.5605 16.9609ZM32.5176 28.957C32.5176 29.793 32.373 30.5274 32.084 31.1602C31.7949 31.7891 31.3809 32.2734 30.8418 32.6133C30.3066 32.9492 29.6895 33.1172 28.9902 33.1172C28.2988 33.1172 27.6816 32.9492 27.1387 32.6133C26.5996 32.2734 26.1816 31.791 25.8848 31.166C25.5918 30.541 25.4434 29.8203 25.4395 29.0039V28.5234C25.4395 27.6914 25.5859 26.957 25.8789 26.3203C26.1758 25.6836 26.5918 25.1973 27.127 24.8613C27.666 24.5215 28.2832 24.3516 28.9785 24.3516C29.6738 24.3516 30.2891 24.5195 30.8242 24.8555C31.3633 25.1875 31.7793 25.668 32.0723 26.2969C32.3652 26.9219 32.5137 27.6504 32.5176 28.4824V28.957ZM31.0352 28.5117C31.0352 27.5664 30.8555 26.8418 30.4961 26.3379C30.1406 25.834 29.6348 25.582 28.9785 25.582C28.3379 25.582 27.8359 25.834 27.4727 26.3379C27.1133 26.8379 26.9297 27.5469 26.9219 28.4649V28.957C26.9219 29.8945 27.1035 30.6191 27.4668 31.1309C27.834 31.6426 28.3418 31.8984 28.9902 31.8984C29.6465 31.8984 30.1504 31.6484 30.502 31.1484C30.8574 30.6484 31.0352 29.918 31.0352 28.957V28.5117ZM34.3574 33V27.7149H33.3906V26.6602H34.3574V26.0801C34.3574 25.377 34.5527 24.834 34.9434 24.4512C35.334 24.0684 35.8809 23.877 36.584 23.877C36.834 23.877 37.0996 23.9121 37.3809 23.9824L37.3457 25.0957C37.1895 25.0645 37.0078 25.0488 36.8008 25.0488C36.1211 25.0488 35.7812 25.3984 35.7812 26.0977V26.6602H37.0703V27.7149H35.7812V33H34.3574ZM38.6113 33V27.7149H37.6445V26.6602H38.6113V26.0801C38.6113 25.377 38.8066 24.834 39.1973 24.4512C39.5879 24.0684 40.1348 23.877 40.8379 23.877C41.0879 23.877 41.3535 23.9121 41.6348 23.9824L41.5996 25.0957C41.4434 25.0645 41.2617 25.0488 41.0547 25.0488C40.375 25.0488 40.0352 25.3984 40.0352 26.0977V26.6602H41.3242V27.7149H40.0352V33H38.6113ZM45.0156 33.1172C44.1133 33.1172 43.3809 32.834 42.8184 32.2676C42.2598 31.6973 41.9805 30.9395 41.9805 29.9941V29.8184C41.9805 29.1856 42.1016 28.6211 42.3438 28.125C42.5898 27.625 42.9336 27.2363 43.375 26.959C43.8164 26.6816 44.3086 26.543 44.8516 26.543C45.7148 26.543 46.3809 26.8184 46.8496 27.3691C47.3223 27.9199 47.5586 28.6992 47.5586 29.707V30.2813H43.416C43.459 30.8047 43.6328 31.2188 43.9375 31.5234C44.2461 31.8281 44.6328 31.9805 45.0977 31.9805C45.75 31.9805 46.2812 31.7168 46.6914 31.1895L47.459 31.9219C47.2051 32.3008 46.8652 32.5957 46.4395 32.8066C46.0176 33.0137 45.543 33.1172 45.0156 33.1172ZM44.8457 27.6856C44.4551 27.6856 44.1387 27.8223 43.8965 28.0957C43.6582 28.3691 43.5059 28.75 43.4395 29.2383H46.1523V29.1328C46.1211 28.6563 45.9941 28.2969 45.7715 28.0547C45.5488 27.8086 45.2402 27.6856 44.8457 27.6856ZM51.9883 27.9609C51.8008 27.9297 51.6074 27.9141 51.4082 27.9141C50.7559 27.9141 50.3164 28.1641 50.0898 28.6641V33H48.666V26.6602H50.0254L50.0605 27.3691C50.4043 26.8184 50.8809 26.543 51.4902 26.543C51.6934 26.543 51.8613 26.5703 51.9941 26.625L51.9883 27.9609Z" fill="white"/>
<path d="M72.9912 22.3086L73.8936 14.3594H82.6592V16.9482H76.4395L76.0527 20.3106C76.7904 19.9167 77.5745 19.7197 78.4053 19.7197C79.8949 19.7197 81.0622 20.1816 81.9072 21.1055C82.7523 22.0293 83.1748 23.3219 83.1748 24.9834C83.1748 25.9932 82.96 26.8991 82.5303 27.7012C82.1077 28.4961 81.499 29.1156 80.7041 29.5596C79.9092 29.9964 78.971 30.2149 77.8896 30.2149C76.9443 30.2149 76.0671 30.0251 75.2578 29.6455C74.4486 29.2588 73.8076 28.7181 73.335 28.0234C72.8695 27.3288 72.6224 26.5374 72.5938 25.6494H75.666C75.7305 26.3011 75.9561 26.8096 76.3428 27.1748C76.7367 27.5329 77.2487 27.7119 77.8789 27.7119C78.5807 27.7119 79.1214 27.4613 79.501 26.96C79.8805 26.4515 80.0703 25.7354 80.0703 24.8115C80.0703 23.9235 79.8519 23.2432 79.415 22.7705C78.9782 22.2979 78.3587 22.0615 77.5566 22.0615C76.819 22.0615 76.221 22.2549 75.7627 22.6416L75.4619 22.9209L72.9912 22.3086ZM95.6895 23.5332C95.6895 25.696 95.2419 27.3503 94.3467 28.4961C93.4515 29.6419 92.141 30.2149 90.415 30.2149C88.7106 30.2149 87.4072 29.6527 86.5049 28.5283C85.6025 27.404 85.1406 25.7927 85.1191 23.6943V20.8154C85.1191 18.6312 85.5703 16.9733 86.4727 15.8418C87.3822 14.7103 88.6891 14.1445 90.3936 14.1445C92.098 14.1445 93.4014 14.7067 94.3037 15.8311C95.2061 16.9482 95.668 18.556 95.6895 20.6543V23.5332ZM92.585 20.375C92.585 19.0788 92.4059 18.1371 92.0479 17.5498C91.6969 16.9554 91.1455 16.6582 90.3936 16.6582C89.6631 16.6582 89.1224 16.9411 88.7715 17.5068C88.4277 18.0654 88.2451 18.9427 88.2236 20.1387V23.9414C88.2236 25.2162 88.3955 26.165 88.7393 26.7881C89.0902 27.404 89.6488 27.7119 90.415 27.7119C91.1742 27.7119 91.722 27.4147 92.0586 26.8203C92.3952 26.2259 92.5706 25.3164 92.585 24.0918V20.375ZM97.752 17.3672C97.752 16.4076 98.0635 15.6305 98.6865 15.0361C99.3096 14.4346 100.126 14.1338 101.136 14.1338C102.16 14.1338 102.983 14.431 103.606 15.0254C104.229 15.6126 104.541 16.4111 104.541 17.4209V18.1943C104.541 19.1611 104.229 19.9382 103.606 20.5254C102.983 21.1126 102.167 21.4063 101.157 21.4063C100.14 21.4063 99.3167 21.1126 98.6865 20.5254C98.0635 19.931 97.752 19.1325 97.752 18.1299V17.3672ZM99.8145 18.1943C99.8145 18.624 99.9362 18.9714 100.18 19.2363C100.43 19.4941 100.756 19.6231 101.157 19.6231C101.558 19.6231 101.877 19.4906 102.113 19.2256C102.35 18.9606 102.468 18.6061 102.468 18.1621V17.3672C102.468 16.9375 102.35 16.5902 102.113 16.3252C101.877 16.0602 101.551 15.9277 101.136 15.9277C100.742 15.9277 100.423 16.0602 100.18 16.3252C99.9362 16.583 99.8145 16.9447 99.8145 17.4102V18.1943ZM105.229 26.165C105.229 25.1982 105.544 24.4212 106.174 23.834C106.804 23.2396 107.62 22.9424 108.623 22.9424C109.64 22.9424 110.46 23.236 111.083 23.8232C111.713 24.4033 112.028 25.2054 112.028 26.2295V27.0029C112.028 27.9626 111.72 28.7396 111.104 29.334C110.489 29.9212 109.669 30.2149 108.645 30.2149C107.613 30.2149 106.786 29.9177 106.163 29.3232C105.54 28.7288 105.229 27.9411 105.229 26.96V26.165ZM107.291 27.0029C107.291 27.3968 107.42 27.7334 107.678 28.0127C107.936 28.292 108.258 28.4316 108.645 28.4316C109.518 28.4316 109.955 27.9482 109.955 26.9815V26.165C109.955 25.7354 109.833 25.3916 109.59 25.1338C109.346 24.8688 109.024 24.7363 108.623 24.7363C108.222 24.7363 107.9 24.8688 107.656 25.1338C107.413 25.3916 107.291 25.7461 107.291 26.1973V27.0029ZM101.77 28.8291L100.255 28.0127L107.893 15.7881L109.407 16.6045L101.77 28.8291ZM132.696 22.5342C132.696 24.0739 132.424 25.4238 131.88 26.584C131.336 27.7441 130.555 28.6393 129.538 29.2695C128.528 29.8997 127.368 30.2149 126.058 30.2149C124.761 30.2149 123.605 29.9033 122.588 29.2803C121.571 28.6572 120.783 27.7692 120.225 26.6162C119.666 25.4561 119.383 24.124 119.376 22.6201V21.8467C119.376 20.307 119.652 18.9535 120.203 17.7861C120.762 16.6117 121.546 15.7129 122.556 15.0899C123.573 14.4596 124.733 14.1445 126.036 14.1445C127.34 14.1445 128.496 14.4596 129.506 15.0899C130.523 15.7129 131.307 16.6117 131.858 17.7861C132.417 18.9535 132.696 20.3034 132.696 21.8359V22.5342ZM129.431 21.8252C129.431 20.1852 129.137 18.9391 128.55 18.0869C127.963 17.2347 127.125 16.8086 126.036 16.8086C124.955 16.8086 124.12 17.2311 123.533 18.0762C122.946 18.9141 122.649 20.1458 122.642 21.7715V22.5342C122.642 24.1312 122.935 25.3701 123.522 26.251C124.11 27.1318 124.955 27.5723 126.058 27.5723C127.139 27.5723 127.97 27.1497 128.55 26.3047C129.13 25.4525 129.424 24.2135 129.431 22.5879V21.8252ZM135.683 30V20.6543H133.953V18.377H135.683V17.3887C135.683 16.0853 136.055 15.0755 136.8 14.3594C137.552 13.6361 138.601 13.2744 139.947 13.2744C140.377 13.2744 140.903 13.346 141.526 13.4893L141.494 15.8955C141.236 15.8311 140.921 15.7988 140.549 15.7988C139.382 15.7988 138.798 16.3467 138.798 17.4424V18.377H141.107V20.6543H138.798V30H135.683ZM143.567 30V20.6543H141.838V18.377H143.567V17.3887C143.567 16.0853 143.94 15.0755 144.685 14.3594C145.437 13.6361 146.486 13.2744 147.832 13.2744C148.262 13.2744 148.788 13.346 149.411 13.4893L149.379 15.8955C149.121 15.8311 148.806 15.7988 148.434 15.7988C147.266 15.7988 146.683 16.3467 146.683 17.4424V18.377H148.992V20.6543H146.683V30H143.567ZM161.853 25.2832C161.853 26.2585 161.684 27.1152 161.347 27.8535C161.009 28.5872 160.526 29.1524 159.897 29.5488C159.273 29.9408 158.553 30.1367 157.737 30.1367C156.931 30.1367 156.211 29.9408 155.577 29.5488C154.948 29.1524 154.461 28.5895 154.114 27.8604C153.772 27.1312 153.599 26.2904 153.595 25.3379V24.7774C153.595 23.8066 153.766 22.9499 154.107 22.207C154.454 21.4642 154.939 20.8968 155.563 20.5049C156.192 20.1084 156.912 19.9102 157.724 19.9102C158.535 19.9102 159.253 20.1061 159.877 20.4981C160.506 20.8854 160.991 21.446 161.333 22.1797C161.675 22.9089 161.848 23.7588 161.853 24.7295V25.2832ZM160.123 24.7637C160.123 23.6608 159.913 22.8154 159.494 22.2275C159.079 21.6397 158.489 21.3457 157.724 21.3457C156.976 21.3457 156.391 21.6397 155.967 22.2275C155.548 22.8109 155.333 23.638 155.324 24.709V25.2832C155.324 26.377 155.536 27.2223 155.96 27.8193C156.388 28.4163 156.981 28.7149 157.737 28.7149C158.503 28.7149 159.091 28.4232 159.501 27.8399C159.916 27.2565 160.123 26.4043 160.123 25.2832V24.7637ZM164.956 22.6035L165.004 23.458C165.551 22.7972 166.269 22.4668 167.157 22.4668C168.698 22.4668 169.481 23.3486 169.509 25.1123V30H167.848V25.208C167.848 24.7386 167.745 24.3923 167.54 24.169C167.34 23.9411 167.009 23.8272 166.549 23.8272C165.879 23.8272 165.38 24.1302 165.052 24.7363V30H163.391V22.6035H164.956ZM182.449 26.7598C182.349 27.8216 181.957 28.651 181.273 29.2481C180.59 29.8405 179.681 30.1367 178.546 30.1367C177.753 30.1367 177.053 29.9499 176.447 29.5762C175.846 29.1979 175.381 28.6624 175.053 27.9697C174.725 27.277 174.554 26.4727 174.54 25.5566V24.627C174.54 23.6882 174.706 22.861 175.039 22.1455C175.372 21.43 175.848 20.8786 176.468 20.4912C177.092 20.1038 177.812 19.9102 178.628 19.9102C179.726 19.9102 180.61 20.2087 181.28 20.8057C181.95 21.4027 182.34 22.2458 182.449 23.335H180.727C180.645 22.6195 180.435 22.1045 180.098 21.79C179.765 21.471 179.275 21.3115 178.628 21.3115C177.876 21.3115 177.297 21.5872 176.892 22.1387C176.491 22.6856 176.285 23.4899 176.276 24.5518V25.4336C176.276 26.5091 176.468 27.3294 176.851 27.8945C177.238 28.4596 177.803 28.7422 178.546 28.7422C179.225 28.7422 179.735 28.5895 180.077 28.2842C180.419 27.9788 180.635 27.4707 180.727 26.7598H182.449ZM185.478 23.4102C186.02 22.7813 186.706 22.4668 187.535 22.4668C189.112 22.4668 189.912 23.3669 189.935 25.167V30H188.273V25.2285C188.273 24.7181 188.162 24.3581 187.938 24.1484C187.72 23.9343 187.396 23.8272 186.968 23.8272C186.302 23.8272 185.806 24.1234 185.478 24.7158V30H183.816V19.5H185.478V23.4102ZM193.387 30H191.726V22.6035H193.387V30ZM191.623 20.6826C191.623 20.4274 191.703 20.2155 191.862 20.0469C192.026 19.8783 192.259 19.794 192.56 19.794C192.86 19.794 193.093 19.8783 193.257 20.0469C193.421 20.2155 193.503 20.4274 193.503 20.6826C193.503 20.9333 193.421 21.1429 193.257 21.3115C193.093 21.4756 192.86 21.5576 192.56 21.5576C192.259 21.5576 192.026 21.4756 191.862 21.3115C191.703 21.1429 191.623 20.9333 191.623 20.6826ZM198.24 28.8106C198.655 28.8106 198.999 28.6898 199.272 28.4482C199.546 28.2067 199.692 27.9082 199.71 27.5527H201.275C201.257 28.013 201.114 28.4437 200.845 28.8447C200.576 29.2412 200.211 29.5557 199.751 29.7881C199.291 30.0205 198.794 30.1367 198.261 30.1367C197.226 30.1367 196.406 29.8018 195.8 29.1318C195.194 28.4619 194.891 27.5368 194.891 26.3565V26.1856C194.891 25.0599 195.191 24.1598 195.793 23.4854C196.395 22.8063 197.215 22.4668 198.254 22.4668C199.133 22.4668 199.849 22.7243 200.4 23.2393C200.956 23.7497 201.248 24.4219 201.275 25.2559H199.71C199.692 24.832 199.546 24.4834 199.272 24.21C199.004 23.9365 198.66 23.7998 198.24 23.7998C197.702 23.7998 197.288 23.9958 196.996 24.3877C196.704 24.7751 196.556 25.3652 196.552 26.1582V26.4248C196.552 27.2269 196.695 27.8262 196.982 28.2227C197.274 28.6146 197.693 28.8106 198.24 28.8106ZM204.933 26.8281L204.194 27.5869V30H202.533V19.5H204.194V25.5566L204.714 24.9072L206.758 22.6035H208.754L206.006 25.6865L209.048 30H207.127L204.933 26.8281ZM212.965 30.1367C211.912 30.1367 211.058 29.8063 210.401 29.1455C209.75 28.4802 209.424 27.596 209.424 26.4932V26.2881C209.424 25.5498 209.565 24.8913 209.848 24.3125C210.135 23.7292 210.536 23.2757 211.051 22.9522C211.566 22.6286 212.14 22.4668 212.773 22.4668C213.781 22.4668 214.558 22.7881 215.104 23.4307C215.656 24.0732 215.932 24.9824 215.932 26.1582V26.8281H211.099C211.149 27.4388 211.352 27.9219 211.707 28.2774C212.067 28.6328 212.518 28.8106 213.061 28.8106C213.822 28.8106 214.441 28.5029 214.92 27.8877L215.815 28.7422C215.519 29.1843 215.123 29.5283 214.626 29.7744C214.134 30.016 213.58 30.1367 212.965 30.1367ZM212.767 23.7998C212.311 23.7998 211.942 23.9593 211.659 24.2783C211.381 24.5973 211.203 25.0417 211.126 25.6113H214.291V25.4883C214.255 24.9323 214.106 24.513 213.847 24.2305C213.587 23.9434 213.227 23.7998 212.767 23.7998ZM218.769 22.6035L218.816 23.458C219.363 22.7972 220.081 22.4668 220.97 22.4668C222.51 22.4668 223.294 23.3486 223.321 25.1123V30H221.66V25.208C221.66 24.7386 221.558 24.3923 221.353 24.169C221.152 23.9411 220.822 23.8272 220.361 23.8272C219.691 23.8272 219.192 24.1302 218.864 24.7363V30H217.203V22.6035H218.769ZM235.448 21.4414H232.345V30H230.629V21.4414H227.553V20.0469H235.448V21.4414ZM238.367 30H236.706V22.6035H238.367V30ZM236.604 20.6826C236.604 20.4274 236.683 20.2155 236.843 20.0469C237.007 19.8783 237.239 19.794 237.54 19.794C237.841 19.794 238.073 19.8783 238.237 20.0469C238.401 20.2155 238.483 20.4274 238.483 20.6826C238.483 20.9333 238.401 21.1429 238.237 21.3115C238.073 21.4756 237.841 21.5576 237.54 21.5576C237.239 21.5576 237.007 21.4756 236.843 21.3115C236.683 21.1429 236.604 20.9333 236.604 20.6826ZM242.585 26.8281L241.847 27.5869V30H240.186V19.5H241.847V25.5566L242.366 24.9072L244.41 22.6035H246.406L243.658 25.6865L246.7 30H244.779L242.585 26.8281ZM249.899 26.8281L249.161 27.5869V30H247.5V19.5H249.161V25.5566L249.681 24.9072L251.725 22.6035H253.721L250.973 25.6865L254.015 30H252.094L249.899 26.8281ZM259.23 30C259.158 29.8587 259.094 29.6286 259.039 29.3096C258.51 29.861 257.863 30.1367 257.098 30.1367C256.355 30.1367 255.749 29.9248 255.279 29.501C254.81 29.0772 254.575 28.5531 254.575 27.9287C254.575 27.1403 254.867 26.5365 255.45 26.1172C256.038 25.6934 256.877 25.4815 257.966 25.4815H258.984V24.9961C258.984 24.6133 258.877 24.308 258.663 24.0801C258.449 23.8477 258.123 23.7315 257.686 23.7315C257.307 23.7315 256.997 23.8272 256.756 24.0186C256.514 24.2054 256.394 24.4447 256.394 24.7363H254.732C254.732 24.3307 254.867 23.9525 255.136 23.6016C255.405 23.2461 255.769 22.9681 256.229 22.7676C256.694 22.5671 257.212 22.4668 257.781 22.4668C258.647 22.4668 259.338 22.6856 259.853 23.1231C260.368 23.556 260.632 24.1667 260.646 24.9551V28.291C260.646 28.9564 260.739 29.4873 260.926 29.8838V30H259.23ZM257.405 28.8037C257.733 28.8037 258.041 28.724 258.328 28.5645C258.62 28.405 258.839 28.1908 258.984 27.9219V26.5274H258.089C257.474 26.5274 257.011 26.6344 256.701 26.8486C256.391 27.0628 256.236 27.3659 256.236 27.7578C256.236 28.0768 256.341 28.332 256.551 28.5234C256.765 28.7103 257.05 28.8037 257.405 28.8037Z" fill="white"/>
</svg>
