<svg width="42" height="42" viewBox="0 0 42 42" fill="none" xmlns="http://www.w3.org/2000/svg">
<g clip-path="url(#clip0)">
<path d="M20.9666 42.0001C23.8186 38.439 36.126 22.6407 36.126 15.1594C36.126 6.78696 29.3387 0 20.9666 0C12.5941 0 5.80713 6.78696 5.80713 15.1594C5.80713 22.6422 18.1142 38.4397 20.9666 42.0001Z" fill="#15AD15"/>
<path d="M20.8131 11.6446H22.6132V13.6683H23.8011V6.85193C23.8011 6.38146 23.42 6 22.9496 6H14.5426C14.0721 6 13.6904 6.38146 13.6904 6.85193V24.1481C13.6904 24.6187 14.0721 25 14.5426 25H17.5672V19.4622H19.9102V14.8274C19.9102 14.3239 20.2806 13.906 20.8129 13.7428V11.6446H20.8131V11.6446ZM20.8131 7.70401H22.6132V10.2599H20.8131V7.70401ZM16.7092 22.0749H14.9092V19.5189H16.7092V22.0749H16.7092ZM16.7092 18.333H14.9092V15.7769H16.7092V18.333H16.7092ZM16.7092 14.2005H14.9092V11.6446H16.7092V14.2005H16.7092ZM16.7092 10.2601H14.9092V7.70401H16.7092V10.2601H16.7092ZM19.7113 18.333H17.9116V15.7769H19.7113V18.333ZM19.7113 14.2005H17.9116V11.6446H19.7113V14.2005ZM19.7113 10.2601H17.9116V7.70401H19.7113V10.2601ZM28.5875 14.3499H21.4671C21.0685 14.3499 20.7453 14.5636 20.7453 14.8274V24.5223C20.7453 24.7864 21.0685 25 21.4671 25H24.029V21.8959H26.0861V25H28.5875C28.986 25 29.3092 24.7864 29.3092 24.5223V14.8274C29.3092 14.5636 28.986 14.3499 28.5875 14.3499ZM23.3018 23.3602H21.7774V21.9277H23.3018V23.3602ZM23.3018 21.2629H21.7774V19.8303H23.3018V21.2629ZM23.3018 18.9467H21.7774V17.5141H23.3018V18.9467ZM23.3018 16.7377H21.7774V15.3049H23.3018V16.7377ZM25.8452 21.2629H24.3207V19.8303H25.8452V21.2629ZM25.8452 18.9467H24.3207V17.5141H25.8452V18.9467ZM25.8452 16.7377H24.3207V15.3049H25.8452V16.7377ZM28.3029 23.3922H26.7785V21.9596H28.3029V23.3922ZM28.3029 21.2629H26.7785V19.8303H28.3029V21.2629ZM28.3029 18.9467H26.7785V17.5141H28.3029V18.9467ZM28.3029 16.7377H26.7785V15.3049H28.3029V16.7377Z" fill="white"/>
</g>
<defs>
<clipPath id="clip0">
<rect width="42" height="42" fill="white"/>
</clipPath>
</defs>
</svg>
