<svg width="42" height="42" viewBox="0 0 42 42" fill="none" xmlns="http://www.w3.org/2000/svg">
<g clip-path="url(#clip0)">
<path d="M20.9666 42.0001C23.8186 38.439 36.126 22.6407 36.126 15.1594C36.126 6.78696 29.3387 0 20.9666 0C12.5941 0 5.80713 6.78696 5.80713 15.1594C5.80713 22.6422 18.1142 38.4397 20.9666 42.0001Z" fill="#4A40BA"/>
<g clip-path="url(#clip1)">
<path d="M20.9998 16.4C20.9179 16.4 20.8393 16.3664 20.7826 16.3067C20.62 16.1363 16.7998 12.0971 16.7998 9.62001C16.7998 7.0724 18.6838 5 20.9998 5C23.3158 5 25.1998 7.0724 25.1998 9.62001C25.1998 12.0971 21.3796 16.1363 21.217 16.3067C21.1603 16.3664 21.0817 16.4 20.9998 16.4ZM20.9998 5.6C19.0147 5.6 17.3998 7.4036 17.3998 9.62001C17.3998 11.5433 20.1904 14.7638 20.9998 15.6572C21.8092 14.7635 24.5998 11.5433 24.5998 9.62001C24.5998 7.4036 22.9849 5.6 20.9998 5.6Z" fill="white"/>
<path d="M15.5999 19.4C15.5231 19.4 15.4463 19.3706 15.3878 19.3121C15.2705 19.1948 15.2705 19.0052 15.3878 18.8879L15.9878 18.2879C16.0439 18.2315 16.1204 18.2 16.1999 18.2H25.6757L26.1878 17.6879C26.3051 17.5706 26.4947 17.5706 26.612 17.6879C26.7293 17.8052 26.7293 17.9948 26.612 18.1121L26.012 18.7121C25.9559 18.7685 25.8794 18.8 25.7999 18.8H16.3241L15.812 19.3121C15.7535 19.3706 15.6767 19.4 15.5999 19.4Z" fill="white"/>
<path d="M15.5999 21.8C15.5231 21.8 15.4463 21.7706 15.3878 21.7121C15.2705 21.5948 15.2705 21.4052 15.3878 21.2879L15.9878 20.6879C16.0439 20.6315 16.1204 20.6 16.1999 20.6H25.6757L26.1878 20.0879C26.3051 19.9706 26.4947 19.9706 26.612 20.0879C26.7293 20.2052 26.7293 20.3948 26.612 20.5121L26.012 21.1121C25.9559 21.1685 25.8794 21.2 25.7999 21.2H16.3241L15.812 21.7121C15.7535 21.7706 15.6767 21.8 15.5999 21.8Z" fill="white"/>
<path d="M17.1002 20H16.5002C16.3346 20 16.2002 19.8659 16.2002 19.7C16.2002 19.5341 16.3346 19.4 16.5002 19.4H17.1002C17.2658 19.4 17.4002 19.5341 17.4002 19.7C17.4002 19.8659 17.2658 20 17.1002 20Z" fill="white"/>
<path d="M23.1001 20H21.9001C21.7345 20 21.6001 19.8659 21.6001 19.7C21.6001 19.5341 21.7345 19.4 21.9001 19.4H23.1001C23.2657 19.4 23.4001 19.5341 23.4001 19.7C23.4001 19.8659 23.2657 20 23.1001 20ZM20.1001 20H18.9001C18.7345 20 18.6001 19.8659 18.6001 19.7C18.6001 19.5341 18.7345 19.4 18.9001 19.4H20.1001C20.2657 19.4 20.4001 19.5341 20.4001 19.7C20.4001 19.8659 20.2657 20 20.1001 20Z" fill="white"/>
<path d="M25.5001 20H24.9001C24.7345 20 24.6001 19.8659 24.6001 19.7C24.6001 19.5341 24.7345 19.4 24.9001 19.4H25.5001C25.6657 19.4 25.8001 19.5341 25.8001 19.7C25.8001 19.8659 25.6657 20 25.5001 20Z" fill="white"/>
<path d="M21.0001 11.6C19.6768 11.6 18.6001 10.5233 18.6001 9.20001C18.6001 7.87671 19.6768 6.8 21.0001 6.8C22.3234 6.8 23.4001 7.87671 23.4001 9.20001C23.4001 10.5233 22.3234 11.6 21.0001 11.6ZM21.0001 7.40001C20.0074 7.40001 19.2001 8.20731 19.2001 9.20001C19.2001 10.1927 20.0074 11 21.0001 11C21.9928 11 22.8001 10.1927 22.8001 9.20001C22.8001 8.20731 21.9928 7.40001 21.0001 7.40001Z" fill="white"/>
<path d="M29.7001 23H12.3001C12.2047 23 12.115 22.9547 12.0583 22.8779C12.0019 22.8008 11.9851 22.7015 12.0136 22.6106L15.0136 13.0106C15.0529 12.8852 15.169 12.8 15.3001 12.8H18.5866C18.6859 12.8 18.7789 12.8492 18.8347 12.9314C19.6474 14.1278 20.5846 15.1991 21.0001 15.6572C21.4156 15.1988 22.3534 14.1266 23.1652 12.9314C23.221 12.8492 23.314 12.8 23.4133 12.8H26.7001C26.8315 12.8 26.9473 12.8852 26.9866 13.0106L29.9866 22.6106C30.0151 22.7015 29.9986 22.8008 29.9419 22.8779C29.8852 22.9547 29.7955 23 29.7001 23ZM12.7081 22.4H29.2921L26.4796 13.4H23.5717C22.4899 14.9654 21.2704 16.2515 21.2176 16.3067C21.1045 16.4255 20.8963 16.4255 20.7832 16.3067C20.7301 16.2515 19.5106 14.9654 18.4285 13.4H15.5206L12.7081 22.4Z" fill="white"/>
<path d="M20.9999 17.6C19.8224 17.6 18.8999 16.9412 18.8999 16.1C18.8999 15.5528 19.3124 15.05 19.9766 14.7881C20.0969 14.7413 20.2331 14.7761 20.3162 14.8742C20.5967 15.2081 20.8379 15.4796 20.9999 15.6578C21.1619 15.4793 21.4028 15.2081 21.6833 14.8742C21.7661 14.7758 21.9026 14.741 22.0229 14.7881C22.6874 15.05 23.0999 15.5525 23.0999 16.1C23.0999 16.9412 22.1774 17.6 20.9999 17.6ZM20.0051 15.4352C19.6889 15.6071 19.4999 15.8513 19.4999 16.1C19.4999 16.5878 20.1869 17 20.9999 17C21.8129 17 22.4999 16.5878 22.4999 16.1C22.4999 15.8513 22.3109 15.6071 21.9944 15.4352C21.5444 15.9623 21.2315 16.2914 21.2171 16.3067C21.104 16.4255 20.8961 16.4255 20.7827 16.3067C20.7683 16.292 20.4551 15.9623 20.0051 15.4352Z" fill="white"/>
</g>
</g>
<defs>
<clipPath id="clip0">
<rect width="42" height="42" fill="white"/>
</clipPath>
<clipPath id="clip1">
<rect width="18" height="18" fill="white" transform="translate(12 5)"/>
</clipPath>
</defs>
</svg>
