<svg xmlns="http://www.w3.org/2000/svg" width="333" height="85" viewBox="0 0 333 85">
  <g id="refer" transform="translate(-350 -380)">
    <rect id="Rectangle_1" data-name="Rectangle 1" width="333" height="85" rx="20" transform="translate(350 380)" fill="#ec973c"/>
    <g id="refer-2" data-name="refer" transform="translate(333.523 359.685)">
      <path id="Path_1" data-name="Path 1" d="M52.179,44.823H49.173V50h-1.7V37.2h4.236a5,5,0,0,1,3.322.984A3.535,3.535,0,0,1,56.2,41.053a3.429,3.429,0,0,1-.65,2.083,3.829,3.829,0,0,1-1.793,1.327l3.006,5.432V50H54.956Zm-3.006-1.38h2.593a2.911,2.911,0,0,0,2-.65,2.191,2.191,0,0,0,.747-1.74,2.306,2.306,0,0,0-.712-1.819,2.982,2.982,0,0,0-2.039-.642H49.173Zm13.1,6.732a4.163,4.163,0,0,1-3.146-1.266,4.73,4.73,0,0,1-1.213-3.4v-.3a5.718,5.718,0,0,1,.536-2.522,4.222,4.222,0,0,1,1.512-1.74,3.8,3.8,0,0,1,2.109-.633,3.562,3.562,0,0,1,2.883,1.222,5.289,5.289,0,0,1,1.028,3.5v.677H59.535a3.41,3.41,0,0,0,.817,2.276,2.6,2.6,0,0,0,2,.861,2.832,2.832,0,0,0,1.459-.351,3.666,3.666,0,0,0,1.046-.932l.993.774A3.993,3.993,0,0,1,62.269,50.176Zm-.2-8.525a2.163,2.163,0,0,0-1.652.721,3.46,3.46,0,0,0-.826,2h4.764v-.123a3.078,3.078,0,0,0-.668-1.916A2.036,2.036,0,0,0,62.066,41.65Zm6.6,8.35V41.747h-1.5V40.49h1.5v-.976a3.238,3.238,0,0,1,.817-2.364,3.088,3.088,0,0,1,2.312-.835,4.267,4.267,0,0,1,1.116.149l-.088,1.318a4.672,4.672,0,0,0-.879-.079,1.581,1.581,0,0,0-1.222.466,1.851,1.851,0,0,0-.431,1.318v1h2.03v1.257h-2.03V50Zm9.193.176a4.163,4.163,0,0,1-3.146-1.266,4.73,4.73,0,0,1-1.213-3.4v-.3a5.718,5.718,0,0,1,.536-2.522,4.222,4.222,0,0,1,1.512-1.74,3.8,3.8,0,0,1,2.109-.633,3.562,3.562,0,0,1,2.883,1.222,5.289,5.289,0,0,1,1.028,3.5v.677H75.127a3.41,3.41,0,0,0,.817,2.276,2.6,2.6,0,0,0,2,.861,2.832,2.832,0,0,0,1.459-.351,3.666,3.666,0,0,0,1.046-.932l.993.774A3.993,3.993,0,0,1,77.86,50.176Zm-.2-8.525a2.163,2.163,0,0,0-1.652.721,3.459,3.459,0,0,0-.826,2h4.764v-.123a3.078,3.078,0,0,0-.668-1.916A2.036,2.036,0,0,0,77.658,41.65Zm10.4.3a4.874,4.874,0,0,0-.8-.062,2.143,2.143,0,0,0-2.171,1.362V50H83.459V40.49h1.582l.026,1.1a2.532,2.532,0,0,1,2.268-1.274,1.662,1.662,0,0,1,.721.123Zm5.625,4.614a3.02,3.02,0,0,1,.51-1.7,7.927,7.927,0,0,1,1.969-1.8,8.482,8.482,0,0,1-1.143-1.67,3.238,3.238,0,0,1,.571-3.542,3.236,3.236,0,0,1,2.338-.826,3.138,3.138,0,0,1,2.179.773,2.472,2.472,0,0,1,.862,1.934,2.732,2.732,0,0,1-.4,1.433,5.049,5.049,0,0,1-1.362,1.371l-.94.694,2.847,3.4a5.389,5.389,0,0,0,.6-2.54h1.468a6.132,6.132,0,0,1-1.081,3.718L103.929,50h-1.951l-.853-1.011a4.506,4.506,0,0,1-1.529.888,5.431,5.431,0,0,1-1.775.3,4.4,4.4,0,0,1-3.006-.993A3.312,3.312,0,0,1,93.681,46.563Zm4.14,2.285a3.424,3.424,0,0,0,2.365-.984l-3.12-3.735-.29.211a2.926,2.926,0,0,0-1.468,2.224,2.165,2.165,0,0,0,.668,1.661A2.617,2.617,0,0,0,97.82,48.849Zm-1.468-8.763A3.692,3.692,0,0,0,97.39,42.2l1.037-.729a2.787,2.787,0,0,0,.817-.8,1.857,1.857,0,0,0,.22-.932,1.244,1.244,0,0,0-.439-.976,1.593,1.593,0,0,0-1.107-.4,1.427,1.427,0,0,0-1.143.492A1.8,1.8,0,0,0,96.353,40.086Zm20.822,4h-5.546V48.62h6.442V50h-8.13V37.2h8.042v1.389h-6.354v4.113h5.546ZM125.787,50a3.392,3.392,0,0,1-.228-1,3.629,3.629,0,0,1-2.707,1.178,3.387,3.387,0,0,1-2.312-.791,2.591,2.591,0,0,1-.9-2.021,2.681,2.681,0,0,1,1.125-2.3,5.321,5.321,0,0,1,3.181-.826h1.582v-.747a1.811,1.811,0,0,0-.51-1.354,2.034,2.034,0,0,0-1.5-.51,2.368,2.368,0,0,0-1.459.439,1.294,1.294,0,0,0-.589,1.063h-1.635a2.237,2.237,0,0,1,.5-1.371,3.474,3.474,0,0,1,1.371-1.055,4.643,4.643,0,0,1,1.907-.387,3.745,3.745,0,0,1,2.575.826,2.949,2.949,0,0,1,.967,2.259v4.377a5.364,5.364,0,0,0,.334,2.083V50Zm-2.7-1.239a2.856,2.856,0,0,0,1.45-.4,2.391,2.391,0,0,0,.993-1.028V45.386h-1.274q-2.988,0-2.988,1.749a1.479,1.479,0,0,0,.509,1.2A1.961,1.961,0,0,0,123.089,48.761ZM134.3,41.949a4.877,4.877,0,0,0-.8-.062,2.143,2.143,0,0,0-2.171,1.362V50h-1.626V40.49h1.582l.026,1.1a2.533,2.533,0,0,1,2.268-1.274,1.664,1.664,0,0,1,.721.123Zm3.041-1.459.052,1.2a3.467,3.467,0,0,1,2.848-1.371q3.015,0,3.041,3.4V50H141.66V43.707a2.179,2.179,0,0,0-.474-1.521,1.871,1.871,0,0,0-1.433-.492,2.35,2.35,0,0,0-1.389.422,2.862,2.862,0,0,0-.931,1.107V50h-1.626V40.49ZM50.23,71.32V78H47.98V60.938h6.293a6.3,6.3,0,0,1,4.383,1.43,5.389,5.389,0,0,1,.035,7.617A6.6,6.6,0,0,1,54.25,71.32Zm0-1.84h4.043a4.066,4.066,0,0,0,2.766-.844A3.122,3.122,0,0,0,58,66.176a3.207,3.207,0,0,0-.961-2.437,3.791,3.791,0,0,0-2.637-.949H50.23Zm18.68-2.215a6.5,6.5,0,0,0-1.066-.082A2.857,2.857,0,0,0,64.949,69v9H62.781V65.32h2.109l.035,1.465a3.376,3.376,0,0,1,3.023-1.7,2.215,2.215,0,0,1,.961.164Zm1.2,4.277a7.541,7.541,0,0,1,.727-3.352,5.517,5.517,0,0,1,2.039-2.3,5.581,5.581,0,0,1,2.988-.809,5.33,5.33,0,0,1,4.184,1.793,6.882,6.882,0,0,1,1.605,4.77V71.8a7.539,7.539,0,0,1-.715,3.328,5.34,5.34,0,0,1-2.027,2.285,5.585,5.585,0,0,1-3.023.82A5.352,5.352,0,0,1,71.7,76.441,6.879,6.879,0,0,1,70.105,71.7Zm2.18.258a5.448,5.448,0,0,0,.973,3.387,3.327,3.327,0,0,0,5.25-.012,5.959,5.959,0,0,0,.973-3.633,5.367,5.367,0,0,0-1-3.375,3.282,3.282,0,0,0-5.215-.023A5.888,5.888,0,0,0,72.285,71.8Zm11.566-.246a7.426,7.426,0,0,1,1.371-4.711,4.722,4.722,0,0,1,7.254-.117l.105-1.406h1.98V77.7A5.147,5.147,0,0,1,93.1,81.574a5.364,5.364,0,0,1-3.914,1.418,6.52,6.52,0,0,1-2.684-.586,4.619,4.619,0,0,1-2-1.605l1.125-1.3a4.24,4.24,0,0,0,3.41,1.723,3.3,3.3,0,0,0,2.461-.891,3.391,3.391,0,0,0,.891-2.508v-1.09a4.456,4.456,0,0,1-3.551,1.5,4.347,4.347,0,0,1-3.609-1.793A7.859,7.859,0,0,1,83.852,71.555Zm2.18.246a5.713,5.713,0,0,0,.879,3.375,2.86,2.86,0,0,0,2.461,1.219,3.176,3.176,0,0,0,3.012-1.863V68.742a3.213,3.213,0,0,0-2.988-1.816,2.881,2.881,0,0,0-2.473,1.23A6.192,6.192,0,0,0,86.031,71.8Zm17.942-4.535a6.5,6.5,0,0,0-1.067-.082A2.856,2.856,0,0,0,100.012,69v9H97.844V65.32h2.109l.035,1.465a3.375,3.375,0,0,1,3.024-1.7,2.215,2.215,0,0,1,.961.164ZM113.336,78a4.548,4.548,0,0,1-.305-1.336,4.838,4.838,0,0,1-3.609,1.57,4.514,4.514,0,0,1-3.082-1.055,3.456,3.456,0,0,1-1.195-2.7,3.574,3.574,0,0,1,1.5-3.07,7.1,7.1,0,0,1,4.242-1.1H113v-1a2.412,2.412,0,0,0-.68-1.8,2.717,2.717,0,0,0-2-.68,3.162,3.162,0,0,0-1.945.586,1.727,1.727,0,0,0-.785,1.418H105.4a2.986,2.986,0,0,1,.668-1.828A4.634,4.634,0,0,1,107.9,65.6a6.2,6.2,0,0,1,2.543-.516,5,5,0,0,1,3.434,1.1,3.933,3.933,0,0,1,1.289,3.012v5.836a7.133,7.133,0,0,0,.445,2.777V78Zm-3.6-1.652a3.812,3.812,0,0,0,1.934-.527A3.189,3.189,0,0,0,113,74.449v-2.6h-1.7q-3.984,0-3.985,2.332a1.974,1.974,0,0,0,.68,1.594A2.612,2.612,0,0,0,109.738,76.348ZM120.6,65.32l.058,1.406a4.684,4.684,0,0,1,3.762-1.641,3.626,3.626,0,0,1,3.621,2.039,4.821,4.821,0,0,1,1.641-1.477,4.893,4.893,0,0,1,2.4-.562q4.172,0,4.242,4.418V78H134.16V69.633a2.889,2.889,0,0,0-.621-2.027,2.72,2.72,0,0,0-2.086-.68,2.861,2.861,0,0,0-2,.727,2.9,2.9,0,0,0-.926,1.934V78h-2.179V69.691q0-2.766-2.707-2.766a2.9,2.9,0,0,0-2.918,1.816V78h-2.168V65.32Z" fill="#fff"/>
      <path id="Path_2" data-name="Path 2" d="M266.188,76.249h-4.55V73.292a6.847,6.847,0,0,1-3.824,1.387,6.69,6.69,0,0,1-3.745-1.4h-.077v2.973h-4.553a6.887,6.887,0,0,0-6.887,6.887v6.241h30.523V83.136A6.887,6.887,0,0,0,266.188,76.249Z" fill="#fce8cb"/>
      <path id="Path_3" data-name="Path 3" d="M266.188,75.739h-4.04V73.292a.51.51,0,0,0-.8-.419,6.312,6.312,0,0,1-3.534,1.3,6.145,6.145,0,0,1-3.451-1.31.509.509,0,0,0-.293-.093h-.078a.51.51,0,0,0-.51.51v2.463h-4.043a7.406,7.406,0,0,0-7.4,7.4v6.241a.51.51,0,0,0,.51.51H261.49a.51.51,0,0,0,.51-.51s-.229-.51-.51-.51H243.062V83.136a6.385,6.385,0,0,1,6.378-6.377h4.552a.51.51,0,0,0,.51-.51V74.164a6.543,6.543,0,0,0,3.312,1.025,6.716,6.716,0,0,0,3.314-.973v2.033a.51.51,0,0,0,.51.51h4.55a6.385,6.385,0,0,1,6.378,6.377v5.731h-12.36a.51.51,0,0,0,0,1.02h12.869a.51.51,0,0,0,.51-.51V83.136A7.4,7.4,0,0,0,266.188,75.739Z" fill="#3a312a"/>
      <path id="Path_4" data-name="Path 4" d="M266.189,76.247H265.1l.028.021-4.733,6.277-2.442-1.84-2.443,1.84-4.733-6.277.029-.021h-1.367a6.887,6.887,0,0,0-6.887,6.887v6.244h30.523V83.134A6.885,6.885,0,0,0,266.189,76.247Z" fill="#5639b6"/>
      <path id="Path_5" data-name="Path 5" d="M245.989,56.467a2.71,2.71,0,1,0,2.71,2.71A2.71,2.71,0,0,0,245.989,56.467Z" fill="#fce8cb" fill-rule="evenodd"/>
      <path id="Path_6" data-name="Path 6" d="M245.989,55.957a3.22,3.22,0,1,0,3.219,3.22A3.223,3.223,0,0,0,245.989,55.957Zm0,5.42a2.2,2.2,0,1,1,2.2-2.2A2.2,2.2,0,0,1,245.989,61.377Z" fill="#3a312a"/>
      <path id="Path_7" data-name="Path 7" d="M269.641,61.887a2.71,2.71,0,1,0-2.71-2.71A2.71,2.71,0,0,0,269.641,61.887Z" fill="#fce8cb"/>
      <path id="Path_8" data-name="Path 8" d="M269.641,55.957a3.22,3.22,0,1,0,3.22,3.22A3.224,3.224,0,0,0,269.641,55.957Zm0,5.42a2.2,2.2,0,1,1,2.2-2.2A2.2,2.2,0,0,1,269.641,61.377Z" fill="#3a312a"/>
      <path id="Path_9" data-name="Path 9" d="M257.814,45.848A12.013,12.013,0,0,0,245.8,57.861c0,6.635,6.646,16.818,12.013,16.818,5.624,0,12.014-10.184,12.014-16.818A12.014,12.014,0,0,0,257.814,45.848Z" fill="#fce8cb"/>
      <path id="Path_10" data-name="Path 10" d="M257.814,45.339a12.536,12.536,0,0,0-12.522,12.523c0,3.255,1.564,7.541,4.084,11.187,2.7,3.9,5.772,6.141,8.438,6.141,2.764,0,5.876-2.239,8.537-6.144,2.459-3.608,3.986-7.893,3.986-11.184A12.537,12.537,0,0,0,257.814,45.339Zm7.694,23.132c-2.431,3.568-5.308,5.7-7.694,5.7-5.076,0-11.5-10.112-11.5-16.308a11.5,11.5,0,0,1,23.007,0C269.318,60.958,267.858,65.024,265.508,68.471Z" fill="#3a312a"/>
      <path id="Path_11" data-name="Path 11" d="M253.573,56.553a1.173,1.173,0,1,0,1.173,1.173A1.173,1.173,0,0,0,253.573,56.553Z" fill="#3a312a"/>
      <path id="Path_12" data-name="Path 12" d="M262.056,56.553a1.173,1.173,0,1,0,1.172,1.173A1.173,1.173,0,0,0,262.056,56.553Z" fill="#3a312a"/>
      <path id="Path_13" data-name="Path 13" d="M270.387,55.085a12.446,12.446,0,0,0-24.867,0,5.049,5.049,0,0,0,.359,1.859c.11.3,1.89-.669,2.042-.776a6.454,6.454,0,0,0,1.84-2.057,6.915,6.915,0,0,0,.48-1.009c.41-1.08,1.523-4.085,2.654-3.849a26.1,26.1,0,0,0,10.116,0c1.131-.236,2.244,2.769,2.654,3.849a7.007,7.007,0,0,0,.48,1.009,5.423,5.423,0,0,0,3.628,2.812c0-.076.1-.1.171-.128C270.46,56.609,270.387,55.5,270.387,55.085Z" fill="#b7aec4"/>
      <path id="Path_14" data-name="Path 14" d="M270.9,55.217v-.132c0-6.836-5.807-12.4-12.944-12.4s-12.944,5.562-12.944,12.4a5.6,5.6,0,0,0,.39,2.033.592.592,0,0,0,.384.363.646.646,0,0,0,.192.026,6.5,6.5,0,0,0,2.239-.921,7,7,0,0,0,1.989-2.219,7.451,7.451,0,0,0,.515-1.083l.026-.069c1.3-3.43,1.933-3.485,2.047-3.462a26.609,26.609,0,0,0,10.323,0c.114-.024.747.032,2.048,3.462l.026.069a7.5,7.5,0,0,0,.515,1.084,5.889,5.889,0,0,0,4,3.061.511.511,0,0,0,.4-.111.449.449,0,0,0,.059-.057C270.924,56.946,270.907,55.824,270.9,55.217Zm-1.144,1.106a1.014,1.014,0,0,0-.13.055,5.033,5.033,0,0,1-3.037-2.521,6.448,6.448,0,0,1-.445-.936l-.026-.068c-.87-2.3-1.868-4.383-3.209-4.1a25.6,25.6,0,0,1-9.908,0c-1.35-.282-2.338,1.8-3.208,4.1l-.026.069a6.579,6.579,0,0,1-.444.935,5.977,5.977,0,0,1-1.69,1.893,10.31,10.31,0,0,1-1.39.679,4.2,4.2,0,0,1-.212-1.343c0-6.274,5.349-11.378,11.924-11.378s11.924,5.1,11.924,11.378l0,.147C269.89,56.016,269.812,56.263,269.754,56.322Z" fill="#3a312a"/>
      <path id="Path_15" data-name="Path 15" d="M253.235,74.417l-2.453,1.849,4.732,6.278,2.453-1.849Z" fill="#87796f"/>
      <path id="Path_16" data-name="Path 16" d="M258.37,80.39l-4.731-6.278a.514.514,0,0,0-.336-.2.505.505,0,0,0-.378.1l-2.452,1.848a.51.51,0,0,0-.1.714l4.731,6.278a.511.511,0,0,0,.408.2.5.5,0,0,0,.306-.1L258.27,81.1a.509.509,0,0,0,.1-.714Zm-2.759,1.441-4.118-5.464,1.639-1.235,4.117,5.464Z" fill="#3a312a"/>
      <path id="Path_17" data-name="Path 17" d="M262.676,74.421,257.944,80.7l2.452,1.849,4.732-6.278Z" fill="#87796f"/>
      <path id="Path_18" data-name="Path 18" d="M265.434,75.86l-2.452-1.848a.509.509,0,0,0-.714.1l-4.731,6.278a.509.509,0,0,0,.1.714l2.453,1.848a.51.51,0,0,0,.714-.1l4.731-6.278A.51.51,0,0,0,265.434,75.86ZM260.3,81.831,258.658,80.6l4.117-5.464,1.639,1.235Z" fill="#3a312a"/>
      <path id="Path_19" data-name="Path 19" d="M248.27,83.935a.51.51,0,0,0-.51.51v4.933a.51.51,0,0,0,1.02,0V84.445A.51.51,0,0,0,248.27,83.935Z" fill="#3a312a"/>
      <path id="Path_20" data-name="Path 20" d="M267.636,83.935a.51.51,0,0,0-.51.51v4.933a.51.51,0,0,0,1.02,0V84.445A.51.51,0,0,0,267.636,83.935Z" fill="#3a312a"/>
      <path id="Path_21" data-name="Path 21" d="M257.729,38.882c-8.468,4.982-13.383-4.595-13.383-.227a8.187,8.187,0,0,0,1.286,4.01l2.021,2.865c2.039,2.568,4.479,5.305,7.425,6.143,4.745,1.349,13.144-.334,13.144-7.164C268.221,40.141,264.561,34.863,257.729,38.882Z" fill="#b7aec4"/>
      <path id="Path_22" data-name="Path 22" d="M265.178,37.7c-1.49-.853-4.038-1.416-7.708.743-4.843,2.849-8.461.68-10.621-.616-1.09-.654-1.811-1.085-2.426-.737-.521.295-.588.991-.588,1.565a8.536,8.536,0,0,0,1.356,4.267.292.292,0,0,0,.024.037l2.021,2.865a.277.277,0,0,0,.017.023c2.2,2.772,4.655,5.455,7.684,6.316a12.851,12.851,0,0,0,3.46.447,12.548,12.548,0,0,0,7.418-2.213,7.124,7.124,0,0,0,2.915-5.888C268.731,42.131,267.633,39.1,265.178,37.7Zm.023,11.884c-2.8,2.117-7.144,2.407-9.985,1.6-2.747-.781-5.062-3.324-7.155-5.958l-2-2.835a7.549,7.549,0,0,1-1.206-3.735,1.824,1.824,0,0,1,.079-.665,6.1,6.1,0,0,1,1.39.712c2.2,1.32,6.3,3.777,11.663.62,2.571-1.513,4.883-1.767,6.685-.737a6.932,6.932,0,0,1,3.039,5.924A6.059,6.059,0,0,1,265.2,49.583Z" fill="#3a312a"/>
      <path id="Path_23" data-name="Path 23" d="M261.313,65.062a.509.509,0,0,0-.656.3,2.975,2.975,0,0,1-2.842,1.735,2.875,2.875,0,0,1-2.859-1.775.51.51,0,0,0-.921.438,3.9,3.9,0,0,0,3.78,2.357,4.014,4.014,0,0,0,3.8-2.4A.51.51,0,0,0,261.313,65.062Z" fill="#3a312a"/>
      <path id="Path_24" data-name="Path 24" d="M311.275,76.249h-4.55V73.292a6.845,6.845,0,0,1-3.824,1.387,6.69,6.69,0,0,1-3.745-1.4h-.077v2.973h-4.552a6.887,6.887,0,0,0-6.887,6.887v6.241h30.522V83.136A6.887,6.887,0,0,0,311.275,76.249Z" fill="#fce8cb"/>
      <path id="Path_25" data-name="Path 25" d="M311.276,75.739h-4.041V73.292a.51.51,0,0,0-.8-.419,6.309,6.309,0,0,1-3.534,1.3,6.145,6.145,0,0,1-3.451-1.31.509.509,0,0,0-.293-.093h-.078a.509.509,0,0,0-.509.51v2.463h-4.043a7.405,7.405,0,0,0-7.4,7.4v6.241a.51.51,0,0,0,.51.51h30.522a.51.51,0,0,0,.51-.51V83.136A7.4,7.4,0,0,0,311.276,75.739Zm6.377,13.128h-29.5V83.136a6.385,6.385,0,0,1,6.378-6.377h4.552a.51.51,0,0,0,.51-.51V74.164a6.545,6.545,0,0,0,3.312,1.025,6.72,6.72,0,0,0,3.315-.973v2.033a.51.51,0,0,0,.51.51h4.55a6.385,6.385,0,0,1,6.377,6.377v5.732Z" fill="#3a312a"/>
      <path id="Path_26" data-name="Path 26" d="M311.276,76.247h-1.089l.028.021-4.733,6.277L303.04,80.7l-2.442,1.84-4.733-6.277.028-.021h-1.366a6.886,6.886,0,0,0-6.887,6.887v6.244h30.522V83.134A6.885,6.885,0,0,0,311.276,76.247Z" fill="#ea8f8b"/>
      <path id="Path_27" data-name="Path 27" d="M291.075,56.467a2.71,2.71,0,1,0,2.71,2.71A2.71,2.71,0,0,0,291.075,56.467Z" fill="#fce8cb" fill-rule="evenodd"/>
      <path id="Path_28" data-name="Path 28" d="M291.075,55.957a3.22,3.22,0,1,0,3.219,3.22A3.223,3.223,0,0,0,291.075,55.957Zm0,5.42a2.2,2.2,0,1,1,2.2-2.2A2.2,2.2,0,0,1,291.075,61.377Z" fill="#3a312a"/>
      <path id="Path_29" data-name="Path 29" d="M314.727,56.467a2.71,2.71,0,1,0,2.71,2.71A2.71,2.71,0,0,0,314.727,56.467Z" fill="#fce8cb" fill-rule="evenodd"/>
      <path id="Path_30" data-name="Path 30" d="M314.726,55.957a3.22,3.22,0,1,0,3.22,3.22A3.223,3.223,0,0,0,314.726,55.957Zm0,5.42a2.2,2.2,0,1,1,2.2-2.2A2.2,2.2,0,0,1,314.726,61.377Z" fill="#3a312a"/>
      <path id="Path_31" data-name="Path 31" d="M302.9,45.848a12.013,12.013,0,0,0-12.013,12.013c0,6.635,6.645,16.818,12.013,16.818,5.624,0,12.013-10.184,12.013-16.818A12.013,12.013,0,0,0,302.9,45.848Z" fill="#fce8cb"/>
      <path id="Path_32" data-name="Path 32" d="M302.9,45.339a12.537,12.537,0,0,0-12.523,12.523c0,3.255,1.565,7.541,4.085,11.187,2.7,3.9,5.772,6.141,8.438,6.141,2.764,0,5.876-2.239,8.537-6.144,2.459-3.608,3.986-7.893,3.986-11.184A12.537,12.537,0,0,0,302.9,45.339ZM310.6,68.471c-2.431,3.568-5.308,5.7-7.694,5.7-5.076,0-11.5-10.112-11.5-16.308a11.5,11.5,0,0,1,23.007,0C314.4,60.958,312.945,65.024,310.6,68.471Z" fill="#3a312a"/>
      <path id="Path_33" data-name="Path 33" d="M298.66,56.553a1.173,1.173,0,1,0,1.172,1.173A1.173,1.173,0,0,0,298.66,56.553Z" fill="#3a312a"/>
      <path id="Path_34" data-name="Path 34" d="M307.143,58.9a1.173,1.173,0,1,0-1.173-1.173A1.172,1.172,0,0,0,307.143,58.9Z" fill="#3a312a"/>
      <path id="Path_35" data-name="Path 35" d="M315.474,55.085a12.447,12.447,0,0,0-24.868,0,5.05,5.05,0,0,0,.36,1.859c.11.3,1.89-.669,2.042-.776a6.454,6.454,0,0,0,1.84-2.057,7.019,7.019,0,0,0,.48-1.009c.41-1.08,1.523-4.085,2.654-3.849a26.1,26.1,0,0,0,10.116,0c1.131-.236,2.245,2.769,2.654,3.849a7.112,7.112,0,0,0,.48,1.009,5.425,5.425,0,0,0,3.628,2.812c.005-.076.1-.1.172-.128C315.547,56.609,315.474,55.5,315.474,55.085Z" fill="#b7aec4"/>
      <path id="Path_36" data-name="Path 36" d="M315.985,55.216l0-.132c0-6.836-5.806-12.4-12.944-12.4S290.1,48.249,290.1,55.085a5.6,5.6,0,0,0,.389,2.033.592.592,0,0,0,.384.363.653.653,0,0,0,.193.026,6.487,6.487,0,0,0,2.238-.921,7,7,0,0,0,1.989-2.219,7.553,7.553,0,0,0,.515-1.083l.025-.066c1.3-3.433,1.935-3.486,2.048-3.464a26.614,26.614,0,0,0,10.324,0c.114-.024.748.032,2.048,3.464l.025.066a7.616,7.616,0,0,0,.515,1.084,5.892,5.892,0,0,0,4,3.061.512.512,0,0,0,.4-.11.522.522,0,0,0,.059-.057C316.01,56.946,315.993,55.824,315.985,55.216Zm-1.145,1.106a1.014,1.014,0,0,0-.13.055,5.033,5.033,0,0,1-3.037-2.521,6.564,6.564,0,0,1-.445-.936l-.025-.066c-.87-2.3-1.862-4.385-3.209-4.1a25.606,25.606,0,0,1-9.909,0c-1.351-.283-2.34,1.806-3.209,4.1l-.025.066a6.482,6.482,0,0,1-.444.935,5.992,5.992,0,0,1-1.689,1.893,10.431,10.431,0,0,1-1.39.679,4.2,4.2,0,0,1-.213-1.343c0-6.274,5.349-11.378,11.924-11.378s11.925,5.1,11.925,11.378v.146C314.977,56.016,314.9,56.263,314.84,56.322Z" fill="#3a312a"/>
      <path id="Path_37" data-name="Path 37" d="M298.321,74.416l-2.453,1.848,4.732,6.278,2.452-1.848Z" fill="#87796f"/>
      <path id="Path_38" data-name="Path 38" d="M303.456,80.39l-4.731-6.278a.51.51,0,0,0-.714-.1l-2.453,1.848a.509.509,0,0,0-.1.714l4.731,6.278a.51.51,0,0,0,.714.1l2.453-1.848a.509.509,0,0,0,.1-.714ZM300.7,81.831l-4.118-5.464,1.638-1.235,4.118,5.464Z" fill="#3a312a"/>
      <path id="Path_39" data-name="Path 39" d="M307.763,74.421,303.032,80.7l2.452,1.848,4.732-6.278Z" fill="#87796f"/>
      <path id="Path_40" data-name="Path 40" d="M310.521,75.86l-2.452-1.848a.509.509,0,0,0-.714.1l-4.732,6.278a.511.511,0,0,0,.1.714l2.452,1.848a.51.51,0,0,0,.714-.1l4.731-6.278A.509.509,0,0,0,310.521,75.86Zm-5.138,5.971L303.744,80.6l4.118-5.464,1.638,1.235Z" fill="#3a312a"/>
      <path id="Path_41" data-name="Path 41" d="M293.356,83.935a.51.51,0,0,0-.51.51v4.933a.51.51,0,0,0,1.02,0V84.445A.51.51,0,0,0,293.356,83.935Z" fill="#3a312a"/>
      <path id="Path_42" data-name="Path 42" d="M312.722,83.935a.51.51,0,0,0-.51.51v4.933a.51.51,0,0,0,1.02,0V84.445A.51.51,0,0,0,312.722,83.935Z" fill="#3a312a"/>
      <path id="Path_43" data-name="Path 43" d="M306.4,65.062a.509.509,0,0,0-.656.3A2.974,2.974,0,0,1,302.9,67.1a2.876,2.876,0,0,1-2.859-1.775.509.509,0,1,0-.92.438,3.893,3.893,0,0,0,3.779,2.357,4.012,4.012,0,0,0,3.8-2.4A.509.509,0,0,0,306.4,65.062Z" fill="#3a312a"/>
      <path id="Path_44" data-name="Path 44" d="M303.251,39.067c-7.163,0-9.743,2.73-9.743,6.1s2.58,6.1,9.743,6.1,12.97-6.1,12.97-6.1S310.414,39.067,303.251,39.067Z" fill="#b7aec4" fill-rule="evenodd"/>
      <path id="Path_45" data-name="Path 45" d="M316.59,44.811c-.243-.255-6.041-6.255-13.339-6.255C294.33,38.556,293,42.7,293,45.163s1.331,6.606,10.252,6.606c7.3,0,13.1-6,13.339-6.255A.508.508,0,0,0,316.59,44.811ZM303.251,50.75c-6.04,0-9.233-1.932-9.233-5.587s3.193-5.587,9.233-5.587c5.869,0,10.885,4.311,12.241,5.587C314.137,46.44,309.129,50.75,303.251,50.75Z" fill="#3a312a"/>
      <path id="Path_46" data-name="Path 46" d="M293.153,55.66H267.37v29.51h25.783Z" fill="#b7aec4"/>
      <path id="Path_47" data-name="Path 47" d="M293.153,55.151H267.37a.51.51,0,0,0-.51.51v29.51a.51.51,0,0,0,.51.51h25.783a.51.51,0,0,0,.51-.51V55.66A.51.51,0,0,0,293.153,55.151Zm-.51,29.51H267.88V56.17h24.763Z" fill="#3a312a"/>
      <path id="Path_48" data-name="Path 48" d="M288.807,79.367h-4.551V76.41a6.842,6.842,0,0,1-3.824,1.387,6.69,6.69,0,0,1-3.745-1.4h-.077v2.973h-4.553a6.887,6.887,0,0,0-6.887,6.887v3.123h30.523V86.254A6.886,6.886,0,0,0,288.807,79.367Z" fill="#fce8cb"/>
      <path id="Path_49" data-name="Path 49" d="M288.807,78.857h-4.041V76.41a.511.511,0,0,0-.8-.419,6.306,6.306,0,0,1-3.533,1.3,6.149,6.149,0,0,1-3.451-1.31.512.512,0,0,0-.294-.093h-.077a.51.51,0,0,0-.51.51v2.463h-4.043a7.4,7.4,0,0,0-7.4,7.4v3.123a.509.509,0,0,0,.509.51h30.523a.51.51,0,0,0,.51-.51V86.254A7.4,7.4,0,0,0,288.807,78.857Zm6.377,10.01h-29.5V86.254a6.384,6.384,0,0,1,6.377-6.377h4.552a.51.51,0,0,0,.51-.51V77.282a6.543,6.543,0,0,0,3.312,1.025,6.719,6.719,0,0,0,3.315-.973v2.033a.509.509,0,0,0,.509.51h4.551a6.385,6.385,0,0,1,6.377,6.377v2.614Z" fill="#3a312a"/>
      <path id="Path_50" data-name="Path 50" d="M288.807,79.365h-1.089l.028.021-4.733,6.277-2.442-1.84-2.443,1.84L273.4,79.386l.028-.021h-1.367a6.887,6.887,0,0,0-6.887,6.887v3.126h30.523V86.252A6.886,6.886,0,0,0,288.807,79.365Z" fill="#ef9c21"/>
      <path id="Path_51" data-name="Path 51" d="M268.606,65a2.71,2.71,0,1,0-2.71-2.71A2.71,2.71,0,0,0,268.606,65Z" fill="#fce8cb"/>
      <path id="Path_52" data-name="Path 52" d="M268.606,59.075a3.22,3.22,0,1,0,3.22,3.22A3.224,3.224,0,0,0,268.606,59.075Zm0,5.42a2.2,2.2,0,1,1,2.2-2.2A2.2,2.2,0,0,1,268.606,64.5Z" fill="#3a312a"/>
      <path id="Path_53" data-name="Path 53" d="M275.853,77.535,273.4,79.383l4.732,6.278,2.453-1.849Z" fill="#87796f"/>
      <path id="Path_54" data-name="Path 54" d="M280.988,83.507l-4.731-6.278a.509.509,0,0,0-.714-.1l-2.452,1.848a.51.51,0,0,0-.1.714l4.732,6.278a.509.509,0,0,0,.713.1l2.453-1.848a.509.509,0,0,0,.1-.714Zm-2.759,1.441-4.118-5.464,1.638-1.235,4.118,5.464Z" fill="#3a312a"/>
      <path id="Path_55" data-name="Path 55" d="M285.3,77.539l-4.732,6.278,2.452,1.848,4.732-6.278Z" fill="#87796f"/>
      <path id="Path_56" data-name="Path 56" d="M288.051,78.978,285.6,77.129a.509.509,0,0,0-.714.1l-4.731,6.278a.509.509,0,0,0,.1.714l2.453,1.848a.51.51,0,0,0,.714-.1l4.731-6.278A.51.51,0,0,0,288.051,78.978Zm-5.138,5.971-1.638-1.235,4.118-5.464,1.638,1.235Z" fill="#3a312a"/>
      <path id="Path_57" data-name="Path 57" d="M292.252,64.945a2.71,2.71,0,1,0-2.71-2.71A2.71,2.71,0,0,0,292.252,64.945Z" fill="#fce8cb"/>
      <path id="Path_58" data-name="Path 58" d="M292.252,59.016a3.22,3.22,0,1,0,3.22,3.22A3.224,3.224,0,0,0,292.252,59.016Zm0,5.42a2.2,2.2,0,1,1,2.2-2.2A2.2,2.2,0,0,1,292.252,64.436Z" fill="#3a312a"/>
      <path id="Path_59" data-name="Path 59" d="M280.433,48.966a12.014,12.014,0,0,0-12.014,12.013c0,6.635,6.646,16.818,12.014,16.818,5.623,0,12.013-10.184,12.013-16.818A12.014,12.014,0,0,0,280.433,48.966Z" fill="#fce8cb"/>
      <path id="Path_60" data-name="Path 60" d="M280.433,48.456A12.537,12.537,0,0,0,267.91,60.979c0,3.255,1.564,7.541,4.084,11.187,2.7,3.9,5.773,6.141,8.439,6.141,2.764,0,5.875-2.239,8.536-6.144,2.459-3.608,3.986-7.893,3.986-11.184A12.536,12.536,0,0,0,280.433,48.456Zm7.693,23.133c-2.431,3.568-5.308,5.7-7.694,5.7-5.076,0-11.5-10.112-11.5-16.308a11.5,11.5,0,0,1,23.007,0C291.936,64.076,290.476,68.142,288.126,71.589Z" fill="#3a312a"/>
      <path id="Path_61" data-name="Path 61" d="M276.191,59.671a1.173,1.173,0,1,0,1.172,1.173A1.173,1.173,0,0,0,276.191,59.671Z" fill="#3a312a"/>
      <path id="Path_62" data-name="Path 62" d="M284.674,59.671a1.173,1.173,0,1,0,1.172,1.173A1.173,1.173,0,0,0,284.674,59.671Z" fill="#3a312a"/>
      <path id="Path_63" data-name="Path 63" d="M283.93,68.18a.51.51,0,0,0-.656.3,2.976,2.976,0,0,1-2.842,1.735,2.876,2.876,0,0,1-2.859-1.775.51.51,0,1,0-.921.438,3.893,3.893,0,0,0,3.78,2.357,4.012,4.012,0,0,0,3.8-2.4A.51.51,0,0,0,283.93,68.18Z" fill="#3a312a"/>
      <path id="Path_64" data-name="Path 64" d="M290.317,47.065a13.846,13.846,0,0,0-14.3-3.665,27.818,27.818,0,0,0,4.012,6.862,23.472,23.472,0,0,0,2.569,2.614c.748.665,1.531,1.293,2.327,1.9a51.4,51.4,0,0,0,8.715,5.363,13.856,13.856,0,0,0-3.324-13.071Z" fill="#b7aec4"/>
      <path id="Path_65" data-name="Path 65" d="M290.687,46.715a14.356,14.356,0,0,0-14.826-3.8.509.509,0,0,0-.311.687,28.051,28.051,0,0,0,4.088,6.986,23.987,23.987,0,0,0,2.623,2.669c.686.611,1.458,1.24,2.357,1.922a51.863,51.863,0,0,0,8.8,5.416.511.511,0,0,0,.221.051.5.5,0,0,0,.213-.047.51.51,0,0,0,.28-.332,14.368,14.368,0,0,0-3.447-13.553ZM293.3,59.4a51.039,51.039,0,0,1-8.061-5.032c-.879-.665-1.629-1.278-2.3-1.873a23.081,23.081,0,0,1-2.513-2.557,26.236,26.236,0,0,1-3.707-6.213,13.337,13.337,0,0,1,16.879,12.853A13.426,13.426,0,0,1,293.3,59.4Z" fill="#3a312a"/>
      <path id="Path_66" data-name="Path 66" d="M280.261,42.735a13.849,13.849,0,0,0-13.324,17.6A83.812,83.812,0,0,0,282.6,52.876a53.757,53.757,0,0,0,7.718-5.811A13.806,13.806,0,0,0,280.261,42.735Z" fill="#b7aec4"/>
      <path id="Path_67" data-name="Path 67" d="M290.687,46.715a14.355,14.355,0,0,0-24.24,13.76.51.51,0,0,0,.666.34,83.736,83.736,0,0,0,15.757-7.506,54.464,54.464,0,0,0,7.79-5.866.5.5,0,0,0,.166-.358A.51.51,0,0,0,290.687,46.715Zm-8.358,5.73a81.944,81.944,0,0,1-15.04,7.218A13.33,13.33,0,0,1,280.26,43.245a13.2,13.2,0,0,1,9.319,3.8A54.008,54.008,0,0,1,282.329,52.445Z" fill="#3a312a"/>
    </g>
  </g>
</svg>
