<svg width="33" height="35" viewBox="0 0 33 35" fill="none" xmlns="http://www.w3.org/2000/svg">
<path d="M29.1124 33.6875C29.1808 33.5023 29.2168 33.3068 29.2188 33.1094V21.8805C29.644 21.6961 30.0185 21.4119 30.3104 21.0519C30.6022 20.6918 30.8029 20.2667 30.8953 19.8125H31.5312C31.6846 19.8125 31.8316 19.7516 31.94 19.6432C32.0485 19.5348 32.1094 19.3877 32.1094 19.2344C32.1125 17.7914 31.8299 16.3621 31.2781 15.0288C30.7262 13.6956 29.9159 12.4847 28.8938 11.4661C28.8106 11.3834 28.725 11.3089 28.6406 11.2308V10.5625C28.6406 10.2558 28.5188 9.96175 28.302 9.74491C28.0851 9.52807 27.791 9.40625 27.4844 9.40625V5.83459C28.0261 5.60616 28.4838 5.21546 28.7944 4.71624C29.105 4.21702 29.2532 3.63381 29.2188 3.04688C29.2188 1.45298 28.1816 0.15625 26.9062 0.15625C25.6309 0.15625 24.5938 1.45298 24.5938 3.04688C24.5593 3.63381 24.7075 4.21702 25.0181 4.71624C25.3287 5.21546 25.7864 5.60616 26.3281 5.83459V9.40625C26.2453 9.40659 26.1627 9.41589 26.0818 9.434C25.4055 9.09264 24.6954 8.82292 23.963 8.62925C23.7738 6.78148 22.9059 5.06959 21.5272 3.82487C20.1485 2.58016 18.3571 1.89113 16.4997 1.89113C14.6423 1.89113 12.8509 2.58016 11.4722 3.82487C10.0935 5.06959 9.22561 6.78148 9.03641 8.62925C8.30419 8.82263 7.59423 9.09216 6.91816 9.43342C6.83728 9.41551 6.75471 9.4064 6.67188 9.40625V5.9375C7.13186 5.9375 7.57301 5.75477 7.89826 5.42951C8.22352 5.10426 8.40625 4.66311 8.40625 4.20312V0.15625H7.25V4.20312C7.25 4.35645 7.18909 4.5035 7.08067 4.61192C6.97225 4.72034 6.8252 4.78125 6.67188 4.78125V0.15625H5.51562V4.78125C5.3623 4.78125 5.21525 4.72034 5.10683 4.61192C4.99841 4.5035 4.9375 4.35645 4.9375 4.20312V0.15625H3.78125V4.20312C3.78125 4.66311 3.96398 5.10426 4.28924 5.42951C4.61449 5.75477 5.05564 5.9375 5.51562 5.9375V9.40625C5.20897 9.40625 4.91487 9.52807 4.69803 9.74491C4.48119 9.96175 4.35938 10.2558 4.35938 10.5625V11.2424C3.2667 12.2675 2.3953 13.5054 1.79876 14.8798C1.20223 16.2542 0.893183 17.7361 0.890625 19.2344C0.890625 19.3877 0.951535 19.5348 1.05995 19.6432C1.16837 19.7516 1.31542 19.8125 1.46875 19.8125H2.10469C2.19657 20.2672 2.39702 20.6929 2.68894 21.0534C2.98087 21.4138 3.35562 21.6984 3.78125 21.8828V33.1094C3.78317 33.3068 3.81915 33.5023 3.88762 33.6875H0.3125V34.8438H32.6875V33.6875H29.1124ZM25.75 3.04688C25.75 2.10684 26.2796 1.3125 26.9062 1.3125C27.5329 1.3125 28.0625 2.10684 28.0625 3.04688C28.0625 3.98691 27.5329 4.78125 26.9062 4.78125C26.2796 4.78125 25.75 3.98691 25.75 3.04688ZM26.3281 10.5625H27.4844V15.1875H26.3281V10.5625ZM27.4844 16.3438C27.791 16.3438 28.0851 16.2219 28.302 16.0051C28.5188 15.7883 28.6406 15.4942 28.6406 15.1875V12.9033C30.0104 14.5207 30.8163 16.5402 30.9364 18.6562H30.375C30.2217 18.6562 30.0746 18.7172 29.9662 18.8256C29.8578 18.934 29.7969 19.081 29.7969 19.2344C29.7971 19.6209 29.6679 19.9963 29.43 20.3009C29.192 20.6055 28.859 20.8217 28.484 20.915C28.3467 20.9525 28.2048 20.9706 28.0625 20.9688C27.6025 20.9688 27.1614 20.786 26.8361 20.4608C26.5109 20.1355 26.3281 19.6944 26.3281 19.2344V16.9219C26.3281 16.7265 26.3119 16.534 26.2992 16.3438H26.3281H27.4844ZM7.79286 10.2919C8.18803 10.1122 8.59478 9.959 9.01039 9.83348C9.02966 10.185 9.07429 10.5348 9.14394 10.8799C8.63515 11.3955 8.19309 11.9729 7.82812 12.5987V10.5625C7.82705 10.4712 7.81521 10.3804 7.79286 10.2919ZM7.82812 16.9219C7.82241 15.1946 8.42034 13.5196 9.51856 12.1865C9.91567 13.1831 10.5221 14.0829 11.2969 14.825V19.2344C11.2969 19.6944 11.1141 20.1355 10.7889 20.4608C10.4636 20.786 10.0225 20.9688 9.5625 20.9688C9.10252 20.9688 8.66137 20.786 8.33611 20.4608C8.01085 20.1355 7.82812 19.6944 7.82812 19.2344V16.9219ZM12.4531 15.7367C13.4961 16.4027 14.6879 16.8 15.9219 16.893V19.2344C15.9219 19.6944 15.7391 20.1355 15.4139 20.4608C15.0886 20.786 14.6475 20.9688 14.1875 20.9688C13.7275 20.9688 13.2864 20.786 12.9611 20.4608C12.6359 20.1355 12.4531 19.6944 12.4531 19.2344V15.7367ZM17.0781 16.893C18.3121 16.8 19.5039 16.4027 20.5469 15.7367V19.2344C20.5469 19.6944 20.3641 20.1355 20.0389 20.4608C19.7136 20.786 19.2725 20.9688 18.8125 20.9688C18.3525 20.9688 17.9114 20.786 17.5861 20.4608C17.2609 20.1355 17.0781 19.6944 17.0781 19.2344V16.893ZM21.7031 14.8227C22.4781 14.0808 23.0846 13.1809 23.4814 12.1841C24.5802 13.5179 25.1781 15.1938 25.1719 16.9219V19.2344C25.1719 19.6944 24.9891 20.1355 24.6639 20.4608C24.3386 20.786 23.8975 20.9688 23.4375 20.9688C22.9775 20.9688 22.5364 20.786 22.2111 20.4608C21.8859 20.1355 21.7031 19.6944 21.7031 19.2344V14.8227ZM25.1719 10.5625V12.5987C24.8069 11.9729 24.3648 11.3955 23.8561 10.8799C23.9254 10.5347 23.97 10.185 23.9896 9.83348C24.4052 9.959 24.812 10.1122 25.2071 10.2919C25.1848 10.3804 25.1729 10.4712 25.1719 10.5625ZM10.1516 9.11372C10.2248 7.47918 10.9256 5.93585 12.1082 4.80507C13.2907 3.67428 14.8638 3.04319 16.5 3.04319C18.1362 3.04319 19.7093 3.67428 20.8918 4.80507C22.0744 5.93585 22.7752 7.47918 22.8484 9.11372V9.15245C22.8567 9.23679 22.8603 9.32151 22.8594 9.40625C22.8583 10.3014 22.6689 11.1864 22.3037 12.0037C21.9385 12.821 21.4055 13.5523 20.7394 14.1503C19.9211 14.8817 18.9275 15.3888 17.8552 15.6224C16.783 15.856 15.6685 15.8081 14.6201 15.4834C13.5718 15.1587 12.6254 14.5683 11.8728 13.7695C11.1203 12.9707 10.5873 11.9908 10.3256 10.925C10.2022 10.4282 10.1401 9.91815 10.1406 9.40625C10.1389 9.30861 10.1426 9.21095 10.1516 9.11372ZM5.51562 10.5625H6.67188V15.1875H5.51562V10.5625ZM3.20312 19.2344C3.20312 19.081 3.14222 18.934 3.0338 18.8256C2.92538 18.7172 2.77833 18.6562 2.625 18.6562H2.06422C2.19338 16.5482 2.99817 14.5378 4.35938 12.923V15.1875C4.35938 15.4942 4.48119 15.7883 4.69803 16.0051C4.91487 16.2219 5.20897 16.3438 5.51562 16.3438H6.67188H6.70078C6.68806 16.5368 6.67188 16.7294 6.67188 16.9219V19.2344C6.67188 19.6944 6.48915 20.1355 6.16389 20.4608C5.83863 20.786 5.39748 20.9688 4.9375 20.9688C4.79039 20.9701 4.64383 20.9506 4.50217 20.9109C4.13001 20.8158 3.80021 20.5992 3.56493 20.2956C3.32965 19.9919 3.20234 19.6185 3.20312 19.2344ZM13.0312 33.6875H8.40625V26.1719C8.40625 26.0185 8.46716 25.8715 8.57558 25.7631C8.684 25.6547 8.83105 25.5938 8.98438 25.5938H12.4531C12.6065 25.5938 12.7535 25.6547 12.8619 25.7631C12.9703 25.8715 13.0312 26.0185 13.0312 26.1719V33.6875ZM14.1875 33.6875V26.1719C14.1875 25.7119 14.0048 25.2707 13.6795 24.9455C13.3543 24.6202 12.9131 24.4375 12.4531 24.4375H8.98438C8.52439 24.4375 8.08324 24.6202 7.75799 24.9455C7.43273 25.2707 7.25 25.7119 7.25 26.1719V33.6875H5.51562C5.3623 33.6875 5.21525 33.6266 5.10683 33.5182C4.99841 33.4098 4.9375 33.2627 4.9375 33.1094V22.125C5.38792 22.1237 5.83177 22.0169 6.23339 21.8129C6.63501 21.609 6.9832 21.3137 7.25 20.9508C7.51588 21.3147 7.86388 21.6107 8.2657 21.8148C8.66752 22.0188 9.11183 22.1252 9.5625 22.1252C10.0132 22.1252 10.4575 22.0188 10.8593 21.8148C11.2611 21.6107 11.6091 21.3147 11.875 20.9508C12.1409 21.3147 12.4889 21.6107 12.8907 21.8148C13.2925 22.0188 13.7368 22.1252 14.1875 22.1252C14.6382 22.1252 15.0825 22.0188 15.4843 21.8148C15.8861 21.6107 16.2341 21.3147 16.5 20.9508C16.7659 21.3147 17.1139 21.6107 17.5157 21.8148C17.9175 22.0188 18.3618 22.1252 18.8125 22.1252C19.2632 22.1252 19.7075 22.0188 20.1093 21.8148C20.5111 21.6107 20.8591 21.3147 21.125 20.9508C21.3909 21.3147 21.7389 21.6107 22.1407 21.8148C22.5425 22.0188 22.9868 22.1252 23.4375 22.1252C23.8882 22.1252 24.3325 22.0188 24.7343 21.8148C25.1361 21.6107 25.4841 21.3147 25.75 20.9508C26.0168 21.3137 26.365 21.609 26.7666 21.8129C27.1682 22.0169 27.6121 22.1237 28.0625 22.125V33.1094C28.0625 33.2627 28.0016 33.4098 27.8932 33.5182C27.7848 33.6266 27.6377 33.6875 27.4844 33.6875H14.1875Z" fill="#F9CC5D"/>
</svg>
