<svg width="39" height="39" viewBox="0 0 39 39" fill="none" xmlns="http://www.w3.org/2000/svg">
<g clip-path="url(#clip0)">
<path d="M0.673339 23.1518L1.58205 25.6152L4.01241 29.3556C4.8012 30.2837 5.78013 31.0326 6.88581 31.5432C8.12956 32.1172 9.43192 32.8375 10.3466 33.8263C10.9435 34.4714 11.2812 35.2911 11.3377 38.3737H17.7192V34.7002C17.5017 32.5224 16.6846 30.0715 14.143 29.1982L11.8757 28.4112L7.90342 25.0391C7.53982 24.7306 7.00037 24.752 6.66235 25.0885C6.31512 25.434 6.30084 25.9916 6.62992 26.3546L8.36045 28.2276L5.32875 26.8319L3.42326 24.5351L2.59192 22.4207C2.40595 21.9476 1.90161 21.6819 1.4059 21.7959C0.803069 21.9348 0.459106 22.5713 0.673339 23.1518Z" fill="#FFCEB6"/>
<path d="M14.1428 29.1982L11.8755 28.4112L7.9033 25.0391C7.53969 24.7306 7.00024 24.752 6.66223 25.0885C6.31499 25.434 6.30071 25.9916 6.6298 26.3546L8.36033 28.2276L10.1322 29.1982C12.6739 30.0715 13.4906 32.5224 13.7084 34.7002V38.3737H17.7191V34.7002C17.5015 32.5224 16.6845 30.0715 14.1428 29.1982Z" fill="#EDBDA6"/>
<path d="M11.1264 36.0308H17.9179C18.2396 36.0308 18.5002 36.2914 18.5002 36.6128V38.3418C18.5002 38.6632 18.2396 38.9238 17.9179 38.9238H11.1264C10.8048 38.9238 10.5444 38.6632 10.5444 38.3418V36.6128C10.5444 36.2914 10.8048 36.0308 11.1264 36.0308Z" fill="#7FD19B"/>
<path d="M17.9176 36.0308H14.522V38.9238H17.9176C18.2392 38.9238 18.4999 38.6632 18.4999 38.3418V36.6128C18.4999 36.2914 18.2392 36.0308 17.9176 36.0308Z" fill="#3CAB8B"/>
<path d="M9.9815 30.6601C9.81814 30.6601 9.65568 30.5925 9.53934 30.4601C9.53934 30.4601 8.11618 28.4422 8.36017 28.2276C8.60445 28.0131 10.4234 29.6829 10.4234 29.6829C10.6379 29.9272 10.6141 30.2992 10.3701 30.5137C10.2582 30.6119 10.1196 30.6601 9.9815 30.6601Z" fill="#EDBDA6"/>
<path d="M38.3708 23.1518L37.4621 25.6152L35.0315 29.3556C34.2427 30.2837 33.2641 31.0326 32.1581 31.5432C30.9143 32.1172 29.612 32.8375 28.6973 33.8263C28.1004 34.4714 27.763 35.2911 27.7062 38.3737H21.3247V34.7002C21.5425 32.5224 22.3593 30.0715 24.9009 29.1982L27.1682 28.4112L31.1408 25.0391C31.5044 24.7306 32.0435 24.752 32.3815 25.0885C32.7288 25.434 32.7431 25.9916 32.414 26.3546L30.6834 28.2276L33.7154 26.8319L35.6206 24.5351L36.452 22.4207C36.6379 21.9476 37.1423 21.6819 37.638 21.7959C38.2408 21.9348 38.5848 22.5713 38.3708 23.1518Z" fill="#FFCEB6"/>
<path d="M37.8812 21.886L36.4946 25.0671L33.983 28.2276C33.1942 29.1557 29.3071 31.0326 28.2014 31.5432C26.9577 32.1172 25.655 32.8375 24.7406 33.8263C24.1435 34.4714 23.806 35.2911 23.7495 38.3737H27.7072C27.7637 35.2911 28.1011 34.4717 28.698 33.8263C29.6127 32.8375 30.915 32.1172 32.1588 31.5432C33.2647 31.0326 34.2437 30.2837 35.0325 29.3556L37.4628 25.6152L38.3715 23.1518C38.5548 22.6549 38.3281 22.1178 37.8812 21.886Z" fill="#EDBDA6"/>
<path d="M27.9173 36.0308H21.1255C20.8038 36.0308 20.5435 36.2914 20.5435 36.6128V38.3418C20.5435 38.6632 20.8038 38.9238 21.1255 38.9238H27.9173C28.2386 38.9238 28.4993 38.6632 28.4993 38.3418V36.6128C28.4993 36.2914 28.2386 36.0308 27.9173 36.0308Z" fill="#7FD19B"/>
<path d="M27.9179 36.0308H24.522V38.9238H27.9179C28.2392 38.9238 28.4999 38.6632 28.4999 38.3418V36.6128C28.4999 36.2914 28.2392 36.0308 27.9179 36.0308Z" fill="#3CAB8B"/>
<path d="M29.0625 30.6601C28.9244 30.6601 28.7858 30.6119 28.6742 30.5137C28.4299 30.2989 28.4061 29.9272 28.6206 29.6829C28.6206 29.6829 30.4398 28.0131 30.6838 28.2276C30.9281 28.4422 29.5046 30.4601 29.5046 30.4601C29.3883 30.5925 29.2258 30.6601 29.0625 30.6601Z" fill="#EDBDA6"/>
<path d="M28.867 18.0295C28.867 23.1908 24.6829 27.3746 19.522 27.3746C14.361 27.3746 10.1772 23.1908 10.1772 18.0295C10.1772 12.8686 14.361 8.68478 19.522 8.68478C24.6829 8.68478 28.867 12.8686 28.867 18.0295Z" fill="#FF8533"/>
<path d="M26.7389 18.0295C26.7389 22.0155 23.5078 25.2465 19.5219 25.2465C15.5362 25.2465 12.3052 22.0155 12.3052 18.0295C12.3052 14.0439 15.5362 10.8128 19.5219 10.8128C23.5078 10.8128 26.7389 14.0439 26.7389 18.0295Z" fill="#FCDF6C"/>
<path d="M19.5222 10.8128C18.8385 10.8128 18.1767 10.9081 17.5498 11.0857C20.577 11.9438 22.7944 14.7277 22.7944 18.0295C22.7944 21.3314 20.577 24.1155 17.5498 24.9737C18.1767 25.1513 18.8385 25.2465 19.5222 25.2465C23.5082 25.2465 26.7392 22.0155 26.7392 18.0295C26.7392 14.0439 23.5082 10.8128 19.5222 10.8128Z" fill="#F4B425"/>
<path d="M33.0291 6.96913L33.7459 8.87581L35.7808 8.96835C36.0046 8.97846 36.0959 9.26054 35.9209 9.40009L34.3294 10.6712L34.87 12.6347C34.9292 12.8507 34.6894 13.0251 34.5025 12.9016L32.8021 11.7808L31.1013 12.9016C30.9144 13.0251 30.6746 12.8507 30.7338 12.6347L31.2745 10.6712L29.6829 9.40009C29.5079 9.26054 29.5996 8.97846 29.823 8.96835L31.858 8.87581L32.5747 6.96913C32.6539 6.75966 32.9502 6.75966 33.0291 6.96913Z" fill="#E4EAF7"/>
<path d="M6.46854 6.96913L7.18563 8.87581L9.22025 8.96835C9.44401 8.97846 9.53565 9.26054 9.36069 9.40009L7.76882 10.6712L8.30946 12.6347C8.36897 12.8507 8.12915 13.0251 7.94229 12.9016L6.24152 11.7808L4.54104 12.9016C4.35388 13.0251 4.11406 12.8507 4.17357 12.6347L4.71421 10.6712L3.12234 9.40009C2.94738 9.26054 3.03902 8.97846 3.26278 8.96835L5.2974 8.87581L6.01449 6.96913C6.09334 6.75966 6.38999 6.75966 6.46854 6.96913Z" fill="#E4EAF7"/>
<path d="M19.7488 0.080926L20.4659 1.9876L22.5005 2.08014C22.7243 2.09055 22.8159 2.37233 22.641 2.51218L21.0491 3.783L21.5897 5.74681C21.6493 5.96253 21.4094 6.13689 21.2223 6.0137L19.5218 4.89255L17.8213 6.0137C17.6345 6.13689 17.3943 5.96282 17.4538 5.74681L17.9945 3.783L16.4026 2.51218C16.2277 2.37233 16.3193 2.09055 16.5431 2.08044L18.578 1.9876L19.2948 0.0812235C19.3736 -0.128547 19.67 -0.128547 19.7488 0.080926Z" fill="#E4EAF7"/>
</g>
<defs>
<clipPath id="clip0">
<rect width="39" height="39" fill="white"/>
</clipPath>
</defs>
</svg>
