<svg width="27" height="26" viewBox="0 0 27 26" fill="none" xmlns="http://www.w3.org/2000/svg">
<path d="M7.52276 19.7117L9.98317 18.3698C9.9691 18.3561 9.9811 18.352 10.0101 18.3549L11.2142 17.6982C11.6988 17.4338 12 16.9265 12 16.3745V14.8621C12 14.8621 11.5606 14.3345 11.1343 13.487C11.1343 13.4866 11.1339 13.4862 11.1339 13.4858C11.0781 13.3749 11.023 13.2578 10.9688 13.1365C10.9614 13.1196 10.9539 13.1034 10.9465 13.0865C10.8914 12.9611 10.8377 12.8316 10.7868 12.6959C10.7834 12.6872 10.7806 12.6777 10.7772 12.669C10.7326 12.549 10.6908 12.4252 10.6506 12.2982C10.6399 12.2634 10.6291 12.2291 10.6188 12.1943C10.577 12.0545 10.5377 11.9121 10.5037 11.7648C10.1603 11.5439 9.93104 11.1603 9.93104 10.7241V9.06896C9.93104 8.70482 10.0928 8.37917 10.3448 8.15158V5.81448C9.76014 5.36096 8.85393 4.93103 7.44828 4.93103C3.49117 4.93103 3.31034 8.24137 3.31034 8.24137V10.3083C3.09269 10.5048 2.89655 10.7858 2.89655 11.1003V12.5299C2.89655 12.9069 3.09476 13.2379 3.39062 13.4295C3.74772 14.9845 4.94648 16.1039 4.94648 16.1039V17.4102C4.94648 17.8865 4.68621 18.3251 4.26786 18.5531L1.49379 20.2919C0.573103 20.7942 0 21.7592 0 22.8081V23.9655H5.7931V22.6252C5.7931 21.4108 6.45641 20.2931 7.52276 19.7117Z" fill="#B0BEC5"/>
<path d="M23.6125 18.8434L23.6123 18.8434L19.6598 16.8671C19.488 16.7812 19.3792 16.6053 19.3792 16.413V15.2177C19.4419 15.136 19.5055 15.0494 19.5695 14.9589C20.0842 14.2323 20.4887 13.4467 20.79 12.6284C21.4266 12.238 21.8619 11.5378 21.8619 10.7241V9.06897C21.8619 8.58317 21.7046 8.13993 21.4481 7.77977V5.8094C21.4483 5.80738 21.4485 5.80532 21.4487 5.80323C21.4524 5.76014 21.4563 5.70299 21.4588 5.63375C21.4636 5.49573 21.4627 5.30682 21.4417 5.08334C21.4002 4.64053 21.2774 4.03429 20.9414 3.4179C20.2222 2.09882 18.7011 1.03448 15.8964 1.03448C13.0916 1.03448 11.5704 2.09879 10.8513 3.41793C10.5153 4.03436 10.3925 4.64061 10.351 5.08343C10.3301 5.30692 10.3292 5.49583 10.334 5.63385C10.3365 5.7031 10.3404 5.76024 10.3442 5.80333C10.3443 5.8054 10.3445 5.80744 10.3447 5.80945V7.77977C10.0883 8.13993 9.9309 8.58317 9.9309 9.06897V10.7241C9.9309 11.3593 10.1976 11.9271 10.6151 12.3311C10.8594 13.2117 11.2283 13.9577 11.5443 14.4957C11.7173 14.7901 11.8778 15.028 11.9999 15.1981V16.3745C11.9999 16.5603 11.8984 16.731 11.7356 16.8197L11.7351 16.8199L8.04394 18.8337C6.65609 19.5904 5.79297 21.0449 5.79297 22.6252V23.9655V24.9655H6.79297H24.9999H25.9999V23.9655V22.7063C25.9999 21.0703 25.0752 19.5751 23.6125 18.8434Z" fill="#f03f37" stroke="white" stroke-width="2"/>
</svg>
